<svg width="32" height="32" viewBox="0 0 32 32" fill="none" xmlns="http://www.w3.org/2000/svg" xmlns:xlink="http://www.w3.org/1999/xlink">
<path d="M7.341,20.898C7.561,21.553 7.209,22.261 6.555,22.482C4.436,23.194 3.31,24.973 2.707,26.782C2.468,27.5 2.324,28.191 2.237,28.763C2.809,28.676 3.5,28.532 4.218,28.292C6.027,27.69 7.806,26.564 8.518,24.445C8.738,23.791 9.447,23.439 10.102,23.659C10.756,23.879 11.108,24.588 10.888,25.242C9.819,28.42 7.176,29.942 5.008,30.664C3.913,31.029 2.888,31.209 2.14,31.299C1.764,31.344 1.453,31.367 1.232,31.378C1.121,31.384 1.033,31.387 0.97,31.389C0.939,31.39 0.913,31.39 0.895,31.39L0.872,31.39L0.864,31.39L0.862,31.39L0.86,31.39C0.86,31.39 0.859,31.39 0.859,30.14C-0.391,30.14 -0.391,30.14 -0.391,30.139L-0.391,30.138L-0.391,30.136L-0.391,30.128L-0.39,30.105C-0.39,30.087 -0.39,30.061 -0.389,30.03C-0.387,29.967 -0.384,29.878 -0.379,29.768C-0.367,29.547 -0.344,29.236 -0.299,28.86C-0.209,28.112 -0.029,27.087 0.336,25.992C1.057,23.824 2.58,21.181 5.758,20.112C6.412,19.892 7.121,20.244 7.341,20.898ZM0.859,30.14L-0.391,30.14C-0.391,30.831 0.169,31.39 0.859,31.39L0.859,30.14Z" clip-rule="evenodd" fill-rule="evenodd" fill="#FFFFFF"/>
<path d="M28.092,2.908C26.642,2.699 23.07,2.62 19.415,6.275L9.69,16L15,21.311L24.725,11.585C28.38,7.93 28.302,4.359 28.092,2.908ZM28.455,0.434C26.46,0.145 22.012,0.143 17.647,4.507L7.038,15.116C6.804,15.351 6.672,15.669 6.672,16C6.672,16.332 6.804,16.65 7.038,16.884L14.116,23.962C14.604,24.45 15.396,24.45 15.884,23.962L26.493,13.353C30.857,8.989 30.855,4.541 30.566,2.545C30.493,2.011 30.247,1.516 29.866,1.135C29.484,0.753 28.989,0.507 28.455,0.434Z" clip-rule="evenodd" fill-rule="evenodd" fill="#FFFFFF"/>
</svg>
