<svg width="26" height="26" viewBox="0 0 26 26" fill="none" xmlns="http://www.w3.org/2000/svg" xmlns:xlink="http://www.w3.org/1999/xlink">
<path d="M23.844,6.985C24.534,6.985 25.094,7.545 25.094,8.235L25.094,18.329L25.094,18.346C25.084,19.003 24.817,19.629 24.35,20.09L19.305,25.151C18.985,25.47 18.584,25.697 18.145,25.807C17.706,25.917 17.245,25.905 16.812,25.774C16.379,25.642 15.99,25.396 15.686,25.06C15.382,24.725 15.175,24.314 15.087,23.87C15.087,23.87 15.087,23.871 15.087,23.87L13.774,17.324C13.639,16.647 14.077,15.989 14.754,15.853C15.431,15.717 16.09,16.156 16.226,16.833L17.538,23.382L22.594,18.311L22.594,8.235C22.594,7.545 23.153,6.985 23.844,6.985Z" clip-rule="evenodd" fill-rule="evenodd" fill="#FFFFFF"/>
<path d="M6.654,-0.094L6.672,-0.094L16.766,-0.094C17.456,-0.094 18.016,0.466 18.016,1.156C18.016,1.846 17.456,2.406 16.766,2.406L6.689,2.406L6.679,2.416L6.679,2.416L1.619,7.461L1.621,7.462L8.167,8.774C8.844,8.91 9.283,9.569 9.147,10.245C9.012,10.922 8.353,11.361 7.676,11.225L1.131,9.913C1.131,9.913 1.13,9.913 1.13,9.913C0.686,9.825 0.275,9.618 -0.06,9.314C-0.395,9.01 -0.642,8.621 -0.773,8.188C-0.905,7.755 -0.916,7.294 -0.807,6.855C-0.697,6.416 -0.47,6.015 -0.15,5.695L-0.148,5.693L-0.148,5.693L4.91,0.65C5.371,0.183 5.997,-0.085 6.654,-0.094Z" clip-rule="evenodd" fill-rule="evenodd" fill="#FFFFFF"/>
</svg>
