<svg width="32" height="32" viewBox="0 0 32 32" fill="none" xmlns="http://www.w3.org/2000/svg" xmlns:xlink="http://www.w3.org/1999/xlink">
<path d="M8.341,20.898C8.561,21.553 8.209,22.261 7.555,22.481C5.436,23.194 4.31,24.973 3.707,26.781C3.468,27.5 3.324,28.191 3.237,28.763C3.809,28.676 4.5,28.531 5.218,28.292C7.027,27.69 8.806,26.564 9.518,24.445C9.738,23.791 10.447,23.439 11.102,23.659C11.756,23.879 12.108,24.588 11.888,25.242C10.819,28.42 8.176,29.942 6.008,30.664C4.913,31.029 3.888,31.209 3.14,31.299C2.764,31.344 2.453,31.367 2.232,31.378C2.121,31.384 2.033,31.387 1.97,31.389C1.939,31.389 1.913,31.39 1.895,31.39L1.872,31.39L1.864,31.39L1.862,31.39L1.86,31.39C1.86,31.39 1.859,31.39 1.859,30.14C0.609,30.14 0.609,30.14 0.609,30.139L0.609,30.138L0.609,30.135L0.609,30.128L0.61,30.105C0.61,30.086 0.61,30.061 0.611,30.03C0.613,29.967 0.616,29.878 0.621,29.768C0.633,29.547 0.656,29.236 0.701,28.86C0.791,28.112 0.971,27.087 1.336,25.992C2.057,23.824 3.58,21.181 6.758,20.112C7.412,19.892 8.121,20.244 8.341,20.898ZM1.859,30.14L0.609,30.14C0.609,30.831 1.169,31.39 1.859,31.39L1.859,30.14Z" clip-rule="evenodd" fill-rule="evenodd" fill="#FFFFFF"/>
<path d="M29.092,2.908C27.641,2.699 24.07,2.62 20.415,6.275L10.69,16L16,21.311L25.725,11.585C29.38,7.93 29.302,4.359 29.092,2.908ZM29.455,0.434C27.459,0.146 23.011,0.143 18.647,4.507L8.038,15.117C7.803,15.351 7.672,15.669 7.672,16C7.672,16.332 7.803,16.65 8.038,16.884L15.116,23.962C15.604,24.451 16.396,24.451 16.884,23.962L27.493,13.353C31.857,8.989 31.855,4.541 31.566,2.546C31.493,2.011 31.247,1.516 30.866,1.135C30.484,0.753 29.989,0.508 29.455,0.434Z" clip-rule="evenodd" fill-rule="evenodd" fill="#FFFFFF"/>
</svg>
