<svg width="28" height="26" viewBox="0 0 28 26" fill="none" xmlns="http://www.w3.org/2000/svg" xmlns:xlink="http://www.w3.org/1999/xlink">
<path d="M24.844,6.985C25.534,6.985 26.094,7.545 26.094,8.235L26.094,18.329L26.094,18.346C26.084,19.003 25.817,19.629 25.35,20.09L20.305,25.151C19.985,25.47 19.584,25.697 19.145,25.807C18.706,25.917 18.245,25.905 17.812,25.774C17.379,25.642 16.99,25.396 16.686,25.06C16.382,24.725 16.175,24.314 16.087,23.87C16.087,23.87 16.087,23.871 16.087,23.87L14.774,17.324C14.639,16.647 15.077,15.989 15.754,15.853C16.431,15.717 17.09,16.156 17.226,16.833L18.538,23.382L23.594,18.311L23.594,8.235C23.594,7.545 24.153,6.985 24.844,6.985Z" clip-rule="evenodd" fill-rule="evenodd" fill="#FFFFFF"/>
<path d="M7.654,-0.094L7.672,-0.094L17.766,-0.094C18.456,-0.094 19.016,0.466 19.016,1.156C19.016,1.846 18.456,2.406 17.766,2.406L7.689,2.406L7.679,2.416L7.679,2.416L2.619,7.461L2.621,7.462L9.167,8.774C9.844,8.91 10.283,9.569 10.147,10.245C10.012,10.922 9.353,11.361 8.676,11.225L2.131,9.913C2.131,9.913 2.13,9.913 2.13,9.913C1.686,9.825 1.275,9.618 0.94,9.314C0.605,9.01 0.358,8.621 0.227,8.188C0.095,7.755 0.084,7.294 0.193,6.855C0.303,6.416 0.53,6.015 0.85,5.695L0.852,5.693L0.852,5.693L5.91,0.65C6.371,0.183 6.997,-0.085 7.654,-0.094Z" clip-rule="evenodd" fill-rule="evenodd" fill="#FFFFFF"/>
</svg>
