<svg width="64" height="64" viewBox="0 0 64 64" fill="none" xmlns="http://www.w3.org/2000/svg" xmlns:xlink="http://www.w3.org/1999/xlink">
<circle cx="24" cy="36" r="3" fill="#858584"/>
<circle cx="40" cy="36" r="3" fill="#858584"/>
<path d="M31.985,19.999C27.65,19.967 23.336,20.611 19.198,21.908C18.144,22.238 17.022,21.651 16.692,20.597C16.361,19.543 16.948,18.421 18.002,18.091C22.531,16.671 27.254,15.966 32,15.999C36.746,15.966 41.469,16.671 45.998,18.091C47.052,18.421 47.639,19.543 47.309,20.597C46.978,21.651 45.856,22.238 44.802,21.908C40.665,20.611 36.351,19.967 32.015,19.999L31.985,19.999Z" clip-rule="evenodd" fill-rule="evenodd" fill="#858584"/>
<path d="M16.692,43.402C17.022,42.348 18.144,41.761 19.198,42.092C23.336,43.388 27.65,44.032 31.985,44L32.015,44C36.351,44.032 40.665,43.388 44.802,42.092C45.856,41.761 46.978,42.348 47.309,43.402C47.639,44.456 47.052,45.578 45.998,45.909C41.469,47.328 36.746,48.034 32,48C27.254,48.034 22.531,47.328 18.002,45.909C16.948,45.578 16.361,44.456 16.692,43.402Z" clip-rule="evenodd" fill-rule="evenodd" fill="#858584"/>
<path d="M40.44,9.622C41.301,9.137 42.31,8.985 43.276,9.196C45.911,9.767 48.491,10.568 50.986,11.59C51.547,11.807 52.052,12.15 52.46,12.593C52.872,13.04 53.175,13.578 53.344,14.162L61.816,42.451C62.037,43.188 62.042,43.973 61.83,44.713C61.619,45.453 61.2,46.116 60.623,46.625L60.613,46.634C56.478,50.232 50.875,52.956 44.511,54.516C43.627,54.741 42.692,54.653 41.865,54.267C41.042,53.883 40.376,53.226 39.981,52.409L36.964,46.426C36.467,45.44 36.863,44.237 37.85,43.74C38.836,43.242 40.039,43.639 40.536,44.625L43.561,50.625L43.563,50.63C49.439,49.189 54.427,46.714 57.987,43.617L59.3,45.125L57.977,43.626C57.98,43.623 57.983,43.618 57.984,43.614C57.986,43.609 57.986,43.604 57.984,43.6L49.512,15.309C49.505,15.306 49.498,15.304 49.491,15.301C47.205,14.363 44.841,13.628 42.426,13.105L42.422,13.104C42.416,13.103 42.41,13.104 42.404,13.107C42.4,13.109 42.396,13.114 42.394,13.119L40.424,19.078C40.077,20.127 38.946,20.696 37.897,20.349C36.849,20.003 36.279,18.871 36.626,17.823L38.607,11.83C38.926,10.894 39.578,10.108 40.44,9.622Z" clip-rule="evenodd" fill-rule="evenodd" fill="#858584"/>
<path d="M21.595,13.107C21.59,13.104 21.584,13.103 21.578,13.104L21.573,13.105C19.159,13.628 16.795,14.363 14.509,15.301C14.502,15.304 14.495,15.306 14.488,15.309L6.016,43.599C6.015,43.604 6.014,43.609 6.016,43.614C6.017,43.618 6.019,43.622 6.022,43.625C9.581,46.719 14.566,49.19 20.437,50.63L20.439,50.625L23.464,44.625C23.961,43.639 25.164,43.242 26.15,43.74C27.137,44.237 27.533,45.44 27.036,46.426L24.019,52.409C23.623,53.227 22.958,53.883 22.134,54.267C21.308,54.653 20.373,54.741 19.489,54.516C13.125,52.956 7.522,50.232 3.387,46.634L3.377,46.625C2.8,46.116 2.381,45.453 2.17,44.713C1.958,43.973 1.963,43.189 2.184,42.452C2.184,42.452 2.184,42.452 2.184,42.452L10.656,14.162C10.825,13.578 11.128,13.04 11.54,12.593C11.948,12.15 12.453,11.807 13.014,11.59C15.51,10.568 18.091,9.767 20.726,9.196C21.691,8.986 22.7,9.137 23.56,9.622C24.421,10.108 25.074,10.894 25.393,11.83L25.399,11.848L27.374,17.823C27.721,18.871 27.151,20.003 26.103,20.349C25.054,20.696 23.923,20.127 23.576,19.078L21.606,13.119C21.604,13.114 21.6,13.109 21.595,13.107Z" clip-rule="evenodd" fill-rule="evenodd" fill="#858584"/>
<circle cx="24" cy="36" r="3" fill="#858584"/>
<circle cx="40" cy="36" r="3" fill="#858584"/>
<path d="M31.985,19.999C27.65,19.967 23.336,20.611 19.198,21.908C18.144,22.238 17.022,21.651 16.692,20.597C16.361,19.543 16.948,18.421 18.002,18.091C22.531,16.671 27.254,15.966 32,15.999C36.746,15.966 41.469,16.671 45.998,18.091C47.052,18.421 47.639,19.543 47.309,20.597C46.978,21.651 45.856,22.238 44.802,21.908C40.665,20.611 36.351,19.967 32.015,19.999L31.985,19.999Z" clip-rule="evenodd" fill-rule="evenodd" fill="#858584"/>
<path d="M16.692,43.402C17.022,42.348 18.144,41.761 19.198,42.092C23.336,43.388 27.65,44.032 31.985,44L32.015,44C36.351,44.032 40.665,43.388 44.802,42.092C45.856,41.761 46.978,42.348 47.309,43.402C47.639,44.456 47.052,45.578 45.998,45.909C41.469,47.328 36.746,48.034 32,48C27.254,48.034 22.531,47.328 18.002,45.909C16.948,45.578 16.361,44.456 16.692,43.402Z" clip-rule="evenodd" fill-rule="evenodd" fill="#858584"/>
<path d="M40.44,9.622C41.301,9.137 42.31,8.985 43.276,9.196C45.911,9.767 48.491,10.568 50.986,11.59C51.547,11.807 52.052,12.15 52.46,12.593C52.872,13.04 53.175,13.578 53.344,14.162L61.816,42.451C62.037,43.188 62.042,43.973 61.83,44.713C61.619,45.453 61.2,46.116 60.623,46.625L60.613,46.634C56.478,50.232 50.875,52.956 44.511,54.516C43.627,54.741 42.692,54.653 41.865,54.267C41.042,53.883 40.376,53.226 39.981,52.409L36.964,46.426C36.467,45.44 36.863,44.237 37.85,43.74C38.836,43.242 40.039,43.639 40.536,44.625L43.561,50.625L43.563,50.63C49.439,49.189 54.427,46.714 57.987,43.617L59.3,45.125L57.977,43.626C57.98,43.623 57.983,43.618 57.984,43.614C57.986,43.609 57.986,43.604 57.984,43.6L49.512,15.309C49.505,15.306 49.498,15.304 49.491,15.301C47.205,14.363 44.841,13.628 42.426,13.105L42.422,13.104C42.416,13.103 42.41,13.104 42.404,13.107C42.4,13.109 42.396,13.114 42.394,13.119L40.424,19.078C40.077,20.127 38.946,20.696 37.897,20.349C36.849,20.003 36.279,18.871 36.626,17.823L38.607,11.83C38.926,10.894 39.578,10.108 40.44,9.622Z" clip-rule="evenodd" fill-rule="evenodd" fill="#858584"/>
<path d="M21.595,13.107C21.59,13.104 21.584,13.103 21.578,13.104L21.573,13.105C19.159,13.628 16.795,14.363 14.509,15.301C14.502,15.304 14.495,15.306 14.488,15.309L6.016,43.599C6.015,43.604 6.014,43.609 6.016,43.614C6.017,43.618 6.019,43.622 6.022,43.625C9.581,46.719 14.566,49.19 20.437,50.63L20.439,50.625L23.464,44.625C23.961,43.639 25.164,43.242 26.15,43.74C27.137,44.237 27.533,45.44 27.036,46.426L24.019,52.409C23.623,53.227 22.958,53.883 22.134,54.267C21.308,54.653 20.373,54.741 19.489,54.516C13.125,52.956 7.522,50.232 3.387,46.634L3.377,46.625C2.8,46.116 2.381,45.453 2.17,44.713C1.958,43.973 1.963,43.189 2.184,42.452C2.184,42.452 2.184,42.452 2.184,42.452L10.656,14.162C10.825,13.578 11.128,13.04 11.54,12.593C11.948,12.15 12.453,11.807 13.014,11.59C15.51,10.568 18.091,9.767 20.726,9.196C21.691,8.986 22.7,9.137 23.56,9.622C24.421,10.108 25.074,10.894 25.393,11.83L25.399,11.848L27.374,17.823C27.721,18.871 27.151,20.003 26.103,20.349C25.054,20.696 23.923,20.127 23.576,19.078L21.606,13.119C21.604,13.114 21.6,13.109 21.595,13.107Z" clip-rule="evenodd" fill-rule="evenodd" fill="#858584"/>
</svg>
