<svg width="66" height="64" viewBox="0 0 66 64" fill="none" xmlns="http://www.w3.org/2000/svg" xmlns:xlink="http://www.w3.org/1999/xlink">
<circle cx="24.586" cy="36" r="3" fill="#858584"/>
<circle cx="40.586" cy="36" r="3" fill="#858584"/>
<path d="M32.572,19.999C28.236,19.967 23.922,20.611 19.784,21.908C18.73,22.238 17.608,21.651 17.278,20.597C16.948,19.543 17.534,18.421 18.588,18.091C23.117,16.671 27.84,15.966 32.586,15.999C37.333,15.966 42.055,16.671 46.584,18.091C47.638,18.421 48.225,19.543 47.895,20.597C47.564,21.651 46.442,22.238 45.388,21.908C41.251,20.611 36.937,19.967 32.601,19.999L32.572,19.999Z" clip-rule="evenodd" fill-rule="evenodd" fill="#858584"/>
<path d="M17.278,43.402C17.608,42.348 18.73,41.761 19.784,42.092C23.922,43.388 28.236,44.032 32.572,44L32.601,44C36.937,44.032 41.251,43.388 45.388,42.092C46.442,41.761 47.564,42.348 47.895,43.402C48.225,44.456 47.638,45.578 46.584,45.909C42.055,47.328 37.333,48.034 32.586,48C27.84,48.034 23.117,47.328 18.588,45.909C17.534,45.578 16.948,44.456 17.278,43.402Z" clip-rule="evenodd" fill-rule="evenodd" fill="#858584"/>
<path d="M41.026,9.622C41.887,9.137 42.896,8.985 43.862,9.196C46.497,9.767 49.077,10.568 51.572,11.59C52.133,11.807 52.638,12.15 53.046,12.593C53.459,13.04 53.761,13.578 53.93,14.162L62.402,42.451C62.623,43.188 62.628,43.973 62.417,44.713C62.205,45.453 61.786,46.116 61.209,46.625L61.199,46.634C57.064,50.232 51.461,52.956 45.097,54.516C44.213,54.741 43.279,54.653 42.452,54.267C41.628,53.883 40.963,53.226 40.567,52.409L37.55,46.426C37.053,45.44 37.449,44.237 38.436,43.74C39.422,43.242 40.625,43.639 41.122,44.625L44.147,50.625L44.149,50.63C50.025,49.189 55.013,46.714 58.573,43.617L59.886,45.125L58.563,43.626C58.567,43.623 58.569,43.618 58.57,43.614C58.572,43.609 58.572,43.604 58.57,43.6L50.098,15.309C50.091,15.306 50.084,15.304 50.077,15.301C47.791,14.363 45.427,13.628 43.013,13.105L43.008,13.104C43.002,13.103 42.996,13.104 42.991,13.107C42.986,13.109 42.982,13.114 42.98,13.119L41.01,19.078C40.663,20.127 39.532,20.696 38.483,20.349C37.435,20.003 36.866,18.871 37.212,17.823L39.193,11.83C39.512,10.894 40.165,10.108 41.026,9.622Z" clip-rule="evenodd" fill-rule="evenodd" fill="#858584"/>
<path d="M22.182,13.107C22.176,13.104 22.17,13.103 22.164,13.104L22.16,13.105C19.745,13.628 17.381,14.363 15.095,15.301C15.088,15.304 15.081,15.306 15.074,15.309L6.602,43.599C6.601,43.604 6.6,43.609 6.602,43.614C6.603,43.618 6.605,43.622 6.608,43.625C10.168,46.719 15.152,49.19 21.023,50.63L21.025,50.625L24.05,44.625C24.547,43.639 25.75,43.242 26.736,43.74C27.723,44.237 28.119,45.44 27.622,46.426L24.605,52.409C24.21,53.227 23.544,53.883 22.721,54.267C21.894,54.653 20.959,54.741 20.075,54.516C13.711,52.956 8.108,50.232 3.973,46.634L3.963,46.625C3.386,46.116 2.967,45.453 2.756,44.713C2.544,43.973 2.549,43.189 2.77,42.452C2.77,42.452 2.77,42.452 2.77,42.452L11.242,14.162C11.411,13.578 11.714,13.04 12.126,12.593C12.534,12.15 13.039,11.807 13.6,11.59C16.096,10.568 18.677,9.767 21.313,9.196C22.277,8.986 23.286,9.137 24.146,9.622C25.008,10.108 25.66,10.894 25.979,11.83L25.985,11.848L27.96,17.823C28.307,18.871 27.738,20.003 26.689,20.349C25.64,20.696 24.509,20.127 24.162,19.078L22.192,13.119C22.19,13.114 22.186,13.109 22.182,13.107Z" clip-rule="evenodd" fill-rule="evenodd" fill="#858584"/>
<circle cx="24.586" cy="36" r="3" fill="#858584"/>
<circle cx="40.586" cy="36" r="3" fill="#858584"/>
<path d="M32.572,19.999C28.236,19.967 23.922,20.611 19.784,21.908C18.73,22.238 17.608,21.651 17.278,20.597C16.948,19.543 17.534,18.421 18.588,18.091C23.117,16.671 27.84,15.966 32.586,15.999C37.333,15.966 42.055,16.671 46.584,18.091C47.638,18.421 48.225,19.543 47.895,20.597C47.564,21.651 46.442,22.238 45.388,21.908C41.251,20.611 36.937,19.967 32.601,19.999L32.572,19.999Z" clip-rule="evenodd" fill-rule="evenodd" fill="#858584"/>
<path d="M17.278,43.402C17.608,42.348 18.73,41.761 19.784,42.092C23.922,43.388 28.236,44.032 32.572,44L32.601,44C36.937,44.032 41.251,43.388 45.388,42.092C46.442,41.761 47.564,42.348 47.895,43.402C48.225,44.456 47.638,45.578 46.584,45.909C42.055,47.328 37.333,48.034 32.586,48C27.84,48.034 23.117,47.328 18.588,45.909C17.534,45.578 16.948,44.456 17.278,43.402Z" clip-rule="evenodd" fill-rule="evenodd" fill="#858584"/>
<path d="M41.026,9.622C41.887,9.137 42.896,8.985 43.862,9.196C46.497,9.767 49.077,10.568 51.572,11.59C52.133,11.807 52.638,12.15 53.046,12.593C53.459,13.04 53.761,13.578 53.93,14.162L62.402,42.451C62.623,43.188 62.628,43.973 62.417,44.713C62.205,45.453 61.786,46.116 61.209,46.625L61.199,46.634C57.064,50.232 51.461,52.956 45.097,54.516C44.213,54.741 43.279,54.653 42.452,54.267C41.628,53.883 40.963,53.226 40.567,52.409L37.55,46.426C37.053,45.44 37.449,44.237 38.436,43.74C39.422,43.242 40.625,43.639 41.122,44.625L44.147,50.625L44.149,50.63C50.025,49.189 55.013,46.714 58.573,43.617L59.886,45.125L58.563,43.626C58.567,43.623 58.569,43.618 58.57,43.614C58.572,43.609 58.572,43.604 58.57,43.6L50.098,15.309C50.091,15.306 50.084,15.304 50.077,15.301C47.791,14.363 45.427,13.628 43.013,13.105L43.008,13.104C43.002,13.103 42.996,13.104 42.991,13.107C42.986,13.109 42.982,13.114 42.98,13.119L41.01,19.078C40.663,20.127 39.532,20.696 38.483,20.349C37.435,20.003 36.866,18.871 37.212,17.823L39.193,11.83C39.512,10.894 40.165,10.108 41.026,9.622Z" clip-rule="evenodd" fill-rule="evenodd" fill="#858584"/>
<path d="M22.182,13.107C22.176,13.104 22.17,13.103 22.164,13.104L22.16,13.105C19.745,13.628 17.381,14.363 15.095,15.301C15.088,15.304 15.081,15.306 15.074,15.309L6.602,43.599C6.601,43.604 6.6,43.609 6.602,43.614C6.603,43.618 6.605,43.622 6.608,43.625C10.168,46.719 15.152,49.19 21.023,50.63L21.025,50.625L24.05,44.625C24.547,43.639 25.75,43.242 26.736,43.74C27.723,44.237 28.119,45.44 27.622,46.426L24.605,52.409C24.21,53.227 23.544,53.883 22.721,54.267C21.894,54.653 20.959,54.741 20.075,54.516C13.711,52.956 8.108,50.232 3.973,46.634L3.963,46.625C3.386,46.116 2.967,45.453 2.756,44.713C2.544,43.973 2.549,43.189 2.77,42.452C2.77,42.452 2.77,42.452 2.77,42.452L11.242,14.162C11.411,13.578 11.714,13.04 12.126,12.593C12.534,12.15 13.039,11.807 13.6,11.59C16.096,10.568 18.677,9.767 21.313,9.196C22.277,8.986 23.286,9.137 24.146,9.622C25.008,10.108 25.66,10.894 25.979,11.83L25.985,11.848L27.96,17.823C28.307,18.871 27.738,20.003 26.689,20.349C25.64,20.696 24.509,20.127 24.162,19.078L22.192,13.119C22.19,13.114 22.186,13.109 22.182,13.107Z" clip-rule="evenodd" fill-rule="evenodd" fill="#858584"/>
</svg>
