<svg width="200" height="200" viewBox="0 0 200 200" fill="none" xmlns="http://www.w3.org/2000/svg" xmlns:xlink="http://www.w3.org/1999/xlink">
<circle cx="100" cy="99" r="83.333" fill="url(#pf_0_i_1_5346;1962_9719;1618_24488;1617_11659)"/>
<g filter="url(#filterI1_5346;1962_9719;1618_24488;1617_11660)">
<circle cx="105.072" cy="104.072" r="55.797" fill="url(#pf_0_i_1_5346;1962_9719;1618_24488;1617_11661)"/>
</g>
<path d="M44.997,64.638C46.391,64.638 47.522,63.507 47.522,62.113C47.522,60.719 46.391,59.589 44.997,59.589C43.603,59.589 42.473,60.719 42.473,62.113C42.473,63.507 43.603,64.638 44.997,64.638ZM44.997,66.531C47.437,66.531 49.415,64.553 49.415,62.113C49.415,59.673 47.437,57.696 44.997,57.696C42.557,57.696 40.58,59.673 40.58,62.113C40.58,64.553 42.557,66.531 44.997,66.531Z" clip-rule="evenodd" fill-rule="evenodd" fill="#FFFFFF"/>
<path d="M37.026,142.899C38.421,142.899 39.551,141.768 39.551,140.374C39.551,138.98 38.421,137.85 37.026,137.85C35.632,137.85 34.502,138.98 34.502,140.374C34.502,141.768 35.632,142.899 37.026,142.899ZM37.026,144.792C39.466,144.792 41.444,142.814 41.444,140.374C41.444,137.934 39.466,135.957 37.026,135.957C34.587,135.957 32.609,137.934 32.609,140.374C32.609,142.814 34.587,144.792 37.026,144.792Z" clip-rule="evenodd" fill-rule="evenodd" fill="#FFFFFF"/>
<path d="M154.417,36.377C155.812,36.377 156.942,35.247 156.942,33.852C156.942,32.458 155.812,31.328 154.417,31.328C153.023,31.328 151.893,32.458 151.893,33.852C151.893,35.247 153.023,36.377 154.417,36.377ZM154.417,38.27C156.857,38.27 158.836,36.292 158.836,33.852C158.836,31.413 156.857,29.435 154.417,29.435C151.978,29.435 150,31.413 150,33.852C150,36.292 151.978,38.27 154.417,38.27Z" clip-rule="evenodd" fill-rule="evenodd" fill="#FFFFFF"/>
<path d="M47.385,29.572C47.57,28.802 48.664,28.802 48.85,29.572L49.475,32.16C49.541,32.435 49.756,32.65 50.031,32.716L52.62,33.341C53.389,33.527 53.389,34.621 52.62,34.807L50.031,35.432C49.756,35.498 49.541,35.712 49.475,35.987L48.85,38.576C48.664,39.345 47.57,39.345 47.385,38.576L46.76,35.987C46.693,35.712 46.479,35.498 46.204,35.432L43.615,34.807C42.846,34.621 42.846,33.527 43.615,33.341L46.204,32.716C46.479,32.65 46.693,32.435 46.76,32.16L47.385,29.572Z" fill="#FFFFFF"/>
<path d="M163.981,55.95C164.184,55.107 165.383,55.107 165.587,55.95L166.273,58.788C166.345,59.089 166.58,59.324 166.881,59.397L169.719,60.082C170.562,60.286 170.562,61.485 169.719,61.689L166.881,62.374C166.58,62.446 166.345,62.682 166.273,62.983L165.587,65.821C165.383,66.664 164.184,66.664 163.981,65.821L163.296,62.983C163.223,62.682 162.988,62.446 162.686,62.374L159.849,61.689C159.006,61.485 159.006,60.286 159.849,60.082L162.686,59.397C162.988,59.324 163.223,59.089 163.296,58.788L163.981,55.95Z" fill="url(#pf_0_i_1_5346;1962_9719;1618_24488;1617_11666)"/>
<path d="M39.878,159.317C40.837,159.164 41.603,160.106 41.256,161.014L38.916,167.141C38.57,168.049 37.371,168.241 36.758,167.486L32.622,162.396C32.009,161.643 32.442,160.508 33.402,160.354L39.878,159.317Z" fill="url(#pf_0_i_1_5346;1962_9719;1618_24488;1617_11667)"/>
<path d="M152.883,145.382C152.643,144.439 153.512,143.592 154.447,143.854L160.762,145.629C161.696,145.892 161.997,147.068 161.301,147.747L156.608,152.328C155.912,153.007 154.744,152.678 154.503,151.737L152.883,145.382Z" fill="url(#pf_0_i_1_5346;1962_9719;1618_24488;1617_11668)"/>
<g filter="url(#filterI1_5346;1962_9719;1618_24488;1617_11669)">
<path d="M144.222,163.106C144.222,167.577 123.012,171.201 96.85,171.201C70.688,171.201 49.479,167.577 49.479,163.106C49.479,158.635 70.688,155.011 96.85,155.011C123.012,155.011 144.222,158.635 144.222,163.106Z" fill="url(#pf_0_i_1_5346;1962_9719;1618_24488;1617_11670)"/>
</g>
<g filter="url(#filterI1_5346;1962_9719;1618_24488;1617_11671)">
<path d="M97.772,46.892L66.918,52.332C64.439,52.769 62.784,55.133 63.221,57.612L70.997,101.712C71.434,104.191 73.798,105.846 76.277,105.409L107.131,99.969C109.61,99.532 111.265,97.168 110.828,94.689L103.052,50.589C102.614,48.11 100.25,46.455 97.772,46.892Z" fill="url(#pf_0_i_1_5346;1962_9719;1618_24488;1617_11672)"/>
</g>
<path d="M98.218,69.562L74.25,73.788C73.443,73.93 72.904,74.7 73.047,75.507L73.048,75.512C73.19,76.319 73.96,76.858 74.767,76.716L98.735,72.489C99.542,72.347 100.081,71.577 99.939,70.77L99.938,70.766C99.795,69.958 99.026,69.42 98.218,69.562Z" fill="url(#pf_0_i_1_5346;1962_9719;1618_24488;1617_11673)"/>
<path d="M101.864,90.158L78.102,94.348C77.302,94.489 76.765,95.237 76.903,96.019L76.904,96.024C77.042,96.806 77.802,97.325 78.602,97.184L102.364,92.994C103.165,92.853 103.701,92.105 103.564,91.323L103.563,91.318C103.425,90.536 102.664,90.016 101.864,90.158Z" fill="url(#pf_0_i_1_5346;1962_9719;1618_24488;1617_11674)"/>
<path d="M99.965,79.382L76.202,83.571C75.402,83.713 74.865,84.46 75.003,85.242L75.004,85.247C75.142,86.029 75.902,86.549 76.702,86.408L100.465,82.218C101.265,82.076 101.802,81.328 101.664,80.546L101.663,80.542C101.525,79.76 100.765,79.24 99.965,79.382Z" fill="url(#pf_0_i_1_5346;1962_9719;1618_24488;1617_11675)"/>
<path d="M80.325,56.991L73.321,58.226C71.769,58.499 70.733,59.979 71.007,61.53L71.349,63.474C71.623,65.026 73.102,66.062 74.654,65.788L81.658,64.553C83.209,64.279 84.246,62.8 83.972,61.248L83.629,59.305C83.356,57.753 81.876,56.717 80.325,56.991Z" fill="#A259FF"/>
<g filter="url(#filterI1_5346;1962_9719;1618_24488;1617_11677)">
<path d="M134.542,59.053L93.72,59.053C91.818,59.053 90.276,60.595 90.276,62.497L90.276,81.685C90.276,83.587 91.818,85.129 93.72,85.129L134.542,85.129C136.444,85.129 137.986,83.587 137.986,81.685L137.986,62.497C137.986,60.595 136.444,59.053 134.542,59.053Z" fill="url(#pf_0_i_1_5346;1962_9719;1618_24488;1617_11678)"/>
</g>
<path d="M100.352,76.048C102.538,76.048 104.312,74.275 104.312,72.088C104.312,69.901 102.538,68.128 100.352,68.128C98.165,68.128 96.392,69.901 96.392,72.088C96.392,74.275 98.165,76.048 100.352,76.048Z" fill="#FFFFFF"/>
<path d="M114.503,76.048C116.69,76.048 118.462,74.275 118.462,72.088C118.462,69.901 116.69,68.128 114.503,68.128C112.316,68.128 110.543,69.901 110.543,72.088C110.543,74.275 112.316,76.048 114.503,76.048Z" fill="#FFFFFF"/>
<path d="M128.654,76.048C130.841,76.048 132.613,74.275 132.613,72.088C132.613,69.901 130.841,68.128 128.654,68.128C126.467,68.128 124.694,69.901 124.694,72.088C124.694,74.275 126.467,76.048 128.654,76.048Z" fill="#FFFFFF"/>
<path d="M92.911,127.996C93.253,126.054 95.104,124.759 97.045,125.101L117.436,128.696C120.222,129.188 122.74,130.481 124.525,132.351C126.309,134.219 127.518,136.875 127,139.815C126.481,142.756 124.436,144.838 122.122,145.985C119.805,147.132 116.996,147.488 114.209,146.997L65.758,138.454C63.817,138.112 62.521,136.26 62.863,134.319C63.206,132.378 65.057,131.083 66.998,131.425L115.449,139.968C116.894,140.222 118.138,139.993 118.955,139.589C119.772,139.184 119.94,138.751 119.971,138.576C120.001,138.402 119.992,137.939 119.363,137.28C118.734,136.621 117.643,135.98 116.197,135.725L95.722,131.403C93.781,131.061 92.568,129.936 92.911,127.996Z" clip-rule="evenodd" fill-rule="evenodd" fill="url(#pf_0_i_1_5346;1962_9719;1618_24488;1617_11682)"/>
<path d="M132.296,91.664C133.063,90.017 134.841,89.091 136.63,89.406L152.616,92.225C154.798,92.609 156.256,94.691 155.871,96.874C155.486,99.057 153.405,100.514 151.222,100.129L138.271,97.845L130.62,114.268C129.685,116.277 127.297,117.147 125.287,116.211C123.279,115.275 122.408,112.887 123.345,110.878L132.296,91.664Z" clip-rule="evenodd" fill-rule="evenodd" fill="url(#pf_0_i_1_5346;1962_9719;1618_24488;1617_11683)"/>
<path d="M75.319,152.671C80.047,153.505 84.556,150.347 85.391,145.618C86.224,140.889 83.067,136.381 78.338,135.547C73.609,134.713 69.1,137.871 68.266,142.599C67.433,147.328 70.59,151.837 75.319,152.671Z" fill="url(#pf_0_i_1_5346;1962_9719;1618_24488;1617_11684)"/>
<path d="M128.609,98.92L69.606,88.516C65.183,87.737 61.255,90.912 61.563,95.013L62.3,118.944C62.523,121.906 64.941,124.406 68.135,124.969L119.567,137.508L133.957,107.789C137.273,101.77 133.042,99.702 128.609,98.92Z" fill="url(#pf_0_i_1_5346;1962_9719;1618_24488;1617_11685)"/>
<path d="M75.831,148.381C78.207,148.8 80.472,147.214 80.891,144.839C81.31,142.463 79.724,140.197 77.348,139.778C74.972,139.36 72.707,140.946 72.288,143.322C71.869,145.697 73.455,147.963 75.831,148.381Z" fill="url(#pf_0_i_1_5346;1962_9719;1618_24488;1617_11686)"/>
<defs>
<linearGradient id="pf_0_i_1_5346;1962_9719;1618_24488;1617_11659" x1="39.916" y1="15.667" x2="167.118" y2="42.146" gradientUnits="userSpaceOnUse">
<stop stop-color="#A259FF"/>
<stop offset="1" stop-color="#3B3B3B"/>
</linearGradient>
<filter id="filterI1_5346;1962_9719;1618_24488;1617_11660" x="-4.724609" y="-5.724609" width="163.797104" height="163.797104" filterUnits="userSpaceOnUse" color-interpolation-filters="sRGB">
<feFlood flood-opacity="0" result="BackgroundImageFix"/>
<feBlend mode="normal" in="SourceGraphic" in2="BackgroundImageFix" result="shape"/>
<feGaussianBlur stdDeviation="27" result="0foregroundblur"/>
</filter>
<linearGradient id="pf_0_i_1_5346;1962_9719;1618_24488;1617_11661" x1="128.986" y1="149.241" x2="91.772" y2="144.999" gradientUnits="userSpaceOnUse">
<stop stop-color="#A259FF" stop-opacity="0"/>
<stop offset="1" stop-color="#FF6250"/>
</linearGradient>
<linearGradient id="pf_0_i_1_5346;1962_9719;1618_24488;1617_11666" x1="167.165" y1="57.792" x2="177.838" y2="66.176" gradientUnits="userSpaceOnUse">
<stop stop-color="#A259FF"/>
<stop offset="1" stop-color="#377DF7"/>
</linearGradient>
<linearGradient id="pf_0_i_1_5346;1962_9719;1618_24488;1617_11667" x1="40.867" y1="162.425" x2="40.51" y2="173.045" gradientUnits="userSpaceOnUse">
<stop stop-color="#A259FF"/>
<stop offset="1" stop-color="#377DF7"/>
</linearGradient>
<linearGradient id="pf_0_i_1_5346;1962_9719;1618_24488;1617_11668" x1="155.888" y1="144.114" x2="166.496" y2="143.505" gradientUnits="userSpaceOnUse">
<stop stop-color="#A259FF"/>
<stop offset="1" stop-color="#377DF7"/>
</linearGradient>
<filter id="filterI1_5346;1962_9719;1618_24488;1617_11669" x="28.791359" y="134.323341" width="88.74625" height="49.469727" filterUnits="userSpaceOnUse" color-interpolation-filters="sRGB">
<feFlood flood-opacity="0" result="BackgroundImageFix"/>
<feBlend mode="normal" in="SourceGraphic" in2="BackgroundImageFix" result="shape"/>
<feGaussianBlur stdDeviation="10.3437" result="0foregroundblur"/>
</filter>
<radialGradient id="pf_0_i_1_5346;1962_9719;1618_24488;1617_11670" cx="0" cy="0" r="1" gradientUnits="userSpaceOnUse" gradientTransform="matrix(0 4.047535 -23.685688 0 48.425 81.553)">
<stop stop-color="#2B2B2B"/>
<stop offset="1" stop-color="#2B2B2B" stop-opacity="0"/>
</radialGradient>
<filter id="filterI1_5346;1962_9719;1618_24488;1617_11671" x="63.151123" y="46.821777" width="26.257824" height="34.892513" filterUnits="userSpaceOnUse" color-interpolation-filters="sRGB">
<feFlood flood-opacity="0" result="BackgroundImageFix"/>
<feBlend mode="normal" in="SourceGraphic" in2="BackgroundImageFix" result="shape"/>
<feColorMatrix in="SourceAlpha" type="matrix" values="0 0 0 0 0 0 0 0 0 0 0 0 0 0 0 0 0 0 127 0" result="hardAlpha"/>
<feMorphology radius="0" operator="erode" in="SourceAlpha" result="0innershadow"/>
<feOffset dx="2.38455" dy="5.56394"/>
<feGaussianBlur stdDeviation="5.96137"/>
<feComposite in2="hardAlpha" operator="arithmetic" k2="-1" k3="1"/>
<feColorMatrix type="matrix" values="0 0 0 0 0.105882 0 0 0 0 0.466667 0 0 0 0 0.545098 0 0 0 0.15 0"/>
<feBlend mode="normal" in2="shape" result="0innershadow"/>
</filter>
<linearGradient id="pf_0_i_1_5346;1962_9719;1618_24488;1617_11672" x1="68.878" y1="51.986" x2="109.006" y2="50.75" gradientUnits="userSpaceOnUse">
<stop stop-color="#A259FF"/>
<stop offset="1" stop-color="#3B3B3B"/>
</linearGradient>
<linearGradient id="pf_0_i_1_5346;1962_9719;1618_24488;1617_11673" x1="94.617" y1="72.362" x2="91.983" y2="64.554" gradientUnits="userSpaceOnUse">
<stop stop-color="#A259FF"/>
<stop offset="0.667" stop-color="#FFFFFF"/>
</linearGradient>
<linearGradient id="pf_0_i_1_5346;1962_9719;1618_24488;1617_11674" x1="98.285" y1="92.886" x2="95.758" y2="85.309" gradientUnits="userSpaceOnUse">
<stop stop-color="#A259FF"/>
<stop offset="0.667" stop-color="#FFFFFF"/>
</linearGradient>
<linearGradient id="pf_0_i_1_5346;1962_9719;1618_24488;1617_11675" x1="96.385" y1="82.11" x2="93.857" y2="74.533" gradientUnits="userSpaceOnUse">
<stop stop-color="#A259FF"/>
<stop offset="0.667" stop-color="#FFFFFF"/>
</linearGradient>
<filter id="filterI1_5346;1962_9719;1618_24488;1617_11677" x="90.276123" y="59.052979" width="29.480922" height="16.788604" filterUnits="userSpaceOnUse" color-interpolation-filters="sRGB">
<feFlood flood-opacity="0" result="BackgroundImageFix"/>
<feBlend mode="normal" in="SourceGraphic" in2="BackgroundImageFix" result="shape"/>
<feColorMatrix in="SourceAlpha" type="matrix" values="0 0 0 0 0 0 0 0 0 0 0 0 0 0 0 0 0 0 127 0" result="hardAlpha"/>
<feMorphology radius="0" operator="erode" in="SourceAlpha" result="0innershadow"/>
<feOffset dx="5.62585" dy="3.75056"/>
<feGaussianBlur stdDeviation="6.09467"/>
<feComposite in2="hardAlpha" operator="arithmetic" k2="-1" k3="1"/>
<feColorMatrix type="matrix" values="0 0 0 0 0.105882 0 0 0 0 0.466667 0 0 0 0 0.545098 0 0 0 0.09 0"/>
<feBlend mode="normal" in2="shape" result="0innershadow"/>
</filter>
<linearGradient id="pf_0_i_1_5346;1962_9719;1618_24488;1617_11678" x1="90.276" y1="90.987" x2="119.635" y2="46.925" gradientUnits="userSpaceOnUse">
<stop stop-color="#A259FF"/>
<stop offset="1" stop-color="#FF6250"/>
</linearGradient>
<linearGradient id="pf_0_i_1_5346;1962_9719;1618_24488;1617_11682" x1="113.54" y1="141.541" x2="103.475" y2="94.301" gradientUnits="userSpaceOnUse">
<stop stop-color="#A259FF"/>
<stop offset="0.667" stop-color="#FFFFFF"/>
</linearGradient>
<linearGradient id="pf_0_i_1_5346;1962_9719;1618_24488;1617_11683" x1="147.087" y1="97.682" x2="170.319" y2="124.723" gradientUnits="userSpaceOnUse">
<stop stop-color="#A259FF"/>
<stop offset="1" stop-color="#377DF7"/>
</linearGradient>
<linearGradient id="pf_0_i_1_5346;1962_9719;1618_24488;1617_11684" x1="81.275" y1="148.726" x2="61.416" y2="128.436" gradientUnits="userSpaceOnUse">
<stop stop-color="#A259FF"/>
<stop offset="0.667" stop-color="#FFFFFF"/>
</linearGradient>
<linearGradient id="pf_0_i_1_5346;1962_9719;1618_24488;1617_11685" x1="116.178" y1="125.543" x2="76.26" y2="45.962" gradientUnits="userSpaceOnUse">
<stop stop-color="#A259FF"/>
<stop offset="0.667" stop-color="#FFFFFF"/>
</linearGradient>
<linearGradient id="pf_0_i_1_5346;1962_9719;1618_24488;1617_11686" x1="71.651" y1="145.426" x2="84.045" y2="147.814" gradientUnits="userSpaceOnUse">
<stop stop-color="#FFFFFF"/>
<stop offset="1" stop-color="#BCF3FF"/>
</linearGradient>
</defs>
</svg>
