<svg width="200" height="200" viewBox="0 0 200 200" fill="none" xmlns="http://www.w3.org/2000/svg" xmlns:xlink="http://www.w3.org/1999/xlink">
<circle cx="100" cy="100" r="83.333" fill="url(#pf_0_i_1_5346;1962_9720;1618_24488;1617_11659)"/>
<g filter="url(#filterI1_5346;1962_9720;1618_24488;1617_11660)">
<circle cx="105.072" cy="105.072" r="55.797" fill="url(#pf_0_i_1_5346;1962_9720;1618_24488;1617_11661)"/>
</g>
<path d="M44.997,65.638C46.391,65.638 47.522,64.508 47.522,63.113C47.522,61.719 46.391,60.589 44.997,60.589C43.603,60.589 42.473,61.719 42.473,63.113C42.473,64.508 43.603,65.638 44.997,65.638ZM44.997,67.531C47.437,67.531 49.415,65.553 49.415,63.113C49.415,60.674 47.437,58.696 44.997,58.696C42.557,58.696 40.58,60.674 40.58,63.113C40.58,65.553 42.557,67.531 44.997,67.531Z" clip-rule="evenodd" fill-rule="evenodd" fill="#FFFFFF"/>
<path d="M37.026,143.899C38.421,143.899 39.551,142.768 39.551,141.374C39.551,139.98 38.421,138.85 37.026,138.85C35.632,138.85 34.502,139.98 34.502,141.374C34.502,142.768 35.632,143.899 37.026,143.899ZM37.026,145.792C39.466,145.792 41.444,143.814 41.444,141.374C41.444,138.934 39.466,136.957 37.026,136.957C34.587,136.957 32.609,138.934 32.609,141.374C32.609,143.814 34.587,145.792 37.026,145.792Z" clip-rule="evenodd" fill-rule="evenodd" fill="#FFFFFF"/>
<path d="M154.417,37.377C155.812,37.377 156.942,36.246 156.942,34.852C156.942,33.458 155.812,32.328 154.417,32.328C153.023,32.328 151.893,33.458 151.893,34.852C151.893,36.246 153.023,37.377 154.417,37.377ZM154.417,39.27C156.857,39.27 158.836,37.292 158.836,34.852C158.836,32.412 156.857,30.435 154.417,30.435C151.978,30.435 150,32.412 150,34.852C150,37.292 151.978,39.27 154.417,39.27Z" clip-rule="evenodd" fill-rule="evenodd" fill="#FFFFFF"/>
<path d="M47.385,30.572C47.57,29.802 48.664,29.802 48.85,30.572L49.475,33.16C49.541,33.435 49.756,33.65 50.031,33.716L52.62,34.341C53.389,34.527 53.389,35.621 52.62,35.807L50.031,36.432C49.756,36.498 49.541,36.712 49.475,36.987L48.85,39.576C48.664,40.345 47.57,40.345 47.385,39.576L46.76,36.987C46.693,36.712 46.479,36.498 46.204,36.432L43.615,35.807C42.846,35.621 42.846,34.527 43.615,34.341L46.204,33.716C46.479,33.65 46.693,33.435 46.76,33.16L47.385,30.572Z" fill="#FFFFFF"/>
<path d="M163.981,56.95C164.184,56.107 165.383,56.107 165.587,56.95L166.273,59.788C166.345,60.089 166.58,60.324 166.881,60.397L169.719,61.082C170.562,61.286 170.562,62.485 169.719,62.689L166.881,63.374C166.58,63.446 166.345,63.682 166.273,63.983L165.587,66.821C165.383,67.664 164.184,67.664 163.981,66.821L163.296,63.983C163.223,63.682 162.988,63.446 162.686,63.374L159.849,62.689C159.006,62.485 159.006,61.286 159.849,61.082L162.686,60.397C162.988,60.324 163.223,60.089 163.296,59.788L163.981,56.95Z" fill="url(#pf_0_i_1_5346;1962_9720;1618_24488;1617_11666)"/>
<path d="M39.878,160.317C40.837,160.164 41.603,161.106 41.256,162.014L38.916,168.141C38.57,169.049 37.371,169.241 36.758,168.486L32.622,163.396C32.009,162.643 32.442,161.508 33.402,161.354L39.878,160.317Z" fill="url(#pf_0_i_1_5346;1962_9720;1618_24488;1617_11667)"/>
<path d="M152.883,146.382C152.643,145.439 153.512,144.592 154.447,144.854L160.762,146.629C161.696,146.892 161.997,148.068 161.301,148.747L156.608,153.328C155.912,154.007 154.744,153.678 154.503,152.737L152.883,146.382Z" fill="url(#pf_0_i_1_5346;1962_9720;1618_24488;1617_11668)"/>
<g filter="url(#filterI1_5346;1962_9720;1618_24488;1617_11669)">
<path d="M144.222,164.106C144.222,168.577 123.012,172.201 96.85,172.201C70.688,172.201 49.479,168.577 49.479,164.106C49.479,159.635 70.688,156.011 96.85,156.011C123.012,156.011 144.222,159.635 144.222,164.106Z" fill="url(#pf_0_i_1_5346;1962_9720;1618_24488;1617_11670)"/>
</g>
<g filter="url(#filterI1_5346;1962_9720;1618_24488;1617_11671)">
<path d="M97.772,47.892L66.918,53.332C64.439,53.769 62.784,56.133 63.221,58.612L70.997,102.712C71.434,105.191 73.798,106.846 76.277,106.409L107.131,100.969C109.61,100.532 111.265,98.168 110.828,95.689L103.052,51.589C102.614,49.11 100.25,47.455 97.772,47.892Z" fill="url(#pf_0_i_1_5346;1962_9720;1618_24488;1617_11672)"/>
</g>
<path d="M98.218,70.562L74.25,74.788C73.443,74.93 72.904,75.7 73.047,76.507L73.048,76.512C73.19,77.319 73.96,77.858 74.767,77.716L98.735,73.489C99.542,73.347 100.081,72.577 99.939,71.77L99.938,71.766C99.795,70.958 99.026,70.42 98.218,70.562Z" fill="url(#pf_0_i_1_5346;1962_9720;1618_24488;1617_11673)"/>
<path d="M101.864,91.157L78.102,95.347C77.302,95.489 76.765,96.236 76.903,97.018L76.904,97.023C77.042,97.805 77.802,98.325 78.602,98.184L102.364,93.994C103.165,93.852 103.701,93.105 103.564,92.323L103.563,92.318C103.425,91.536 102.664,91.016 101.864,91.157Z" fill="url(#pf_0_i_1_5346;1962_9720;1618_24488;1617_11674)"/>
<path d="M99.965,80.382L76.202,84.571C75.402,84.713 74.865,85.46 75.003,86.242L75.004,86.247C75.142,87.029 75.902,87.549 76.702,87.408L100.465,83.218C101.265,83.076 101.802,82.328 101.664,81.546L101.663,81.542C101.525,80.76 100.765,80.24 99.965,80.382Z" fill="url(#pf_0_i_1_5346;1962_9720;1618_24488;1617_11675)"/>
<path d="M80.325,57.991L73.321,59.226C71.769,59.499 70.733,60.979 71.007,62.53L71.349,64.474C71.623,66.025 73.102,67.061 74.654,66.788L81.658,65.553C83.209,65.279 84.246,63.8 83.972,62.248L83.629,60.304C83.356,58.753 81.876,57.717 80.325,57.991Z" fill="#A259FF"/>
<g filter="url(#filterI1_5346;1962_9720;1618_24488;1617_11677)">
<path d="M134.542,60.053L93.72,60.053C91.818,60.053 90.276,61.595 90.276,63.497L90.276,82.685C90.276,84.587 91.818,86.129 93.72,86.129L134.542,86.129C136.444,86.129 137.986,84.587 137.986,82.685L137.986,63.497C137.986,61.595 136.444,60.053 134.542,60.053Z" fill="url(#pf_0_i_1_5346;1962_9720;1618_24488;1617_11678)"/>
</g>
<path d="M100.352,77.048C102.538,77.048 104.312,75.275 104.312,73.088C104.312,70.901 102.538,69.128 100.352,69.128C98.165,69.128 96.392,70.901 96.392,73.088C96.392,75.275 98.165,77.048 100.352,77.048Z" fill="#FFFFFF"/>
<path d="M114.503,77.048C116.69,77.048 118.462,75.275 118.462,73.088C118.462,70.901 116.69,69.128 114.503,69.128C112.316,69.128 110.543,70.901 110.543,73.088C110.543,75.275 112.316,77.048 114.503,77.048Z" fill="#FFFFFF"/>
<path d="M128.654,77.048C130.841,77.048 132.613,75.275 132.613,73.088C132.613,70.901 130.841,69.128 128.654,69.128C126.467,69.128 124.694,70.901 124.694,73.088C124.694,75.275 126.467,77.048 128.654,77.048Z" fill="#FFFFFF"/>
<path d="M92.911,128.996C93.253,127.054 95.104,125.759 97.045,126.101L117.436,129.696C120.222,130.188 122.74,131.481 124.525,133.351C126.309,135.219 127.518,137.875 127,140.815C126.481,143.756 124.436,145.838 122.122,146.985C119.805,148.132 116.996,148.488 114.209,147.997L65.758,139.454C63.817,139.112 62.521,137.26 62.863,135.319C63.206,133.378 65.057,132.083 66.998,132.425L115.449,140.968C116.894,141.222 118.138,140.993 118.955,140.589C119.772,140.184 119.94,139.751 119.971,139.576C120.001,139.402 119.992,138.939 119.363,138.28C118.734,137.621 117.643,136.98 116.197,136.725L95.722,132.403C93.781,132.061 92.568,130.936 92.911,128.996Z" clip-rule="evenodd" fill-rule="evenodd" fill="url(#pf_0_i_1_5346;1962_9720;1618_24488;1617_11682)"/>
<path d="M132.296,92.664C133.063,91.017 134.841,90.091 136.63,90.406L152.616,93.225C154.798,93.609 156.256,95.691 155.871,97.874C155.486,100.057 153.405,101.514 151.222,101.129L138.271,98.845L130.62,115.268C129.685,117.277 127.297,118.147 125.287,117.211C123.279,116.275 122.408,113.887 123.345,111.878L132.296,92.664Z" clip-rule="evenodd" fill-rule="evenodd" fill="url(#pf_0_i_1_5346;1962_9720;1618_24488;1617_11683)"/>
<path d="M75.319,153.671C80.047,154.505 84.556,151.347 85.391,146.618C86.224,141.889 83.067,137.381 78.338,136.547C73.609,135.713 69.1,138.871 68.266,143.599C67.433,148.328 70.59,152.837 75.319,153.671Z" fill="url(#pf_0_i_1_5346;1962_9720;1618_24488;1617_11684)"/>
<path d="M128.609,99.92L69.606,89.516C65.183,88.737 61.255,91.912 61.563,96.013L62.3,119.944C62.523,122.906 64.941,125.406 68.135,125.969L119.567,138.508L133.957,108.789C137.273,102.77 133.042,100.702 128.609,99.92Z" fill="url(#pf_0_i_1_5346;1962_9720;1618_24488;1617_11685)"/>
<path d="M75.831,149.381C78.207,149.8 80.472,148.214 80.891,145.839C81.31,143.463 79.724,141.197 77.348,140.778C74.972,140.36 72.707,141.946 72.288,144.322C71.869,146.697 73.455,148.963 75.831,149.381Z" fill="url(#pf_0_i_1_5346;1962_9720;1618_24488;1617_11686)"/>
<defs>
<linearGradient id="pf_0_i_1_5346;1962_9720;1618_24488;1617_11659" x1="39.916" y1="16.667" x2="167.118" y2="43.145" gradientUnits="userSpaceOnUse">
<stop stop-color="#A259FF"/>
<stop offset="1" stop-color="#3B3B3B"/>
</linearGradient>
<filter id="filterI1_5346;1962_9720;1618_24488;1617_11660" x="-4.724609" y="-4.724609" width="163.797104" height="163.797104" filterUnits="userSpaceOnUse" color-interpolation-filters="sRGB">
<feFlood flood-opacity="0" result="BackgroundImageFix"/>
<feBlend mode="normal" in="SourceGraphic" in2="BackgroundImageFix" result="shape"/>
<feGaussianBlur stdDeviation="27" result="0foregroundblur"/>
</filter>
<linearGradient id="pf_0_i_1_5346;1962_9720;1618_24488;1617_11661" x1="128.986" y1="150.241" x2="91.772" y2="145.999" gradientUnits="userSpaceOnUse">
<stop stop-color="#A259FF" stop-opacity="0"/>
<stop offset="1" stop-color="#FF6250"/>
</linearGradient>
<linearGradient id="pf_0_i_1_5346;1962_9720;1618_24488;1617_11666" x1="167.165" y1="58.792" x2="177.838" y2="67.176" gradientUnits="userSpaceOnUse">
<stop stop-color="#A259FF"/>
<stop offset="1" stop-color="#377DF7"/>
</linearGradient>
<linearGradient id="pf_0_i_1_5346;1962_9720;1618_24488;1617_11667" x1="40.867" y1="163.425" x2="40.51" y2="174.045" gradientUnits="userSpaceOnUse">
<stop stop-color="#A259FF"/>
<stop offset="1" stop-color="#377DF7"/>
</linearGradient>
<linearGradient id="pf_0_i_1_5346;1962_9720;1618_24488;1617_11668" x1="155.888" y1="145.114" x2="166.496" y2="144.505" gradientUnits="userSpaceOnUse">
<stop stop-color="#A259FF"/>
<stop offset="1" stop-color="#377DF7"/>
</linearGradient>
<filter id="filterI1_5346;1962_9720;1618_24488;1617_11669" x="28.791359" y="135.323341" width="88.74625" height="49.469727" filterUnits="userSpaceOnUse" color-interpolation-filters="sRGB">
<feFlood flood-opacity="0" result="BackgroundImageFix"/>
<feBlend mode="normal" in="SourceGraphic" in2="BackgroundImageFix" result="shape"/>
<feGaussianBlur stdDeviation="10.3437" result="0foregroundblur"/>
</filter>
<radialGradient id="pf_0_i_1_5346;1962_9720;1618_24488;1617_11670" cx="0" cy="0" r="1" gradientUnits="userSpaceOnUse" gradientTransform="matrix(0 4.047535 -23.685688 0 48.425 82.053)">
<stop stop-color="#2B2B2B"/>
<stop offset="1" stop-color="#2B2B2B" stop-opacity="0"/>
</radialGradient>
<filter id="filterI1_5346;1962_9720;1618_24488;1617_11671" x="63.151123" y="47.821777" width="26.257824" height="34.892513" filterUnits="userSpaceOnUse" color-interpolation-filters="sRGB">
<feFlood flood-opacity="0" result="BackgroundImageFix"/>
<feBlend mode="normal" in="SourceGraphic" in2="BackgroundImageFix" result="shape"/>
<feColorMatrix in="SourceAlpha" type="matrix" values="0 0 0 0 0 0 0 0 0 0 0 0 0 0 0 0 0 0 127 0" result="hardAlpha"/>
<feMorphology radius="0" operator="erode" in="SourceAlpha" result="0innershadow"/>
<feOffset dx="2.38455" dy="5.56394"/>
<feGaussianBlur stdDeviation="5.96137"/>
<feComposite in2="hardAlpha" operator="arithmetic" k2="-1" k3="1"/>
<feColorMatrix type="matrix" values="0 0 0 0 0.105882 0 0 0 0 0.466667 0 0 0 0 0.545098 0 0 0 0.15 0"/>
<feBlend mode="normal" in2="shape" result="0innershadow"/>
</filter>
<linearGradient id="pf_0_i_1_5346;1962_9720;1618_24488;1617_11672" x1="68.878" y1="52.986" x2="109.006" y2="51.75" gradientUnits="userSpaceOnUse">
<stop stop-color="#A259FF"/>
<stop offset="1" stop-color="#3B3B3B"/>
</linearGradient>
<linearGradient id="pf_0_i_1_5346;1962_9720;1618_24488;1617_11673" x1="94.617" y1="73.362" x2="91.983" y2="65.554" gradientUnits="userSpaceOnUse">
<stop stop-color="#A259FF"/>
<stop offset="0.667" stop-color="#FFFFFF"/>
</linearGradient>
<linearGradient id="pf_0_i_1_5346;1962_9720;1618_24488;1617_11674" x1="98.285" y1="93.886" x2="95.758" y2="86.309" gradientUnits="userSpaceOnUse">
<stop stop-color="#A259FF"/>
<stop offset="0.667" stop-color="#FFFFFF"/>
</linearGradient>
<linearGradient id="pf_0_i_1_5346;1962_9720;1618_24488;1617_11675" x1="96.385" y1="83.11" x2="93.857" y2="75.533" gradientUnits="userSpaceOnUse">
<stop stop-color="#A259FF"/>
<stop offset="0.667" stop-color="#FFFFFF"/>
</linearGradient>
<filter id="filterI1_5346;1962_9720;1618_24488;1617_11677" x="90.276123" y="60.052734" width="29.480922" height="16.788604" filterUnits="userSpaceOnUse" color-interpolation-filters="sRGB">
<feFlood flood-opacity="0" result="BackgroundImageFix"/>
<feBlend mode="normal" in="SourceGraphic" in2="BackgroundImageFix" result="shape"/>
<feColorMatrix in="SourceAlpha" type="matrix" values="0 0 0 0 0 0 0 0 0 0 0 0 0 0 0 0 0 0 127 0" result="hardAlpha"/>
<feMorphology radius="0" operator="erode" in="SourceAlpha" result="0innershadow"/>
<feOffset dx="5.62585" dy="3.75056"/>
<feGaussianBlur stdDeviation="6.09467"/>
<feComposite in2="hardAlpha" operator="arithmetic" k2="-1" k3="1"/>
<feColorMatrix type="matrix" values="0 0 0 0 0.105882 0 0 0 0 0.466667 0 0 0 0 0.545098 0 0 0 0.09 0"/>
<feBlend mode="normal" in2="shape" result="0innershadow"/>
</filter>
<linearGradient id="pf_0_i_1_5346;1962_9720;1618_24488;1617_11678" x1="90.276" y1="91.987" x2="119.635" y2="47.924" gradientUnits="userSpaceOnUse">
<stop stop-color="#A259FF"/>
<stop offset="1" stop-color="#FF6250"/>
</linearGradient>
<linearGradient id="pf_0_i_1_5346;1962_9720;1618_24488;1617_11682" x1="113.54" y1="142.541" x2="103.475" y2="95.301" gradientUnits="userSpaceOnUse">
<stop stop-color="#A259FF"/>
<stop offset="0.667" stop-color="#FFFFFF"/>
</linearGradient>
<linearGradient id="pf_0_i_1_5346;1962_9720;1618_24488;1617_11683" x1="147.087" y1="98.682" x2="170.319" y2="125.723" gradientUnits="userSpaceOnUse">
<stop stop-color="#A259FF"/>
<stop offset="1" stop-color="#377DF7"/>
</linearGradient>
<linearGradient id="pf_0_i_1_5346;1962_9720;1618_24488;1617_11684" x1="81.275" y1="149.726" x2="61.416" y2="129.436" gradientUnits="userSpaceOnUse">
<stop stop-color="#A259FF"/>
<stop offset="0.667" stop-color="#FFFFFF"/>
</linearGradient>
<linearGradient id="pf_0_i_1_5346;1962_9720;1618_24488;1617_11685" x1="116.178" y1="126.543" x2="76.26" y2="46.962" gradientUnits="userSpaceOnUse">
<stop stop-color="#A259FF"/>
<stop offset="0.667" stop-color="#FFFFFF"/>
</linearGradient>
<linearGradient id="pf_0_i_1_5346;1962_9720;1618_24488;1617_11686" x1="71.651" y1="146.426" x2="84.045" y2="148.814" gradientUnits="userSpaceOnUse">
<stop stop-color="#FFFFFF"/>
<stop offset="1" stop-color="#BCF3FF"/>
</linearGradient>
</defs>
</svg>
