<svg width="320" height="320" viewBox="0 0 320 320" fill="none" xmlns="http://www.w3.org/2000/svg" xmlns:xlink="http://www.w3.org/1999/xlink">
<circle cx="160" cy="160" r="133.333" fill="url(#pf_0_i_1_5335;1962_7059;1618_16212;1617_11659)"/>
<g filter="url(#filterI1_5335;1962_7059;1618_16212;1617_11660)">
<circle cx="168.116" cy="168.116" r="89.275" fill="url(#pf_0_i_1_5335;1962_7059;1618_16212;1617_11661)"/>
</g>
<path d="M71.996,105.02C74.227,105.02 76.035,103.212 76.035,100.981C76.035,98.751 74.227,96.942 71.996,96.942C69.765,96.942 67.957,98.751 67.957,100.981C67.957,103.212 69.765,105.02 71.996,105.02ZM71.996,108.05C75.9,108.05 79.064,104.885 79.064,100.981C79.064,97.078 75.9,93.913 71.996,93.913C68.092,93.913 64.927,97.078 64.927,100.981C64.927,104.885 68.092,108.05 71.996,108.05Z" clip-rule="evenodd" fill-rule="evenodd" fill="#FFFFFF"/>
<path d="M59.242,230.238C61.473,230.238 63.281,228.429 63.281,226.198C63.281,223.968 61.473,222.16 59.242,222.16C57.012,222.16 55.203,223.968 55.203,226.198C55.203,228.429 57.012,230.238 59.242,230.238ZM59.242,233.267C63.146,233.267 66.311,230.102 66.311,226.198C66.311,222.294 63.146,219.13 59.242,219.13C55.339,219.13 52.174,222.294 52.174,226.198C52.174,230.102 55.339,233.267 59.242,233.267Z" clip-rule="evenodd" fill-rule="evenodd" fill="#FFFFFF"/>
<path d="M247.068,59.803C249.299,59.803 251.107,57.995 251.107,55.764C251.107,53.533 249.299,51.725 247.068,51.725C244.837,51.725 243.03,53.533 243.03,55.764C243.03,57.995 244.837,59.803 247.068,59.803ZM247.068,62.832C250.972,62.832 254.137,59.668 254.137,55.764C254.137,51.86 250.972,48.696 247.068,48.696C243.164,48.696 240,51.86 240,55.764C240,59.668 243.164,62.832 247.068,62.832Z" clip-rule="evenodd" fill-rule="evenodd" fill="#FFFFFF"/>
<path d="M75.815,48.914C76.112,47.684 77.863,47.684 78.16,48.914L79.16,53.057C79.266,53.496 79.61,53.84 80.049,53.946L84.192,54.946C85.422,55.243 85.422,56.994 84.192,57.291L80.049,58.29C79.61,58.397 79.266,58.74 79.16,59.18L78.16,63.322C77.863,64.553 76.112,64.553 75.815,63.322L74.816,59.18C74.709,58.74 74.366,58.397 73.926,58.29L69.784,57.291C68.553,56.994 68.553,55.243 69.784,54.946L73.926,53.946C74.366,53.84 74.709,53.496 74.816,53.057L75.815,48.914Z" fill="#FFFFFF"/>
<path d="M262.37,91.12C262.694,89.771 264.613,89.771 264.939,91.12L266.036,95.661C266.152,96.143 266.529,96.519 267.01,96.636L271.55,97.732C272.9,98.057 272.9,99.976 271.55,100.302L267.01,101.398C266.529,101.514 266.152,101.891 266.036,102.373L264.939,106.913C264.613,108.262 262.694,108.262 262.37,106.913L261.273,102.373C261.157,101.891 260.78,101.514 260.298,101.398L255.758,100.302C254.409,99.976 254.409,98.057 255.758,97.732L260.298,96.636C260.78,96.519 261.157,96.143 261.273,95.661L262.37,91.12Z" fill="url(#pf_0_i_1_5335;1962_7059;1618_16212;1617_11666)"/>
<path d="M63.804,256.507C65.339,256.262 66.565,257.769 66.01,259.222L62.266,269.025C61.712,270.477 59.793,270.785 58.812,269.578L52.195,261.434C51.214,260.228 51.907,258.412 53.442,258.167L63.804,256.507Z" fill="url(#pf_0_i_1_5335;1962_7059;1618_16212;1617_11667)"/>
<path d="M244.612,234.211C244.228,232.703 245.619,231.347 247.115,231.767L257.219,234.606C258.714,235.027 259.195,236.91 258.082,237.995L250.573,245.325C249.46,246.411 247.59,245.885 247.205,244.379L244.612,234.211Z" fill="url(#pf_0_i_1_5335;1962_7059;1618_16212;1617_11668)"/>
<g filter="url(#filterI1_5335;1962_7059;1618_16212;1617_11669)">
<path d="M230.755,262.569C230.755,269.723 196.82,275.521 154.96,275.521C113.1,275.521 79.166,269.723 79.166,262.569C79.166,255.416 113.1,249.617 154.96,249.617C196.82,249.617 230.755,255.416 230.755,262.569Z" fill="url(#pf_0_i_1_5335;1962_7059;1618_16212;1617_11670)"/>
</g>
<g filter="url(#filterI1_5335;1962_7059;1618_16212;1617_11671)">
<path d="M156.435,76.627L107.068,85.332C103.102,86.031 100.454,89.813 101.154,93.779L113.595,164.34C114.295,168.306 118.077,170.954 122.043,170.254L171.409,161.55C175.375,160.851 178.023,157.069 177.324,153.103L164.882,82.542C164.182,78.576 160.4,75.928 156.435,76.627Z" fill="url(#pf_0_i_1_5335;1962_7059;1618_16212;1617_11672)"/>
</g>
<path d="M157.149,112.899L118.801,119.661C117.509,119.888 116.647,121.12 116.875,122.411L116.876,122.419C117.104,123.71 118.335,124.572 119.626,124.345L157.976,117.583C159.266,117.355 160.129,116.124 159.902,114.832L159.9,114.825C159.672,113.533 158.441,112.671 157.149,112.899Z" fill="url(#pf_0_i_1_5335;1962_7059;1618_16212;1617_11673)"/>
<path d="M162.983,145.852L124.964,152.556C123.684,152.782 122.825,153.979 123.045,155.23L123.046,155.238C123.267,156.489 124.484,157.32 125.764,157.094L163.783,150.39C165.064,150.164 165.922,148.968 165.702,147.717L165.701,147.709C165.48,146.458 164.263,145.626 162.983,145.852Z" fill="url(#pf_0_i_1_5335;1962_7059;1618_16212;1617_11674)"/>
<path d="M159.943,128.61L121.924,135.314C120.644,135.54 119.784,136.737 120.005,137.988L120.006,137.996C120.227,139.247 121.444,140.078 122.724,139.852L160.743,133.148C162.023,132.922 162.883,131.725 162.662,130.474L162.661,130.467C162.44,129.216 161.223,128.385 159.943,128.61Z" fill="url(#pf_0_i_1_5335;1962_7059;1618_16212;1617_11675)"/>
<path d="M128.519,92.785L117.313,94.761C114.83,95.199 113.173,97.566 113.611,100.049L114.159,103.159C114.597,105.641 116.964,107.298 119.446,106.861L130.653,104.885C133.135,104.447 134.793,102.08 134.355,99.597L133.806,96.487C133.369,94.005 131.002,92.348 128.519,92.785Z" fill="#A259FF"/>
<g filter="url(#filterI1_5335;1962_7059;1618_16212;1617_11677)">
<path d="M215.267,96.085L149.952,96.085C146.909,96.085 144.442,98.552 144.442,101.596L144.442,132.296C144.442,135.339 146.909,137.806 149.952,137.806L215.267,137.806C218.311,137.806 220.778,135.339 220.778,132.296L220.778,101.596C220.778,98.552 218.311,96.085 215.267,96.085Z" fill="url(#pf_0_i_1_5335;1962_7059;1618_16212;1617_11678)"/>
</g>
<path d="M160.562,123.276C164.061,123.276 166.899,120.439 166.899,116.94C166.899,113.441 164.061,110.605 160.562,110.605C157.063,110.605 154.227,113.441 154.227,116.94C154.227,120.439 157.063,123.276 160.562,123.276Z" fill="#FFFFFF"/>
<path d="M183.204,123.276C186.704,123.276 189.539,120.439 189.539,116.94C189.539,113.441 186.704,110.605 183.204,110.605C179.705,110.605 176.868,113.441 176.868,116.94C176.868,120.439 179.705,123.276 183.204,123.276Z" fill="#FFFFFF"/>
<path d="M205.846,123.276C209.345,123.276 212.181,120.439 212.181,116.94C212.181,113.441 209.345,110.605 205.846,110.605C202.347,110.605 199.51,113.441 199.51,116.94C199.51,120.439 202.347,123.276 205.846,123.276Z" fill="#FFFFFF"/>
<path d="M148.658,206.393C149.205,203.287 152.166,201.214 155.272,201.761L187.897,207.514C192.355,208.3 196.384,210.37 199.24,213.361C202.094,216.35 204.028,220.599 203.199,225.304C202.369,230.009 199.098,233.341 195.395,235.176C191.688,237.011 187.193,237.581 182.734,236.795L105.213,223.126C102.107,222.578 100.034,219.616 100.581,216.511C101.129,213.405 104.09,211.332 107.196,211.879L184.718,225.549C187.03,225.956 189.02,225.589 190.327,224.942C191.635,224.294 191.904,223.601 191.953,223.322C192.001,223.043 191.987,222.302 190.981,221.247C189.975,220.194 188.229,219.169 185.914,218.761L153.155,211.845C150.05,211.297 148.109,209.498 148.658,206.393Z" clip-rule="evenodd" fill-rule="evenodd" fill="url(#pf_0_i_1_5335;1962_7059;1618_16212;1617_11682)"/>
<path d="M211.674,148.262C212.901,145.627 215.746,144.145 218.608,144.649L244.185,149.16C247.677,149.775 250.01,153.105 249.394,156.598C248.778,160.091 245.448,162.422 241.956,161.807L221.233,158.152L208.992,184.428C207.495,187.643 203.675,189.034 200.46,187.538C197.246,186.04 195.854,182.219 197.352,179.005L211.674,148.262Z" clip-rule="evenodd" fill-rule="evenodd" fill="url(#pf_0_i_1_5335;1962_7059;1618_16212;1617_11683)"/>
<path d="M120.51,245.873C128.076,247.207 135.29,242.155 136.625,234.589C137.958,227.023 132.907,219.809 125.341,218.475C117.775,217.14 110.56,222.193 109.226,229.758C107.892,237.324 112.944,244.538 120.51,245.873Z" fill="url(#pf_0_i_1_5335;1962_7059;1618_16212;1617_11684)"/>
<path d="M205.774,159.872L111.37,143.226C104.293,141.979 98.008,147.059 98.501,153.62L99.68,191.91C100.038,196.65 103.906,200.649 109.016,201.549L191.307,221.613L214.332,174.062C219.637,164.432 212.867,161.123 205.774,159.872Z" fill="url(#pf_0_i_1_5335;1962_7059;1618_16212;1617_11685)"/>
<path d="M121.33,239.01C125.131,239.68 128.756,237.142 129.426,233.342C130.096,229.541 127.558,225.916 123.757,225.245C119.956,224.575 116.331,227.113 115.661,230.915C114.991,234.716 117.529,238.34 121.33,239.01Z" fill="url(#pf_0_i_1_5335;1962_7059;1618_16212;1617_11686)"/>
<defs>
<linearGradient id="pf_0_i_1_5335;1962_7059;1618_16212;1617_11659" x1="63.865" y1="26.667" x2="267.389" y2="69.033" gradientUnits="userSpaceOnUse">
<stop stop-color="#A259FF"/>
<stop offset="1" stop-color="#3B3B3B"/>
</linearGradient>
<filter id="filterI1_5335;1962_7059;1618_16212;1617_11660" x="24.840576" y="24.840576" width="197.27536" height="197.27536" filterUnits="userSpaceOnUse" color-interpolation-filters="sRGB">
<feFlood flood-opacity="0" result="BackgroundImageFix"/>
<feBlend mode="normal" in="SourceGraphic" in2="BackgroundImageFix" result="shape"/>
<feGaussianBlur stdDeviation="27" result="0foregroundblur"/>
</filter>
<linearGradient id="pf_0_i_1_5335;1962_7059;1618_16212;1617_11661" x1="206.377" y1="240.386" x2="146.835" y2="233.599" gradientUnits="userSpaceOnUse">
<stop stop-color="#A259FF" stop-opacity="0"/>
<stop offset="1" stop-color="#FF6250"/>
</linearGradient>
<linearGradient id="pf_0_i_1_5335;1962_7059;1618_16212;1617_11666" x1="267.463" y1="94.068" x2="284.541" y2="107.482" gradientUnits="userSpaceOnUse">
<stop stop-color="#A259FF"/>
<stop offset="1" stop-color="#377DF7"/>
</linearGradient>
<linearGradient id="pf_0_i_1_5335;1962_7059;1618_16212;1617_11667" x1="65.387" y1="261.479" x2="64.817" y2="278.472" gradientUnits="userSpaceOnUse">
<stop stop-color="#A259FF"/>
<stop offset="1" stop-color="#377DF7"/>
</linearGradient>
<linearGradient id="pf_0_i_1_5335;1962_7059;1618_16212;1617_11668" x1="249.42" y1="232.183" x2="266.394" y2="231.209" gradientUnits="userSpaceOnUse">
<stop stop-color="#A259FF"/>
<stop offset="1" stop-color="#377DF7"/>
</linearGradient>
<filter id="filterI1_5335;1962_7059;1618_16212;1617_11669" x="58.478737" y="228.929909" width="117.169128" height="54.326683" filterUnits="userSpaceOnUse" color-interpolation-filters="sRGB">
<feFlood flood-opacity="0" result="BackgroundImageFix"/>
<feBlend mode="normal" in="SourceGraphic" in2="BackgroundImageFix" result="shape"/>
<feGaussianBlur stdDeviation="10.3437" result="0foregroundblur"/>
</filter>
<radialGradient id="pf_0_i_1_5335;1962_7059;1618_16212;1617_11670" cx="0" cy="0" r="1" gradientUnits="userSpaceOnUse" gradientTransform="matrix(0 6.476057 -37.897105 0 77.48 131.285)">
<stop stop-color="#2B2B2B"/>
<stop offset="1" stop-color="#2B2B2B" stop-opacity="0"/>
</radialGradient>
<filter id="filterI1_5335;1962_7059;1618_16212;1617_11671" x="101.041626" y="76.514954" width="40.581789" height="52.489656" filterUnits="userSpaceOnUse" color-interpolation-filters="sRGB">
<feFlood flood-opacity="0" result="BackgroundImageFix"/>
<feBlend mode="normal" in="SourceGraphic" in2="BackgroundImageFix" result="shape"/>
<feColorMatrix in="SourceAlpha" type="matrix" values="0 0 0 0 0 0 0 0 0 0 0 0 0 0 0 0 0 0 127 0" result="hardAlpha"/>
<feMorphology radius="0" operator="erode" in="SourceAlpha" result="0innershadow"/>
<feOffset dx="2.38455" dy="5.56394"/>
<feGaussianBlur stdDeviation="5.96137"/>
<feComposite in2="hardAlpha" operator="arithmetic" k2="-1" k3="1"/>
<feColorMatrix type="matrix" values="0 0 0 0 0.105882 0 0 0 0 0.466667 0 0 0 0 0.545098 0 0 0 0.15 0"/>
<feBlend mode="normal" in2="shape" result="0innershadow"/>
</filter>
<linearGradient id="pf_0_i_1_5335;1962_7059;1618_16212;1617_11672" x1="110.205" y1="84.778" x2="174.409" y2="82.8" gradientUnits="userSpaceOnUse">
<stop stop-color="#A259FF"/>
<stop offset="1" stop-color="#3B3B3B"/>
</linearGradient>
<linearGradient id="pf_0_i_1_5335;1962_7059;1618_16212;1617_11673" x1="151.387" y1="117.378" x2="147.172" y2="104.886" gradientUnits="userSpaceOnUse">
<stop stop-color="#A259FF"/>
<stop offset="0.667" stop-color="#FFFFFF"/>
</linearGradient>
<linearGradient id="pf_0_i_1_5335;1962_7059;1618_16212;1617_11674" x1="157.257" y1="150.218" x2="153.212" y2="138.095" gradientUnits="userSpaceOnUse">
<stop stop-color="#A259FF"/>
<stop offset="0.667" stop-color="#FFFFFF"/>
</linearGradient>
<linearGradient id="pf_0_i_1_5335;1962_7059;1618_16212;1617_11675" x1="154.216" y1="132.976" x2="150.172" y2="120.853" gradientUnits="userSpaceOnUse">
<stop stop-color="#A259FF"/>
<stop offset="0.667" stop-color="#FFFFFF"/>
</linearGradient>
<filter id="filterI1_5335;1962_7059;1618_16212;1617_11677" x="144.441772" y="96.084686" width="43.793972" height="24.611427" filterUnits="userSpaceOnUse" color-interpolation-filters="sRGB">
<feFlood flood-opacity="0" result="BackgroundImageFix"/>
<feBlend mode="normal" in="SourceGraphic" in2="BackgroundImageFix" result="shape"/>
<feColorMatrix in="SourceAlpha" type="matrix" values="0 0 0 0 0 0 0 0 0 0 0 0 0 0 0 0 0 0 127 0" result="hardAlpha"/>
<feMorphology radius="0" operator="erode" in="SourceAlpha" result="0innershadow"/>
<feOffset dx="5.62585" dy="3.75056"/>
<feGaussianBlur stdDeviation="6.09467"/>
<feComposite in2="hardAlpha" operator="arithmetic" k2="-1" k3="1"/>
<feColorMatrix type="matrix" values="0 0 0 0 0.105882 0 0 0 0 0.466667 0 0 0 0 0.545098 0 0 0 0.09 0"/>
<feBlend mode="normal" in2="shape" result="0innershadow"/>
</filter>
<linearGradient id="pf_0_i_1_5335;1962_7059;1618_16212;1617_11678" x1="144.442" y1="147.179" x2="191.416" y2="76.679" gradientUnits="userSpaceOnUse">
<stop stop-color="#A259FF"/>
<stop offset="1" stop-color="#FF6250"/>
</linearGradient>
<linearGradient id="pf_0_i_1_5335;1962_7059;1618_16212;1617_11682" x1="181.664" y1="228.065" x2="165.56" y2="152.482" gradientUnits="userSpaceOnUse">
<stop stop-color="#A259FF"/>
<stop offset="0.667" stop-color="#FFFFFF"/>
</linearGradient>
<linearGradient id="pf_0_i_1_5335;1962_7059;1618_16212;1617_11683" x1="235.339" y1="157.891" x2="272.511" y2="201.157" gradientUnits="userSpaceOnUse">
<stop stop-color="#A259FF"/>
<stop offset="1" stop-color="#377DF7"/>
</linearGradient>
<linearGradient id="pf_0_i_1_5335;1962_7059;1618_16212;1617_11684" x1="130.04" y1="239.561" x2="98.266" y2="207.097" gradientUnits="userSpaceOnUse">
<stop stop-color="#A259FF"/>
<stop offset="0.667" stop-color="#FFFFFF"/>
</linearGradient>
<linearGradient id="pf_0_i_1_5335;1962_7059;1618_16212;1617_11685" x1="185.884" y1="202.469" x2="122.016" y2="75.14" gradientUnits="userSpaceOnUse">
<stop stop-color="#A259FF"/>
<stop offset="0.667" stop-color="#FFFFFF"/>
</linearGradient>
<linearGradient id="pf_0_i_1_5335;1962_7059;1618_16212;1617_11686" x1="114.641" y1="234.281" x2="134.472" y2="238.102" gradientUnits="userSpaceOnUse">
<stop stop-color="#FFFFFF"/>
<stop offset="1" stop-color="#BCF3FF"/>
</linearGradient>
</defs>
</svg>
