<svg width="500" height="500" viewBox="0 0 500 500" fill="none" xmlns="http://www.w3.org/2000/svg" xmlns:xlink="http://www.w3.org/1999/xlink">
<circle cx="250" cy="250" r="208.333" fill="url(#pf_0_i_1_5324;1326_14644;1618_12759;1617_11659)"/>
<g filter="url(#filterI1_5324;1326_14644;1618_12759;1617_11660)">
<circle cx="262.681" cy="262.681" r="139.493" fill="url(#pf_0_i_1_5324;1326_14644;1618_12759;1617_11661)"/>
</g>
<path d="M112.493,164.094C115.979,164.094 118.804,161.269 118.804,157.783C118.804,154.298 115.979,151.473 112.493,151.473C109.008,151.473 106.183,154.298 106.183,157.783C106.183,161.269 109.008,164.094 112.493,164.094ZM112.493,168.828C118.593,168.828 123.538,163.883 123.538,157.783C123.538,151.684 118.593,146.739 112.493,146.739C106.394,146.739 101.449,151.684 101.449,157.783C101.449,163.883 106.394,168.828 112.493,168.828Z" clip-rule="evenodd" fill-rule="evenodd" fill="#FFFFFF"/>
<path d="M92.566,359.746C96.051,359.746 98.877,356.92 98.877,353.435C98.877,349.949 96.051,347.125 92.566,347.125C89.081,347.125 86.255,349.949 86.255,353.435C86.255,356.92 89.081,359.746 92.566,359.746ZM92.566,364.48C98.666,364.48 103.61,359.534 103.61,353.435C103.61,347.335 98.666,342.391 92.566,342.391C86.466,342.391 81.522,347.335 81.522,353.435C81.522,359.534 86.466,364.48 92.566,364.48Z" clip-rule="evenodd" fill-rule="evenodd" fill="#FFFFFF"/>
<path d="M386.043,93.442C389.529,93.442 392.355,90.617 392.355,87.131C392.355,83.646 389.529,80.82 386.043,80.82C382.558,80.82 379.734,83.646 379.734,87.131C379.734,90.617 382.558,93.442 386.043,93.442ZM386.043,98.176C392.143,98.176 397.089,93.231 397.089,87.131C397.089,81.032 392.143,76.087 386.043,76.087C379.944,76.087 375,81.032 375,87.131C375,93.231 379.944,98.176 386.043,98.176Z" clip-rule="evenodd" fill-rule="evenodd" fill="#FFFFFF"/>
<path d="M118.462,76.429C118.926,74.506 121.661,74.506 122.125,76.429L123.687,82.901C123.853,83.588 124.39,84.125 125.077,84.291L131.549,85.853C133.472,86.317 133.472,89.052 131.549,89.517L125.077,91.079C124.39,91.245 123.853,91.781 123.687,92.468L122.125,98.941C121.661,100.864 118.926,100.864 118.462,98.941L116.899,92.468C116.733,91.781 116.197,91.245 115.51,91.079L109.037,89.517C107.114,89.052 107.114,86.317 109.037,85.853L115.51,84.291C116.197,84.125 116.733,83.588 116.899,82.901L118.462,76.429Z" fill="#FFFFFF"/>
<path d="M409.953,142.376C410.46,140.268 413.458,140.268 413.967,142.376L415.681,149.47C415.862,150.223 416.451,150.811 417.203,150.993L424.297,152.706C426.406,153.215 426.406,156.213 424.297,156.722L417.203,158.434C416.451,158.616 415.862,159.204 415.681,159.957L413.967,167.052C413.458,169.16 410.46,169.16 409.953,167.052L408.239,159.957C408.058,159.204 407.469,158.616 406.716,158.434L399.621,156.722C397.515,156.213 397.515,153.215 399.621,152.706L406.716,150.993C407.469,150.811 408.058,150.223 408.239,149.47L409.953,142.376Z" fill="url(#pf_0_i_1_5324;1326_14644;1618_12759;1617_11666)"/>
<path d="M99.694,400.793C102.093,400.409 104.008,402.764 103.141,405.034L97.291,420.351C96.425,422.621 93.426,423.101 91.894,421.215L81.554,408.49C80.022,406.606 81.105,403.769 83.504,403.385L99.694,400.793Z" fill="url(#pf_0_i_1_5324;1326_14644;1618_12759;1617_11667)"/>
<path d="M382.207,365.954C381.607,363.599 383.779,361.48 386.118,362.135L401.904,366.572C404.241,367.23 404.993,370.172 403.254,371.867L391.52,383.32C389.781,385.018 386.859,384.195 386.257,381.842L382.207,365.954Z" fill="url(#pf_0_i_1_5324;1326_14644;1618_12759;1617_11668)"/>
<g filter="url(#filterI1_5324;1326_14644;1618_12759;1617_11669)">
<path d="M360.555,410.264C360.555,421.442 307.531,430.502 242.125,430.502C176.719,430.502 123.697,421.442 123.697,410.264C123.697,399.087 176.719,390.027 242.125,390.027C307.531,390.027 360.555,399.087 360.555,410.264Z" fill="url(#pf_0_i_1_5324;1326_14644;1618_12759;1617_11670)"/>
</g>
<g filter="url(#filterI1_5324;1326_14644;1618_12759;1617_11671)">
<path d="M244.43,119.73L167.294,133.331C161.098,134.423 156.96,140.333 158.053,146.529L177.493,256.781C178.586,262.979 184.495,267.116 190.692,266.022L267.826,252.422C274.024,251.33 278.161,245.421 277.069,239.223L257.629,128.972C256.535,122.775 250.625,118.637 244.43,119.73Z" fill="url(#pf_0_i_1_5324;1326_14644;1618_12759;1617_11672)"/>
</g>
<path d="M245.545,176.404L185.626,186.97C183.608,187.326 182.261,189.25 182.617,191.268L182.619,191.279C182.975,193.297 184.899,194.644 186.916,194.289L246.837,183.723C248.853,183.367 250.201,181.443 249.846,179.425L249.844,179.414C249.487,177.396 247.564,176.049 245.545,176.404Z" fill="url(#pf_0_i_1_5324;1326_14644;1618_12759;1617_11673)"/>
<path d="M254.661,227.894L195.256,238.369C193.256,238.722 191.913,240.592 192.258,242.546L192.26,242.559C192.605,244.514 194.506,245.813 196.506,245.459L255.911,234.985C257.913,234.631 259.253,232.762 258.909,230.807L258.907,230.794C258.563,228.84 256.661,227.541 254.661,227.894Z" fill="url(#pf_0_i_1_5324;1326_14644;1618_12759;1617_11674)"/>
<path d="M249.912,200.954L190.506,211.428C188.505,211.782 187.163,213.651 187.508,215.606L187.51,215.619C187.855,217.573 189.756,218.872 191.756,218.519L251.162,208.044C253.162,207.691 254.504,205.821 254.16,203.866L254.158,203.854C253.812,201.9 251.912,200.601 249.912,200.954Z" fill="url(#pf_0_i_1_5324;1326_14644;1618_12759;1617_11675)"/>
<path d="M200.812,144.977L183.301,148.064C179.423,148.749 176.833,152.447 177.517,156.326L178.374,161.185C179.057,165.064 182.756,167.654 186.635,166.97L204.145,163.882C208.024,163.199 210.614,159.5 209.929,155.621L209.073,150.762C208.39,146.883 204.69,144.293 200.812,144.977Z" fill="#A259FF"/>
<g filter="url(#filterI1_5324;1326_14644;1618_12759;1617_11677)">
<path d="M336.355,150.132L234.301,150.132C229.545,150.132 225.69,153.988 225.69,158.743L225.69,206.712C225.69,211.468 229.545,215.323 234.301,215.323L336.355,215.323C341.111,215.323 344.966,211.468 344.966,206.712L344.966,158.743C344.966,153.988 341.111,150.132 336.355,150.132Z" fill="url(#pf_0_i_1_5324;1326_14644;1618_12759;1617_11678)"/>
</g>
<path d="M250.879,192.619C256.346,192.619 260.779,188.187 260.779,182.719C260.779,177.252 256.346,172.82 250.879,172.82C245.411,172.82 240.98,177.252 240.98,182.719C240.98,188.187 245.411,192.619 250.879,192.619Z" fill="#FFFFFF"/>
<path d="M286.257,192.619C291.724,192.619 296.155,188.187 296.155,182.719C296.155,177.252 291.724,172.82 286.257,172.82C280.79,172.82 276.357,177.252 276.357,182.719C276.357,188.187 280.79,192.619 286.257,192.619Z" fill="#FFFFFF"/>
<path d="M321.634,192.619C327.102,192.619 331.533,188.187 331.533,182.719C331.533,177.252 327.102,172.82 321.634,172.82C316.167,172.82 311.734,177.252 311.734,182.719C311.734,188.187 316.167,192.619 321.634,192.619Z" fill="#FFFFFF"/>
<path d="M232.278,322.489C233.133,317.636 237.76,314.397 242.613,315.252L293.589,324.241C300.555,325.469 306.85,328.703 311.312,333.377C315.772,338.047 318.794,344.686 317.499,352.038C316.202,359.389 311.091,364.596 305.305,367.462C299.513,370.33 292.49,371.221 285.522,369.993L164.395,348.634C159.543,347.779 156.303,343.15 157.158,338.299C158.014,333.445 162.641,330.206 167.494,331.061L288.622,352.42C292.234,353.056 295.345,352.484 297.386,351.473C299.43,350.46 299.85,349.377 299.926,348.94C300.002,348.505 299.981,347.348 298.408,345.699C296.836,344.052 294.107,342.451 290.491,341.813L239.305,331.007C234.453,330.152 231.421,327.34 232.278,322.489Z" clip-rule="evenodd" fill-rule="evenodd" fill="url(#pf_0_i_1_5324;1326_14644;1618_12759;1617_11682)"/>
<path d="M330.741,231.66C332.657,227.542 337.103,225.227 341.576,226.015L381.539,233.062C386.996,234.024 390.641,239.227 389.679,244.685C388.715,250.141 383.512,253.785 378.056,252.823L345.677,247.112L326.55,288.169C324.212,293.192 318.242,295.366 313.219,293.027C308.197,290.687 306.021,284.718 308.362,279.696L330.741,231.66Z" clip-rule="evenodd" fill-rule="evenodd" fill="url(#pf_0_i_1_5324;1326_14644;1618_12759;1617_11683)"/>
<path d="M188.297,384.177C200.118,386.262 211.391,378.367 213.477,366.546C215.56,354.724 207.667,343.452 195.845,341.367C184.024,339.282 172.751,347.176 170.666,358.997C168.582,370.82 176.475,382.091 188.297,384.177Z" fill="url(#pf_0_i_1_5324;1326_14644;1618_12759;1617_11684)"/>
<path d="M321.522,249.8L174.016,223.791C162.958,221.842 153.137,229.78 153.908,240.032L155.75,299.86C156.309,307.265 162.352,313.514 170.338,314.921L298.917,346.271L334.893,271.972C343.183,256.925 332.605,251.754 321.522,249.8Z" fill="url(#pf_0_i_1_5324;1326_14644;1618_12759;1617_11685)"/>
<path d="M189.578,373.453C195.517,374.5 201.18,370.535 202.228,364.596C203.275,358.658 199.309,352.993 193.37,351.946C187.431,350.899 181.768,354.864 180.72,360.805C179.673,366.743 183.639,372.406 189.578,373.453Z" fill="url(#pf_0_i_1_5324;1326_14644;1618_12759;1617_11686)"/>
<defs>
<linearGradient id="pf_0_i_1_5324;1326_14644;1618_12759;1617_11659" x1="99.789" y1="41.667" x2="417.795" y2="107.864" gradientUnits="userSpaceOnUse">
<stop stop-color="#A259FF"/>
<stop offset="1" stop-color="#3B3B3B"/>
</linearGradient>
<filter id="filterI1_5324;1326_14644;1618_12759;1617_11660" x="69.188354" y="69.188477" width="247.492752" height="247.492752" filterUnits="userSpaceOnUse" color-interpolation-filters="sRGB">
<feFlood flood-opacity="0" result="BackgroundImageFix"/>
<feBlend mode="normal" in="SourceGraphic" in2="BackgroundImageFix" result="shape"/>
<feGaussianBlur stdDeviation="27" result="0foregroundblur"/>
</filter>
<linearGradient id="pf_0_i_1_5324;1326_14644;1618_12759;1617_11661" x1="322.464" y1="375.603" x2="229.429" y2="364.998" gradientUnits="userSpaceOnUse">
<stop stop-color="#A259FF" stop-opacity="0"/>
<stop offset="1" stop-color="#FF6250"/>
</linearGradient>
<linearGradient id="pf_0_i_1_5324;1326_14644;1618_12759;1617_11666" x1="417.911" y1="146.981" x2="444.596" y2="167.94" gradientUnits="userSpaceOnUse">
<stop stop-color="#A259FF"/>
<stop offset="1" stop-color="#377DF7"/>
</linearGradient>
<linearGradient id="pf_0_i_1_5324;1326_14644;1618_12759;1617_11667" x1="102.168" y1="408.561" x2="101.276" y2="435.112" gradientUnits="userSpaceOnUse">
<stop stop-color="#A259FF"/>
<stop offset="1" stop-color="#377DF7"/>
</linearGradient>
<linearGradient id="pf_0_i_1_5324;1326_14644;1618_12759;1617_11668" x1="389.719" y1="362.786" x2="416.241" y2="361.264" gradientUnits="userSpaceOnUse">
<stop stop-color="#A259FF"/>
<stop offset="1" stop-color="#377DF7"/>
</linearGradient>
<filter id="filterI1_5324;1326_14644;1618_12759;1617_11669" x="103.009621" y="369.339699" width="159.803436" height="61.612106" filterUnits="userSpaceOnUse" color-interpolation-filters="sRGB">
<feFlood flood-opacity="0" result="BackgroundImageFix"/>
<feBlend mode="normal" in="SourceGraphic" in2="BackgroundImageFix" result="shape"/>
<feGaussianBlur stdDeviation="10.3437" result="0foregroundblur"/>
</filter>
<radialGradient id="pf_0_i_1_5324;1326_14644;1618_12759;1617_11670" cx="0" cy="0" r="1" gradientUnits="userSpaceOnUse" gradientTransform="matrix(0 10.118833 -59.214226 0 121.062 205.132)">
<stop stop-color="#2B2B2B"/>
<stop offset="1" stop-color="#2B2B2B" stop-opacity="0"/>
</radialGradient>
<filter id="filterI1_5324;1326_14644;1618_12759;1617_11671" x="157.877563" y="119.554688" width="62.067739" height="78.885382" filterUnits="userSpaceOnUse" color-interpolation-filters="sRGB">
<feFlood flood-opacity="0" result="BackgroundImageFix"/>
<feBlend mode="normal" in="SourceGraphic" in2="BackgroundImageFix" result="shape"/>
<feColorMatrix in="SourceAlpha" type="matrix" values="0 0 0 0 0 0 0 0 0 0 0 0 0 0 0 0 0 0 127 0" result="hardAlpha"/>
<feMorphology radius="0" operator="erode" in="SourceAlpha" result="0innershadow"/>
<feOffset dx="2.38455" dy="5.56394"/>
<feGaussianBlur stdDeviation="5.96137"/>
<feComposite in2="hardAlpha" operator="arithmetic" k2="-1" k3="1"/>
<feColorMatrix type="matrix" values="0 0 0 0 0.105882 0 0 0 0 0.466667 0 0 0 0 0.545098 0 0 0 0.15 0"/>
<feBlend mode="normal" in2="shape" result="0innershadow"/>
</filter>
<linearGradient id="pf_0_i_1_5324;1326_14644;1618_12759;1617_11672" x1="172.196" y1="132.466" x2="272.515" y2="129.375" gradientUnits="userSpaceOnUse">
<stop stop-color="#A259FF"/>
<stop offset="1" stop-color="#3B3B3B"/>
</linearGradient>
<linearGradient id="pf_0_i_1_5324;1326_14644;1618_12759;1617_11673" x1="236.542" y1="183.404" x2="229.957" y2="163.884" gradientUnits="userSpaceOnUse">
<stop stop-color="#A259FF"/>
<stop offset="0.667" stop-color="#FFFFFF"/>
</linearGradient>
<linearGradient id="pf_0_i_1_5324;1326_14644;1618_12759;1617_11674" x1="245.713" y1="234.715" x2="239.394" y2="215.773" gradientUnits="userSpaceOnUse">
<stop stop-color="#A259FF"/>
<stop offset="0.667" stop-color="#FFFFFF"/>
</linearGradient>
<linearGradient id="pf_0_i_1_5324;1326_14644;1618_12759;1617_11675" x1="240.962" y1="207.774" x2="234.643" y2="188.832" gradientUnits="userSpaceOnUse">
<stop stop-color="#A259FF"/>
<stop offset="0.667" stop-color="#FFFFFF"/>
</linearGradient>
<filter id="filterI1_5324;1326_14644;1618_12759;1617_11677" x="225.690308" y="150.132324" width="65.263538" height="36.345676" filterUnits="userSpaceOnUse" color-interpolation-filters="sRGB">
<feFlood flood-opacity="0" result="BackgroundImageFix"/>
<feBlend mode="normal" in="SourceGraphic" in2="BackgroundImageFix" result="shape"/>
<feColorMatrix in="SourceAlpha" type="matrix" values="0 0 0 0 0 0 0 0 0 0 0 0 0 0 0 0 0 0 127 0" result="hardAlpha"/>
<feMorphology radius="0" operator="erode" in="SourceAlpha" result="0innershadow"/>
<feOffset dx="5.62585" dy="3.75056"/>
<feGaussianBlur stdDeviation="6.09467"/>
<feComposite in2="hardAlpha" operator="arithmetic" k2="-1" k3="1"/>
<feColorMatrix type="matrix" values="0 0 0 0 0.105882 0 0 0 0 0.466667 0 0 0 0 0.545098 0 0 0 0.09 0"/>
<feBlend mode="normal" in2="shape" result="0innershadow"/>
</filter>
<linearGradient id="pf_0_i_1_5324;1326_14644;1618_12759;1617_11678" x1="225.69" y1="229.967" x2="299.087" y2="119.812" gradientUnits="userSpaceOnUse">
<stop stop-color="#A259FF"/>
<stop offset="1" stop-color="#FF6250"/>
</linearGradient>
<linearGradient id="pf_0_i_1_5324;1326_14644;1618_12759;1617_11682" x1="283.85" y1="356.351" x2="258.687" y2="238.253" gradientUnits="userSpaceOnUse">
<stop stop-color="#A259FF"/>
<stop offset="0.667" stop-color="#FFFFFF"/>
</linearGradient>
<linearGradient id="pf_0_i_1_5324;1326_14644;1618_12759;1617_11683" x1="367.717" y1="246.705" x2="425.798" y2="314.308" gradientUnits="userSpaceOnUse">
<stop stop-color="#A259FF"/>
<stop offset="1" stop-color="#377DF7"/>
</linearGradient>
<linearGradient id="pf_0_i_1_5324;1326_14644;1618_12759;1617_11684" x1="203.187" y1="374.314" x2="153.54" y2="323.59" gradientUnits="userSpaceOnUse">
<stop stop-color="#A259FF"/>
<stop offset="0.667" stop-color="#FFFFFF"/>
</linearGradient>
<linearGradient id="pf_0_i_1_5324;1326_14644;1618_12759;1617_11685" x1="290.444" y1="316.358" x2="190.651" y2="117.406" gradientUnits="userSpaceOnUse">
<stop stop-color="#A259FF"/>
<stop offset="0.667" stop-color="#FFFFFF"/>
</linearGradient>
<linearGradient id="pf_0_i_1_5324;1326_14644;1618_12759;1617_11686" x1="179.127" y1="366.064" x2="210.113" y2="372.035" gradientUnits="userSpaceOnUse">
<stop stop-color="#FFFFFF"/>
<stop offset="1" stop-color="#BCF3FF"/>
</linearGradient>
</defs>
</svg>
