<svg width="64" height="64" viewBox="0 0 64 64" fill="none" xmlns="http://www.w3.org/2000/svg" xmlns:xlink="http://www.w3.org/1999/xlink">
<path d="M32,24C27.582,24 24,27.582 24,32C24,36.418 27.582,40 32,40C36.418,40 40,36.418 40,32C40,27.582 36.418,24 32,24ZM20,32C20,25.373 25.373,20 32,20C38.627,20 44,25.373 44,32C44,38.627 38.627,44 32,44C25.373,44 20,38.627 20,32Z" clip-rule="evenodd" fill-rule="evenodd" fill="#858584"/>
<path d="M21,11C15.477,11 11,15.477 11,21L11,43C11,48.523 15.477,53 21,53L43,53C48.523,53 53,48.523 53,43L53,21C53,15.477 48.523,11 43,11L21,11ZM7,21C7,13.268 13.268,7 21,7L43,7C50.732,7 57,13.268 57,21L57,43C57,50.732 50.732,57 43,57L21,57C13.268,57 7,50.732 7,43L7,21Z" clip-rule="evenodd" fill-rule="evenodd" fill="#858584"/>
<circle cx="45" cy="19" r="3" fill="#858584"/>
</svg>
