<svg width="66" height="64" viewBox="0 0 66 64" fill="none" xmlns="http://www.w3.org/2000/svg" xmlns:xlink="http://www.w3.org/1999/xlink">
<path d="M32.586,24C28.168,24 24.586,27.582 24.586,32C24.586,36.418 28.168,40 32.586,40C37.004,40 40.586,36.418 40.586,32C40.586,27.582 37.004,24 32.586,24ZM20.586,32C20.586,25.373 25.959,20 32.586,20C39.214,20 44.586,25.373 44.586,32C44.586,38.627 39.214,44 32.586,44C25.959,44 20.586,38.627 20.586,32Z" clip-rule="evenodd" fill-rule="evenodd" fill="#858584"/>
<path d="M21.586,11C16.063,11 11.586,15.477 11.586,21L11.586,43C11.586,48.523 16.063,53 21.586,53L43.586,53C49.109,53 53.586,48.523 53.586,43L53.586,21C53.586,15.477 49.109,11 43.586,11L21.586,11ZM7.586,21C7.586,13.268 13.854,7 21.586,7L43.586,7C51.318,7 57.586,13.268 57.586,21L57.586,43C57.586,50.732 51.318,57 43.586,57L21.586,57C13.854,57 7.586,50.732 7.586,43L7.586,21Z" clip-rule="evenodd" fill-rule="evenodd" fill="#858584"/>
<circle cx="45.586" cy="19" r="3" fill="#858584"/>
</svg>
