<svg width="400" height="40" viewBox="0 0 400 40" fill="none" xmlns="http://www.w3.org/2000/svg" xmlns:xlink="http://www.w3.org/1999/xlink">
<path d="M15.546,27.095L16.338,27.095L16.338,-0.801L22.146,-0.801L22.146,29.999L10.794,29.999L7.186,2.103L6.394,2.103L6.394,29.999L0.586,29.999L0.586,-0.801L11.938,-0.801L15.546,27.095Z" fill="#FFFFFF"/>
<path d="M28.716,-0.801L48.428,-0.801L48.428,4.743L34.524,4.743L34.524,11.783L48.164,11.783L48.164,17.327L34.524,17.327L34.524,29.999L28.716,29.999L28.716,-0.801Z" fill="#FFFFFF"/>
<path d="M54.161,-0.801L76.337,-0.801L76.337,4.743L68.153,4.743L68.153,29.999L62.345,29.999L62.345,4.743L54.161,4.743L54.161,-0.801Z" fill="#FFFFFF"/>
<path d="M106.636,-0.801L116.844,-0.801L118.604,22.343L118.604,26.831L119.66,26.831L119.66,22.343L121.42,-0.801L131.628,-0.801L131.628,29.999L126.348,29.999L126.348,9.407L126.876,2.367L125.82,2.367L123.532,29.999L114.82,29.999L112.444,2.367L111.388,2.367L111.916,9.407L111.916,29.999L106.636,29.999L106.636,-0.801Z" fill="#FFFFFF"/>
<path d="M150.165,26.831C149.579,28.21 148.757,29.193 147.701,29.779C146.645,30.337 145.413,30.615 144.005,30.615C142.685,30.615 141.439,30.366 140.265,29.867C139.121,29.369 138.109,28.635 137.229,27.667C136.349,26.699 135.645,25.526 135.117,24.147C134.619,22.769 134.369,21.199 134.369,19.439L134.369,18.735C134.369,17.005 134.619,15.45 135.117,14.071C135.616,12.693 136.291,11.519 137.141,10.551C137.992,9.583 138.975,8.85 140.089,8.351C141.233,7.823 142.451,7.559 143.741,7.559C145.296,7.559 146.543,7.823 147.481,8.351C148.449,8.879 149.212,9.701 149.769,10.815L150.561,10.815L150.561,8.175L156.105,8.175L156.105,23.399C156.105,24.279 156.501,24.719 157.293,24.719L158.129,24.719L158.129,29.999L154.345,29.999C153.348,29.999 152.527,29.706 151.881,29.119C151.265,28.533 150.957,27.77 150.957,26.831L150.165,26.831ZM145.237,25.335C146.851,25.335 148.141,24.807 149.109,23.751C150.077,22.666 150.561,21.199 150.561,19.351L150.561,18.823C150.561,16.975 150.077,15.523 149.109,14.467C148.141,13.382 146.851,12.839 145.237,12.839C143.624,12.839 142.333,13.382 141.365,14.467C140.397,15.523 139.913,16.975 139.913,18.823L139.913,19.351C139.913,21.199 140.397,22.666 141.365,23.751C142.333,24.807 143.624,25.335 145.237,25.335Z" fill="#FFFFFF"/>
<path d="M161.927,8.175L171.167,8.175L171.167,11.343L171.959,11.343C172.369,10.141 173.059,9.217 174.027,8.571C175.024,7.897 176.212,7.559 177.591,7.559C179.761,7.559 181.507,8.249 182.827,9.627C184.147,10.977 184.807,13.045 184.807,15.831L184.807,16.799L179.087,17.327L179.087,16.711C179.087,15.509 178.779,14.555 178.163,13.851C177.547,13.118 176.623,12.751 175.391,12.751C174.159,12.751 173.191,13.177 172.487,14.027C171.783,14.878 171.431,16.095 171.431,17.679L171.431,24.719L176.447,24.719L176.447,29.999L161.399,29.999L161.399,24.719L165.887,24.719L165.887,13.455L161.927,13.455L161.927,8.175Z" fill="#FFFFFF"/>
<path d="M197.228,16.183L198.284,16.183L204.092,8.175L210.164,8.175L210.164,8.439L203.124,18.427L203.124,19.219L210.868,29.735L210.868,29.999L204.532,29.999L198.284,21.463L197.228,21.463L197.228,29.999L191.684,29.999L191.684,-0.801L197.228,-0.801L197.228,16.183Z" fill="#FFFFFF"/>
<path d="M221.75,20.891C221.778,21.537 221.926,22.138 222.19,22.695C222.482,23.223 222.864,23.693 223.334,24.103C223.832,24.485 224.39,24.793 225.006,25.027C225.65,25.233 226.326,25.335 227.03,25.335C228.408,25.335 229.464,25.101 230.198,24.631C230.93,24.133 231.458,23.546 231.782,22.871L236.534,25.511C236.27,26.069 235.902,26.655 235.434,27.271C234.964,27.858 234.348,28.401 233.586,28.899C232.852,29.398 231.942,29.809 230.858,30.131C229.802,30.454 228.554,30.615 227.118,30.615C225.474,30.615 223.978,30.351 222.63,29.823C221.28,29.295 220.106,28.533 219.11,27.535C218.142,26.538 217.378,25.321 216.822,23.883C216.294,22.446 216.03,20.818 216.03,18.999L216.03,18.735C216.03,17.063 216.308,15.538 216.866,14.159C217.452,12.781 218.244,11.607 219.242,10.639C220.238,9.671 221.398,8.923 222.718,8.395C224.066,7.838 225.504,7.559 227.03,7.559C228.906,7.559 230.52,7.897 231.87,8.571C233.218,9.217 234.334,10.053 235.214,11.079C236.094,12.077 236.738,13.191 237.15,14.423C237.56,15.626 237.766,16.799 237.766,17.943L237.766,20.891L221.75,20.891ZM226.986,12.575C225.578,12.575 224.434,12.942 223.554,13.675C222.674,14.379 222.102,15.201 221.838,16.139L232.134,16.139C231.958,15.113 231.4,14.262 230.462,13.587C229.552,12.913 228.394,12.575 226.986,12.575Z" fill="#FFFFFF"/>
<path d="M243.19,8.175L249.658,8.175L249.658,-0.801L255.202,-0.801L255.202,8.175L263.078,8.175L263.078,13.455L255.202,13.455L255.202,23.399C255.202,24.279 255.598,24.719 256.39,24.719L262.286,24.719L262.286,29.999L253.046,29.999C252.05,29.999 251.228,29.677 250.582,29.031C249.966,28.386 249.658,27.565 249.658,26.567L249.658,13.455L243.19,13.455L243.19,8.175Z" fill="#FFFFFF"/>
<path d="M275.148,38.799L269.604,38.799L269.604,8.175L275.148,8.175L275.148,11.343L275.94,11.343C276.526,10.141 277.378,9.217 278.492,8.571C279.606,7.897 281.03,7.559 282.76,7.559C284.05,7.559 285.268,7.809 286.412,8.307C287.586,8.806 288.598,9.539 289.448,10.507C290.328,11.446 291.018,12.605 291.516,13.983C292.044,15.362 292.308,16.931 292.308,18.691L292.308,19.483C292.308,21.273 292.058,22.857 291.56,24.235C291.062,25.614 290.386,26.787 289.536,27.755C288.686,28.694 287.674,29.413 286.5,29.911C285.356,30.381 284.11,30.615 282.76,30.615C281.762,30.615 280.898,30.513 280.164,30.307C279.43,30.102 278.786,29.823 278.228,29.471C277.7,29.119 277.246,28.723 276.864,28.283C276.512,27.814 276.204,27.33 275.94,26.831L275.148,26.831L275.148,38.799ZM280.956,25.335C282.686,25.335 284.08,24.807 285.136,23.751C286.222,22.666 286.764,21.199 286.764,19.351L286.764,18.823C286.764,16.975 286.222,15.523 285.136,14.467C284.08,13.382 282.686,12.839 280.956,12.839C279.226,12.839 277.818,13.397 276.732,14.511C275.676,15.597 275.148,17.034 275.148,18.823L275.148,19.351C275.148,21.141 275.676,22.593 276.732,23.707C277.818,24.793 279.226,25.335 280.956,25.335Z" fill="#FFFFFF"/>
<path d="M297.558,24.719L305.214,24.719L305.214,4.479L297.822,4.479L297.822,-0.801L310.758,-0.801L310.758,24.719L317.886,24.719L317.886,29.999L297.558,29.999L297.558,24.719Z" fill="#FFFFFF"/>
<path d="M338.754,26.831C338.168,28.21 337.346,29.193 336.29,29.779C335.234,30.337 334.002,30.615 332.594,30.615C331.274,30.615 330.028,30.366 328.854,29.867C327.71,29.369 326.698,28.635 325.818,27.667C324.938,26.699 324.234,25.526 323.706,24.147C323.208,22.769 322.958,21.199 322.958,19.439L322.958,18.735C322.958,17.005 323.208,15.45 323.706,14.071C324.206,12.693 324.88,11.519 325.73,10.551C326.582,9.583 327.564,8.85 328.678,8.351C329.822,7.823 331.04,7.559 332.33,7.559C333.886,7.559 335.132,7.823 336.07,8.351C337.038,8.879 337.802,9.701 338.358,10.815L339.15,10.815L339.15,8.175L344.694,8.175L344.694,23.399C344.694,24.279 345.09,24.719 345.882,24.719L346.718,24.719L346.718,29.999L342.934,29.999C341.938,29.999 341.116,29.706 340.47,29.119C339.854,28.533 339.546,27.77 339.546,26.831L338.754,26.831ZM333.826,25.335C335.44,25.335 336.73,24.807 337.698,23.751C338.666,22.666 339.15,21.199 339.15,19.351L339.15,18.823C339.15,16.975 338.666,15.523 337.698,14.467C336.73,13.382 335.44,12.839 333.826,12.839C332.214,12.839 330.922,13.382 329.954,14.467C328.986,15.523 328.502,16.975 328.502,18.823L328.502,19.351C328.502,21.199 328.986,22.666 329.954,23.751C330.922,24.807 332.214,25.335 333.826,25.335Z" fill="#FFFFFF"/>
<path d="M372.868,21.991C372.37,24.573 371.182,26.655 369.304,28.239C367.456,29.823 364.978,30.615 361.868,30.615C360.254,30.615 358.744,30.366 357.336,29.867C355.958,29.369 354.754,28.65 353.728,27.711C352.702,26.773 351.894,25.614 351.308,24.235C350.722,22.857 350.428,21.287 350.428,19.527L350.428,18.999C350.428,17.239 350.722,15.655 351.308,14.247C351.894,12.839 352.702,11.637 353.728,10.639C354.784,9.642 356.002,8.879 357.38,8.351C358.788,7.823 360.284,7.559 361.868,7.559C364.918,7.559 367.382,8.351 369.26,9.935C371.166,11.519 372.37,13.602 372.868,16.183L367.412,17.591C367.236,16.301 366.678,15.186 365.74,14.247C364.802,13.309 363.482,12.839 361.78,12.839C360.988,12.839 360.24,12.986 359.536,13.279C358.832,13.573 358.216,13.998 357.688,14.555C357.16,15.083 356.734,15.743 356.412,16.535C356.118,17.298 355.972,18.163 355.972,19.131L355.972,19.395C355.972,20.363 356.118,21.229 356.412,21.991C356.734,22.725 357.16,23.341 357.688,23.839C358.216,24.338 358.832,24.719 359.536,24.983C360.24,25.218 360.988,25.335 361.78,25.335C363.482,25.335 364.772,24.91 365.652,24.059C366.562,23.209 367.148,22.065 367.412,20.627L372.868,21.991Z" fill="#FFFFFF"/>
<path d="M383.398,20.891C383.428,21.537 383.574,22.138 383.838,22.695C384.132,23.223 384.512,23.693 384.982,24.103C385.48,24.485 386.038,24.793 386.654,25.027C387.3,25.233 387.974,25.335 388.678,25.335C390.056,25.335 391.112,25.101 391.846,24.631C392.58,24.133 393.108,23.546 393.43,22.871L398.182,25.511C397.918,26.069 397.552,26.655 397.082,27.271C396.612,27.858 395.996,28.401 395.234,28.899C394.5,29.398 393.592,29.809 392.506,30.131C391.45,30.454 390.204,30.615 388.766,30.615C387.124,30.615 385.628,30.351 384.278,29.823C382.928,29.295 381.756,28.533 380.758,27.535C379.79,26.538 379.028,25.321 378.47,23.883C377.942,22.446 377.678,20.818 377.678,18.999L377.678,18.735C377.678,17.063 377.956,15.538 378.514,14.159C379.1,12.781 379.892,11.607 380.89,10.639C381.888,9.671 383.046,8.923 384.366,8.395C385.716,7.838 387.152,7.559 388.678,7.559C390.556,7.559 392.168,7.897 393.518,8.571C394.868,9.217 395.982,10.053 396.862,11.079C397.742,12.077 398.388,13.191 398.798,14.423C399.208,15.626 399.414,16.799 399.414,17.943L399.414,20.891L383.398,20.891ZM388.634,12.575C387.226,12.575 386.082,12.942 385.202,13.675C384.322,14.379 383.75,15.201 383.486,16.139L393.782,16.139C393.606,15.113 393.048,14.262 392.11,13.587C391.2,12.913 390.042,12.575 388.634,12.575Z" fill="#FFFFFF"/>
</svg>
