<svg width="400" height="40" viewBox="0 0 400 40" fill="none" xmlns="http://www.w3.org/2000/svg" xmlns:xlink="http://www.w3.org/1999/xlink">
<path d="M14.96,27.095L15.752,27.095L15.752,-0.801L21.56,-0.801L21.56,29.999L10.208,29.999L6.6,2.103L5.808,2.103L5.808,29.999L0,29.999L0,-0.801L11.352,-0.801L14.96,27.095Z" fill="#FFFFFF"/>
<path d="M28.129,-0.801L47.841,-0.801L47.841,4.743L33.937,4.743L33.937,11.783L47.577,11.783L47.577,17.327L33.937,17.327L33.937,29.999L28.129,29.999L28.129,-0.801Z" fill="#FFFFFF"/>
<path d="M53.575,-0.801L75.751,-0.801L75.751,4.743L67.567,4.743L67.567,29.999L61.759,29.999L61.759,4.743L53.575,4.743L53.575,-0.801Z" fill="#FFFFFF"/>
<path d="M106.05,-0.801L116.258,-0.801L118.018,22.343L118.018,26.831L119.074,26.831L119.074,22.343L120.834,-0.801L131.042,-0.801L131.042,29.999L125.762,29.999L125.762,9.407L126.29,2.367L125.234,2.367L122.946,29.999L114.234,29.999L111.858,2.367L110.802,2.367L111.33,9.407L111.33,29.999L106.05,29.999L106.05,-0.801Z" fill="#FFFFFF"/>
<path d="M149.579,26.831C148.992,28.21 148.171,29.193 147.115,29.779C146.059,30.337 144.827,30.615 143.419,30.615C142.099,30.615 140.852,30.366 139.679,29.867C138.535,29.369 137.523,28.635 136.643,27.667C135.763,26.699 135.059,25.526 134.531,24.147C134.032,22.769 133.783,21.199 133.783,19.439L133.783,18.735C133.783,17.005 134.032,15.45 134.531,14.071C135.03,12.693 135.704,11.519 136.555,10.551C137.406,9.583 138.388,8.85 139.503,8.351C140.647,7.823 141.864,7.559 143.155,7.559C144.71,7.559 145.956,7.823 146.895,8.351C147.863,8.879 148.626,9.701 149.183,10.815L149.975,10.815L149.975,8.175L155.519,8.175L155.519,23.399C155.519,24.279 155.915,24.719 156.707,24.719L157.543,24.719L157.543,29.999L153.759,29.999C152.762,29.999 151.94,29.706 151.295,29.119C150.679,28.533 150.371,27.77 150.371,26.831L149.579,26.831ZM144.651,25.335C146.264,25.335 147.555,24.807 148.523,23.751C149.491,22.666 149.975,21.199 149.975,19.351L149.975,18.823C149.975,16.975 149.491,15.523 148.523,14.467C147.555,13.382 146.264,12.839 144.651,12.839C143.038,12.839 141.747,13.382 140.779,14.467C139.811,15.523 139.327,16.975 139.327,18.823L139.327,19.351C139.327,21.199 139.811,22.666 140.779,23.751C141.747,24.807 143.038,25.335 144.651,25.335Z" fill="#FFFFFF"/>
<path d="M161.34,8.175L170.58,8.175L170.58,11.343L171.372,11.343C171.783,10.141 172.472,9.217 173.44,8.571C174.438,7.897 175.626,7.559 177.004,7.559C179.175,7.559 180.92,8.249 182.24,9.627C183.56,10.977 184.22,13.045 184.22,15.831L184.22,16.799L178.5,17.327L178.5,16.711C178.5,15.509 178.192,14.555 177.576,13.851C176.96,13.118 176.036,12.751 174.804,12.751C173.572,12.751 172.604,13.177 171.9,14.027C171.196,14.878 170.844,16.095 170.844,17.679L170.844,24.719L175.86,24.719L175.86,29.999L160.812,29.999L160.812,24.719L165.3,24.719L165.3,13.455L161.34,13.455L161.34,8.175Z" fill="#FFFFFF"/>
<path d="M196.642,16.183L197.698,16.183L203.506,8.175L209.578,8.175L209.578,8.439L202.538,18.427L202.538,19.219L210.282,29.735L210.282,29.999L203.946,29.999L197.698,21.463L196.642,21.463L196.642,29.999L191.098,29.999L191.098,-0.801L196.642,-0.801L196.642,16.183Z" fill="#FFFFFF"/>
<path d="M221.164,20.891C221.192,21.537 221.34,22.138 221.604,22.695C221.896,23.223 222.278,23.693 222.748,24.103C223.246,24.485 223.804,24.793 224.42,25.027C225.064,25.233 225.74,25.335 226.444,25.335C227.822,25.335 228.878,25.101 229.612,24.631C230.344,24.133 230.872,23.546 231.196,22.871L235.948,25.511C235.684,26.069 235.316,26.655 234.848,27.271C234.378,27.858 233.762,28.401 233,28.899C232.266,29.398 231.356,29.809 230.272,30.131C229.216,30.454 227.968,30.615 226.532,30.615C224.888,30.615 223.392,30.351 222.044,29.823C220.694,29.295 219.52,28.533 218.524,27.535C217.556,26.538 216.792,25.321 216.236,23.883C215.708,22.446 215.444,20.818 215.444,18.999L215.444,18.735C215.444,17.063 215.722,15.538 216.28,14.159C216.866,12.781 217.658,11.607 218.656,10.639C219.652,9.671 220.812,8.923 222.132,8.395C223.48,7.838 224.918,7.559 226.444,7.559C228.32,7.559 229.934,7.897 231.284,8.571C232.632,9.217 233.748,10.053 234.628,11.079C235.508,12.077 236.152,13.191 236.564,14.423C236.974,15.626 237.18,16.799 237.18,17.943L237.18,20.891L221.164,20.891ZM226.4,12.575C224.992,12.575 223.848,12.942 222.968,13.675C222.088,14.379 221.516,15.201 221.252,16.139L231.548,16.139C231.372,15.113 230.814,14.262 229.876,13.587C228.966,12.913 227.808,12.575 226.4,12.575Z" fill="#FFFFFF"/>
<path d="M242.604,8.175L249.072,8.175L249.072,-0.801L254.616,-0.801L254.616,8.175L262.492,8.175L262.492,13.455L254.616,13.455L254.616,23.399C254.616,24.279 255.012,24.719 255.804,24.719L261.7,24.719L261.7,29.999L252.46,29.999C251.464,29.999 250.642,29.677 249.996,29.031C249.38,28.386 249.072,27.565 249.072,26.567L249.072,13.455L242.604,13.455L242.604,8.175Z" fill="#FFFFFF"/>
<path d="M274.562,38.799L269.018,38.799L269.018,8.175L274.562,8.175L274.562,11.343L275.354,11.343C275.94,10.141 276.792,9.217 277.906,8.571C279.02,7.897 280.444,7.559 282.174,7.559C283.464,7.559 284.682,7.809 285.826,8.307C287,8.806 288.012,9.539 288.862,10.507C289.742,11.446 290.432,12.605 290.93,13.983C291.458,15.362 291.722,16.931 291.722,18.691L291.722,19.483C291.722,21.273 291.472,22.857 290.974,24.235C290.476,25.614 289.8,26.787 288.95,27.755C288.1,28.694 287.088,29.413 285.914,29.911C284.77,30.381 283.524,30.615 282.174,30.615C281.176,30.615 280.312,30.513 279.578,30.307C278.844,30.102 278.2,29.823 277.642,29.471C277.114,29.119 276.66,28.723 276.278,28.283C275.926,27.814 275.618,27.33 275.354,26.831L274.562,26.831L274.562,38.799ZM280.37,25.335C282.1,25.335 283.494,24.807 284.55,23.751C285.636,22.666 286.178,21.199 286.178,19.351L286.178,18.823C286.178,16.975 285.636,15.523 284.55,14.467C283.494,13.382 282.1,12.839 280.37,12.839C278.64,12.839 277.232,13.397 276.146,14.511C275.09,15.597 274.562,17.034 274.562,18.823L274.562,19.351C274.562,21.141 275.09,22.593 276.146,23.707C277.232,24.793 278.64,25.335 280.37,25.335Z" fill="#FFFFFF"/>
<path d="M296.972,24.719L304.628,24.719L304.628,4.479L297.236,4.479L297.236,-0.801L310.172,-0.801L310.172,24.719L317.3,24.719L317.3,29.999L296.972,29.999L296.972,24.719Z" fill="#FFFFFF"/>
<path d="M338.168,26.831C337.582,28.21 336.76,29.193 335.704,29.779C334.648,30.337 333.416,30.615 332.008,30.615C330.688,30.615 329.442,30.366 328.268,29.867C327.124,29.369 326.112,28.635 325.232,27.667C324.352,26.699 323.648,25.526 323.12,24.147C322.622,22.769 322.372,21.199 322.372,19.439L322.372,18.735C322.372,17.005 322.622,15.45 323.12,14.071C323.62,12.693 324.294,11.519 325.144,10.551C325.996,9.583 326.978,8.85 328.092,8.351C329.236,7.823 330.454,7.559 331.744,7.559C333.3,7.559 334.546,7.823 335.484,8.351C336.452,8.879 337.216,9.701 337.772,10.815L338.564,10.815L338.564,8.175L344.108,8.175L344.108,23.399C344.108,24.279 344.504,24.719 345.296,24.719L346.132,24.719L346.132,29.999L342.348,29.999C341.352,29.999 340.53,29.706 339.884,29.119C339.268,28.533 338.96,27.77 338.96,26.831L338.168,26.831ZM333.24,25.335C334.854,25.335 336.144,24.807 337.112,23.751C338.08,22.666 338.564,21.199 338.564,19.351L338.564,18.823C338.564,16.975 338.08,15.523 337.112,14.467C336.144,13.382 334.854,12.839 333.24,12.839C331.628,12.839 330.336,13.382 329.368,14.467C328.4,15.523 327.916,16.975 327.916,18.823L327.916,19.351C327.916,21.199 328.4,22.666 329.368,23.751C330.336,24.807 331.628,25.335 333.24,25.335Z" fill="#FFFFFF"/>
<path d="M372.282,21.991C371.784,24.573 370.596,26.655 368.718,28.239C366.87,29.823 364.392,30.615 361.282,30.615C359.668,30.615 358.158,30.366 356.75,29.867C355.372,29.369 354.168,28.65 353.142,27.711C352.116,26.773 351.308,25.614 350.722,24.235C350.136,22.857 349.842,21.287 349.842,19.527L349.842,18.999C349.842,17.239 350.136,15.655 350.722,14.247C351.308,12.839 352.116,11.637 353.142,10.639C354.198,9.642 355.416,8.879 356.794,8.351C358.202,7.823 359.698,7.559 361.282,7.559C364.332,7.559 366.796,8.351 368.674,9.935C370.58,11.519 371.784,13.602 372.282,16.183L366.826,17.591C366.65,16.301 366.092,15.186 365.154,14.247C364.216,13.309 362.896,12.839 361.194,12.839C360.402,12.839 359.654,12.986 358.95,13.279C358.246,13.573 357.63,13.998 357.102,14.555C356.574,15.083 356.148,15.743 355.826,16.535C355.532,17.298 355.386,18.163 355.386,19.131L355.386,19.395C355.386,20.363 355.532,21.229 355.826,21.991C356.148,22.725 356.574,23.341 357.102,23.839C357.63,24.338 358.246,24.719 358.95,24.983C359.654,25.218 360.402,25.335 361.194,25.335C362.896,25.335 364.186,24.91 365.066,24.059C365.976,23.209 366.562,22.065 366.826,20.627L372.282,21.991Z" fill="#FFFFFF"/>
<path d="M382.812,20.891C382.842,21.537 382.988,22.138 383.252,22.695C383.546,23.223 383.926,23.693 384.396,24.103C384.894,24.485 385.452,24.793 386.068,25.027C386.714,25.233 387.388,25.335 388.092,25.335C389.47,25.335 390.526,25.101 391.26,24.631C391.994,24.133 392.522,23.546 392.844,22.871L397.596,25.511C397.332,26.069 396.966,26.655 396.496,27.271C396.026,27.858 395.41,28.401 394.648,28.899C393.914,29.398 393.006,29.809 391.92,30.131C390.864,30.454 389.618,30.615 388.18,30.615C386.538,30.615 385.042,30.351 383.692,29.823C382.342,29.295 381.17,28.533 380.172,27.535C379.204,26.538 378.442,25.321 377.884,23.883C377.356,22.446 377.092,20.818 377.092,18.999L377.092,18.735C377.092,17.063 377.37,15.538 377.928,14.159C378.514,12.781 379.306,11.607 380.304,10.639C381.302,9.671 382.46,8.923 383.78,8.395C385.13,7.838 386.566,7.559 388.092,7.559C389.97,7.559 391.582,7.897 392.932,8.571C394.282,9.217 395.396,10.053 396.276,11.079C397.156,12.077 397.802,13.191 398.212,14.423C398.622,15.626 398.828,16.799 398.828,17.943L398.828,20.891L382.812,20.891ZM388.048,12.575C386.64,12.575 385.496,12.942 384.616,13.675C383.736,14.379 383.164,15.201 382.9,16.139L393.196,16.139C393.02,15.113 392.462,14.262 391.524,13.587C390.614,12.913 389.456,12.575 388.048,12.575Z" fill="#FFFFFF"/>
</svg>
