<svg width="300" height="32" viewBox="0 0 300 32" fill="none" xmlns="http://www.w3.org/2000/svg" xmlns:xlink="http://www.w3.org/1999/xlink">
<path d="M11.22,21.821L11.814,21.821L11.814,0.899L16.17,0.899L16.17,23.999L7.656,23.999L4.95,3.077L4.356,3.077L4.356,23.999L0,23.999L0,0.899L8.514,0.899L11.22,21.821Z" fill="#FFFFFF"/>
<path d="M21.097,0.899L35.881,0.899L35.881,5.057L25.453,5.057L25.453,10.337L35.683,10.337L35.683,14.495L25.453,14.495L25.453,23.999L21.097,23.999L21.097,0.899Z" fill="#FFFFFF"/>
<path d="M40.181,0.899L56.813,0.899L56.813,5.057L50.675,5.057L50.675,23.999L46.319,23.999L46.319,5.057L40.181,5.057L40.181,0.899Z" fill="#FFFFFF"/>
<path d="M79.537,0.899L87.193,0.899L88.513,18.257L88.513,21.623L89.305,21.623L89.305,18.257L90.625,0.899L98.281,0.899L98.281,23.999L94.321,23.999L94.321,8.555L94.717,3.275L93.925,3.275L92.209,23.999L85.675,23.999L83.893,3.275L83.101,3.275L83.497,8.555L83.497,23.999L79.537,23.999L79.537,0.899Z" fill="#FFFFFF"/>
<path d="M112.184,21.623C111.744,22.657 111.128,23.394 110.336,23.834C109.544,24.252 108.62,24.461 107.564,24.461C106.574,24.461 105.639,24.274 104.759,23.9C103.901,23.526 103.142,22.976 102.482,22.25C101.822,21.524 101.294,20.644 100.898,19.61C100.524,18.576 100.337,17.399 100.337,16.079L100.337,15.551C100.337,14.253 100.524,13.087 100.898,12.053C101.272,11.019 101.778,10.139 102.416,9.413C103.054,8.687 103.791,8.137 104.627,7.763C105.485,7.367 106.398,7.169 107.366,7.169C108.532,7.169 109.467,7.367 110.171,7.763C110.897,8.159 111.469,8.775 111.887,9.611L112.481,9.611L112.481,7.631L116.639,7.631L116.639,19.049C116.639,19.709 116.936,20.039 117.53,20.039L118.157,20.039L118.157,23.999L115.319,23.999C114.571,23.999 113.955,23.779 113.471,23.339C113.009,22.899 112.778,22.327 112.778,21.623L112.184,21.623ZM108.488,20.501C109.698,20.501 110.666,20.105 111.392,19.313C112.118,18.499 112.481,17.399 112.481,16.013L112.481,15.617C112.481,14.231 112.118,13.142 111.392,12.35C110.666,11.536 109.698,11.129 108.488,11.129C107.278,11.129 106.31,11.536 105.584,12.35C104.858,13.142 104.495,14.231 104.495,15.617L104.495,16.013C104.495,17.399 104.858,18.499 105.584,19.313C106.31,20.105 107.278,20.501 108.488,20.501Z" fill="#FFFFFF"/>
<path d="M121.005,7.631L127.935,7.631L127.935,10.007L128.529,10.007C128.837,9.105 129.354,8.412 130.08,7.928C130.828,7.422 131.719,7.169 132.753,7.169C134.381,7.169 135.69,7.686 136.68,8.72C137.67,9.732 138.165,11.283 138.165,13.373L138.165,14.099L133.875,14.495L133.875,14.033C133.875,13.131 133.644,12.416 133.182,11.888C132.72,11.338 132.027,11.063 131.103,11.063C130.179,11.063 129.453,11.382 128.925,12.02C128.397,12.658 128.133,13.571 128.133,14.759L128.133,20.039L131.895,20.039L131.895,23.999L120.609,23.999L120.609,20.039L123.975,20.039L123.975,11.591L121.005,11.591L121.005,7.631Z" fill="#FFFFFF"/>
<path d="M147.481,13.637L148.273,13.637L152.629,7.631L157.183,7.631L157.183,7.829L151.903,15.32L151.903,15.914L157.711,23.801L157.711,23.999L152.959,23.999L148.273,17.597L147.481,17.597L147.481,23.999L143.323,23.999L143.323,0.899L147.481,0.899L147.481,13.637Z" fill="#FFFFFF"/>
<path d="M165.872,17.168C165.894,17.652 166.004,18.103 166.202,18.521C166.422,18.917 166.708,19.269 167.06,19.577C167.434,19.863 167.852,20.094 168.314,20.27C168.798,20.424 169.304,20.501 169.832,20.501C170.866,20.501 171.658,20.325 172.208,19.973C172.758,19.599 173.154,19.159 173.396,18.653L176.96,20.633C176.762,21.051 176.487,21.491 176.135,21.953C175.783,22.393 175.321,22.8 174.749,23.174C174.199,23.548 173.517,23.856 172.703,24.098C171.911,24.34 170.976,24.461 169.898,24.461C168.666,24.461 167.544,24.263 166.532,23.867C165.52,23.471 164.64,22.899 163.892,22.151C163.166,21.403 162.594,20.49 162.176,19.412C161.78,18.334 161.582,17.113 161.582,15.749L161.582,15.551C161.582,14.297 161.791,13.153 162.209,12.119C162.649,11.085 163.243,10.205 163.991,9.479C164.739,8.753 165.608,8.192 166.598,7.796C167.61,7.378 168.688,7.169 169.832,7.169C171.24,7.169 172.45,7.422 173.462,7.928C174.474,8.412 175.31,9.039 175.97,9.809C176.63,10.557 177.114,11.393 177.422,12.317C177.73,13.219 177.884,14.099 177.884,14.957L177.884,17.168L165.872,17.168ZM169.799,10.931C168.743,10.931 167.885,11.206 167.225,11.756C166.565,12.284 166.136,12.9 165.938,13.604L173.66,13.604C173.528,12.834 173.11,12.196 172.406,11.69C171.724,11.184 170.855,10.931 169.799,10.931Z" fill="#FFFFFF"/>
<path d="M181.953,7.631L186.804,7.631L186.804,0.899L190.962,0.899L190.962,7.631L196.869,7.631L196.869,11.591L190.962,11.591L190.962,19.049C190.962,19.709 191.259,20.039 191.853,20.039L196.275,20.039L196.275,23.999L189.345,23.999C188.597,23.999 187.981,23.757 187.497,23.273C187.035,22.789 186.804,22.173 186.804,21.425L186.804,11.591L181.953,11.591L181.953,7.631Z" fill="#FFFFFF"/>
<path d="M205.922,30.599L201.764,30.599L201.764,7.631L205.922,7.631L205.922,10.007L206.516,10.007C206.956,9.105 207.594,8.412 208.43,7.928C209.266,7.422 210.332,7.169 211.63,7.169C212.598,7.169 213.512,7.356 214.37,7.73C215.25,8.104 216.008,8.654 216.646,9.38C217.306,10.084 217.824,10.953 218.198,11.987C218.594,13.021 218.792,14.198 218.792,15.518L218.792,16.112C218.792,17.454 218.604,18.642 218.23,19.676C217.856,20.71 217.35,21.59 216.712,22.316C216.074,23.02 215.316,23.559 214.436,23.933C213.578,24.285 212.642,24.461 211.63,24.461C210.882,24.461 210.234,24.384 209.684,24.23C209.134,24.076 208.65,23.867 208.232,23.603C207.836,23.339 207.494,23.042 207.208,22.712C206.944,22.36 206.714,21.997 206.516,21.623L205.922,21.623L205.922,30.599ZM210.278,20.501C211.576,20.501 212.62,20.105 213.412,19.313C214.226,18.499 214.634,17.399 214.634,16.013L214.634,15.617C214.634,14.231 214.226,13.142 213.412,12.35C212.62,11.536 211.576,11.129 210.278,11.129C208.98,11.129 207.924,11.547 207.11,12.383C206.318,13.197 205.922,14.275 205.922,15.617L205.922,16.013C205.922,17.355 206.318,18.444 207.11,19.28C207.924,20.094 208.98,20.501 210.278,20.501Z" fill="#FFFFFF"/>
<path d="M222.728,20.039L228.47,20.039L228.47,4.859L222.926,4.859L222.926,0.899L232.628,0.899L232.628,20.039L237.974,20.039L237.974,23.999L222.728,23.999L222.728,20.039Z" fill="#FFFFFF"/>
<path d="M253.626,21.623C253.186,22.657 252.57,23.394 251.778,23.834C250.986,24.252 250.062,24.461 249.006,24.461C248.016,24.461 247.082,24.274 246.202,23.9C245.344,23.526 244.584,22.976 243.924,22.25C243.264,21.524 242.736,20.644 242.34,19.61C241.966,18.576 241.78,17.399 241.78,16.079L241.78,15.551C241.78,14.253 241.966,13.087 242.34,12.053C242.714,11.019 243.22,10.139 243.858,9.413C244.496,8.687 245.234,8.137 246.07,7.763C246.928,7.367 247.84,7.169 248.808,7.169C249.974,7.169 250.91,7.367 251.614,7.763C252.34,8.159 252.912,8.775 253.33,9.611L253.924,9.611L253.924,7.631L258.082,7.631L258.082,19.049C258.082,19.709 258.378,20.039 258.972,20.039L259.6,20.039L259.6,23.999L256.762,23.999C256.014,23.999 255.398,23.779 254.914,23.339C254.452,22.899 254.22,22.327 254.22,21.623L253.626,21.623ZM249.93,20.501C251.14,20.501 252.108,20.105 252.834,19.313C253.56,18.499 253.924,17.399 253.924,16.013L253.924,15.617C253.924,14.231 253.56,13.142 252.834,12.35C252.108,11.536 251.14,11.129 249.93,11.129C248.72,11.129 247.752,11.536 247.026,12.35C246.3,13.142 245.938,14.231 245.938,15.617L245.938,16.013C245.938,17.399 246.3,18.499 247.026,19.313C247.752,20.105 248.72,20.501 249.93,20.501Z" fill="#FFFFFF"/>
<path d="M279.212,17.993C278.838,19.929 277.946,21.491 276.538,22.679C275.152,23.867 273.294,24.461 270.962,24.461C269.752,24.461 268.618,24.274 267.562,23.9C266.528,23.526 265.626,22.987 264.856,22.283C264.086,21.579 263.482,20.71 263.042,19.676C262.602,18.642 262.382,17.465 262.382,16.145L262.382,15.749C262.382,14.429 262.602,13.241 263.042,12.185C263.482,11.129 264.086,10.227 264.856,9.479C265.648,8.731 266.562,8.159 267.596,7.763C268.652,7.367 269.774,7.169 270.962,7.169C273.25,7.169 275.098,7.763 276.506,8.951C277.936,10.139 278.838,11.701 279.212,13.637L275.12,14.693C274.988,13.725 274.57,12.889 273.866,12.185C273.162,11.481 272.172,11.129 270.896,11.129C270.302,11.129 269.74,11.239 269.212,11.459C268.684,11.679 268.222,11.998 267.826,12.416C267.43,12.812 267.112,13.307 266.87,13.901C266.65,14.473 266.54,15.122 266.54,15.848L266.54,16.046C266.54,16.772 266.65,17.421 266.87,17.993C267.112,18.543 267.43,19.005 267.826,19.379C268.222,19.753 268.684,20.039 269.212,20.237C269.74,20.413 270.302,20.501 270.896,20.501C272.172,20.501 273.14,20.182 273.8,19.544C274.482,18.906 274.922,18.048 275.12,16.97L279.212,17.993Z" fill="#FFFFFF"/>
<path d="M287.108,17.168C287.13,17.652 287.24,18.103 287.438,18.521C287.658,18.917 287.944,19.269 288.296,19.577C288.67,19.863 289.088,20.094 289.55,20.27C290.034,20.424 290.54,20.501 291.068,20.501C292.102,20.501 292.894,20.325 293.444,19.973C293.994,19.599 294.39,19.159 294.632,18.653L298.196,20.633C297.998,21.051 297.724,21.491 297.372,21.953C297.02,22.393 296.558,22.8 295.986,23.174C295.436,23.548 294.754,23.856 293.94,24.098C293.148,24.34 292.212,24.461 291.134,24.461C289.902,24.461 288.78,24.263 287.768,23.867C286.756,23.471 285.876,22.899 285.128,22.151C284.402,21.403 283.83,20.49 283.412,19.412C283.016,18.334 282.818,17.113 282.818,15.749L282.818,15.551C282.818,14.297 283.028,13.153 283.446,12.119C283.886,11.085 284.48,10.205 285.228,9.479C285.976,8.753 286.844,8.192 287.834,7.796C288.846,7.378 289.924,7.169 291.068,7.169C292.476,7.169 293.686,7.422 294.698,7.928C295.71,8.412 296.546,9.039 297.206,9.809C297.866,10.557 298.35,11.393 298.658,12.317C298.966,13.219 299.12,14.099 299.12,14.957L299.12,17.168L287.108,17.168ZM291.036,10.931C289.98,10.931 289.122,11.206 288.462,11.756C287.802,12.284 287.372,12.9 287.174,13.604L294.896,13.604C294.764,12.834 294.346,12.196 293.642,11.69C292.96,11.184 292.092,10.931 291.036,10.931Z" fill="#FFFFFF"/>
</svg>
