<svg width="160" height="160" viewBox="0 0 160 160" fill="none" xmlns="http://www.w3.org/2000/svg" xmlns:xlink="http://www.w3.org/1999/xlink">
<path d="M11.5,135L9.626,132.657C8.631,133.453 8.247,134.791 8.669,135.993C9.091,137.195 10.226,138 11.5,138L11.5,135ZM24,102.5L21,102.5L24,102.5ZM11.5,138L56.5,138L56.5,132L11.5,132L11.5,138ZM56.5,138C63.521,138 70.385,135.918 76.223,132.017L72.889,127.028C68.038,130.27 62.335,132 56.5,132L56.5,138ZM76.223,132.017C82.061,128.116 86.611,122.572 89.298,116.085L83.754,113.789C81.522,119.18 77.741,123.787 72.889,127.028L76.223,132.017ZM89.298,116.085C91.985,109.598 92.688,102.461 91.318,95.574L85.433,96.745C86.571,102.467 85.987,108.399 83.754,113.789L89.298,116.085ZM91.318,95.574C89.948,88.688 86.567,82.362 81.602,77.398L77.36,81.64C81.485,85.766 84.295,91.022 85.433,96.745L91.318,95.574ZM81.602,77.398C76.638,72.433 70.312,69.052 63.426,67.682L62.255,73.567C67.978,74.705 73.234,77.515 77.36,81.64L81.602,77.398ZM63.426,67.682C56.539,66.312 49.402,67.015 42.915,69.702L45.211,75.246C50.601,73.013 56.533,72.429 62.255,73.567L63.426,67.682ZM42.915,69.702C36.428,72.389 30.884,76.939 26.983,82.777L31.972,86.111C35.213,81.259 39.82,77.478 45.211,75.246L42.915,69.702ZM26.983,82.777C23.082,88.615 21,95.479 21,102.5L27,102.5C27,96.665 28.73,90.962 31.972,86.111L26.983,82.777ZM21,102.5C21,113.165 18.045,120.77 15.164,125.666C13.719,128.124 12.284,129.912 11.233,131.068C10.708,131.646 10.28,132.064 9.996,132.328C9.854,132.46 9.748,132.553 9.684,132.608C9.652,132.635 9.631,132.653 9.621,132.661C9.616,132.665 9.614,132.667 9.615,132.666C9.615,132.666 9.616,132.665 9.618,132.664C9.619,132.663 9.62,132.662 9.621,132.661C9.622,132.66 9.623,132.66 9.624,132.659C9.625,132.658 9.626,132.657 11.5,135C13.374,137.343 13.375,137.342 13.377,137.34C13.377,137.34 13.379,137.339 13.38,137.338C13.382,137.336 13.384,137.335 13.386,137.333C13.391,137.329 13.397,137.324 13.403,137.319C13.416,137.309 13.432,137.296 13.451,137.28C13.488,137.249 13.537,137.208 13.597,137.157C13.716,137.054 13.879,136.91 14.078,136.725C14.478,136.354 15.026,135.815 15.673,135.104C16.966,133.682 18.656,131.564 20.336,128.709C23.705,122.98 27,114.335 27,102.5L21,102.5Z" fill="#FFFFFF"/>
<path d="M66.839,70.838C65.852,72.169 66.131,74.048 67.462,75.035C68.793,76.022 70.672,75.743 71.659,74.412L66.839,70.838ZM139.624,19.375L142.624,19.375C142.624,17.718 141.281,16.375 139.624,16.375L139.624,19.375ZM84.587,87.34C83.256,88.327 82.977,90.206 83.964,91.537C84.951,92.868 86.83,93.147 88.161,92.16L84.587,87.34ZM71.659,74.412C77.606,66.389 88.093,53.259 100.484,42.165C113.012,30.949 126.875,22.375 139.624,22.375L139.624,16.375C124.498,16.375 109.174,26.332 96.482,37.695C83.655,49.178 72.892,62.674 66.839,70.838L71.659,74.412ZM136.624,19.375C136.624,32.124 128.05,45.987 116.834,58.515C105.74,70.906 92.61,81.393 84.587,87.34L88.161,92.16C96.325,86.107 109.821,75.344 121.304,62.517C132.667,49.825 142.624,34.501 142.624,19.375L136.624,19.375Z" fill="#FFFFFF"/>
<path d="M83.599,54.013C82.157,53.199 80.327,53.709 79.512,55.152C78.698,56.594 79.208,58.424 80.651,59.239L83.599,54.013ZM99.762,78.35C100.577,79.793 102.407,80.303 103.849,79.489C105.292,78.674 105.802,76.844 104.988,75.401L99.762,78.35ZM80.651,59.239C88.643,63.749 95.252,70.358 99.762,78.35L104.988,75.401C99.94,66.457 92.544,59.061 83.599,54.013L80.651,59.239Z" fill="#FFFFFF"/>
</svg>
