<svg width="160" height="160" viewBox="0 0 160 160" fill="none" xmlns="http://www.w3.org/2000/svg" xmlns:xlink="http://www.w3.org/1999/xlink">
<path d="M12.5,135L10.626,132.657C9.631,133.453 9.247,134.791 9.669,135.993C10.091,137.195 11.226,138 12.5,138L12.5,135ZM25,102.5L22,102.5L25,102.5ZM12.5,138L57.5,138L57.5,132L12.5,132L12.5,138ZM57.5,138C64.521,138 71.385,135.918 77.223,132.017L73.889,127.028C69.038,130.27 63.335,132 57.5,132L57.5,138ZM77.223,132.017C83.061,128.116 87.611,122.572 90.298,116.085L84.754,113.789C82.522,119.18 78.741,123.787 73.889,127.028L77.223,132.017ZM90.298,116.085C92.985,109.598 93.688,102.461 92.318,95.574L86.433,96.745C87.571,102.467 86.987,108.399 84.754,113.789L90.298,116.085ZM92.318,95.574C90.948,88.688 87.567,82.362 82.602,77.398L78.36,81.64C82.485,85.766 85.295,91.022 86.433,96.745L92.318,95.574ZM82.602,77.398C77.638,72.433 71.312,69.052 64.426,67.682L63.255,73.567C68.978,74.705 74.234,77.515 78.36,81.64L82.602,77.398ZM64.426,67.682C57.539,66.312 50.402,67.015 43.915,69.702L46.211,75.246C51.601,73.013 57.533,72.429 63.255,73.567L64.426,67.682ZM43.915,69.702C37.428,72.389 31.884,76.939 27.983,82.777L32.972,86.111C36.213,81.259 40.82,77.478 46.211,75.246L43.915,69.702ZM27.983,82.777C24.082,88.615 22,95.479 22,102.5L28,102.5C28,96.665 29.73,90.962 32.972,86.111L27.983,82.777ZM22,102.5C22,113.165 19.045,120.77 16.164,125.666C14.719,128.124 13.284,129.912 12.233,131.068C11.708,131.646 11.28,132.064 10.996,132.328C10.854,132.46 10.748,132.553 10.684,132.608C10.652,132.635 10.631,132.653 10.621,132.661C10.616,132.665 10.614,132.667 10.615,132.666C10.615,132.666 10.616,132.665 10.618,132.664C10.619,132.663 10.62,132.662 10.621,132.661C10.622,132.66 10.623,132.66 10.624,132.659C10.625,132.658 10.626,132.657 12.5,135C14.374,137.343 14.375,137.342 14.377,137.34C14.377,137.34 14.379,137.339 14.38,137.338C14.382,137.336 14.384,137.335 14.386,137.333C14.391,137.329 14.397,137.324 14.403,137.319C14.416,137.309 14.432,137.296 14.451,137.28C14.488,137.249 14.537,137.208 14.597,137.157C14.716,137.054 14.879,136.91 15.078,136.725C15.478,136.354 16.026,135.815 16.673,135.104C17.966,133.682 19.656,131.564 21.336,128.709C24.705,122.98 28,114.335 28,102.5L22,102.5Z" fill="#FFFFFF"/>
<path d="M67.839,70.838C66.852,72.169 67.131,74.048 68.462,75.035C69.793,76.022 71.672,75.743 72.659,74.412L67.839,70.838ZM140.624,19.375L143.624,19.375C143.624,17.718 142.281,16.375 140.624,16.375L140.624,19.375ZM85.587,87.34C84.256,88.327 83.977,90.206 84.964,91.537C85.951,92.868 87.83,93.147 89.161,92.16L85.587,87.34ZM72.659,74.412C78.606,66.389 89.093,53.259 101.484,42.165C114.012,30.949 127.875,22.375 140.624,22.375L140.624,16.375C125.498,16.375 110.174,26.332 97.482,37.695C84.655,49.178 73.892,62.674 67.839,70.838L72.659,74.412ZM137.624,19.375C137.624,32.124 129.05,45.987 117.834,58.515C106.74,70.906 93.61,81.393 85.587,87.34L89.161,92.16C97.325,86.107 110.821,75.344 122.304,62.517C133.667,49.825 143.624,34.501 143.624,19.375L137.624,19.375Z" fill="#FFFFFF"/>
<path d="M84.599,54.013C83.157,53.199 81.327,53.709 80.512,55.152C79.698,56.594 80.208,58.424 81.651,59.239L84.599,54.013ZM100.762,78.35C101.577,79.793 103.407,80.303 104.849,79.489C106.292,78.674 106.802,76.844 105.988,75.401L100.762,78.35ZM81.651,59.239C89.643,63.749 96.252,70.358 100.762,78.35L105.988,75.401C100.94,66.457 93.544,59.061 84.599,54.013L81.651,59.239Z" fill="#FFFFFF"/>
</svg>
