<svg width="200" height="200" viewBox="0 0 200 200" fill="none" xmlns="http://www.w3.org/2000/svg" xmlns:xlink="http://www.w3.org/1999/xlink">
<path d="M15.625,168.75L13.751,166.407C12.756,167.203 12.372,168.541 12.794,169.743C13.216,170.945 14.351,171.75 15.625,171.75L15.625,168.75ZM31.25,128.125L28.25,128.125L31.25,128.125ZM15.625,171.75L71.875,171.75L71.875,165.75L15.625,165.75L15.625,171.75ZM71.875,171.75C80.503,171.75 88.938,169.191 96.112,164.398L92.778,159.409C86.591,163.543 79.317,165.75 71.875,165.75L71.875,171.75ZM96.112,164.398C103.286,159.604 108.877,152.791 112.179,144.82L106.636,142.523C103.788,149.399 98.966,155.275 92.778,159.409L96.112,164.398ZM112.179,144.82C115.481,136.848 116.345,128.077 114.662,119.614L108.777,120.785C110.229,128.083 109.484,135.648 106.636,142.523L112.179,144.82ZM114.662,119.614C112.978,111.152 108.824,103.379 102.723,97.277L98.48,101.52C103.742,106.782 107.325,113.486 108.777,120.785L114.662,119.614ZM102.723,97.277C96.621,91.176 88.848,87.022 80.386,85.338L79.215,91.223C86.514,92.675 93.218,96.258 98.48,101.52L102.723,97.277ZM80.386,85.338C71.923,83.655 63.152,84.519 55.18,87.821L57.477,93.364C64.352,90.516 71.917,89.771 79.215,91.223L80.386,85.338ZM55.18,87.821C47.209,91.123 40.396,96.714 35.602,103.888L40.591,107.222C44.725,101.034 50.601,96.212 57.477,93.364L55.18,87.821ZM35.602,103.888C30.809,111.062 28.25,119.497 28.25,128.125L34.25,128.125C34.25,120.683 36.457,113.409 40.591,107.222L35.602,103.888ZM28.25,128.125C28.25,141.602 24.514,151.238 20.852,157.463C19.016,160.585 17.19,162.861 15.847,164.339C15.175,165.078 14.625,165.616 14.255,165.96C14.07,166.131 13.931,166.254 13.844,166.328C13.801,166.365 13.771,166.391 13.755,166.404C13.747,166.41 13.743,166.414 13.742,166.415C13.742,166.415 13.742,166.414 13.744,166.413C13.744,166.413 13.745,166.412 13.747,166.411C13.747,166.41 13.748,166.41 13.749,166.409C13.75,166.408 13.751,166.407 15.625,168.75C17.499,171.093 17.5,171.092 17.502,171.09C17.502,171.09 17.504,171.089 17.505,171.088C17.507,171.086 17.509,171.084 17.512,171.082C17.517,171.078 17.523,171.073 17.531,171.067C17.545,171.056 17.563,171.041 17.585,171.023C17.628,170.987 17.685,170.939 17.757,170.877C17.899,170.755 18.095,170.582 18.338,170.356C18.823,169.906 19.493,169.248 20.286,168.375C21.872,166.631 23.953,164.025 26.023,160.505C30.174,153.449 34.25,142.773 34.25,128.125L28.25,128.125Z" fill="#FFFFFF"/>
<path d="M85.401,88.995C84.415,90.326 84.694,92.205 86.025,93.191C87.356,94.178 89.235,93.899 90.221,92.568L85.401,88.995ZM175.78,24.219L178.78,24.219C178.78,22.562 177.437,21.219 175.78,21.219L175.78,24.219ZM107.431,109.778C106.1,110.764 105.821,112.643 106.808,113.974C107.794,115.305 109.673,115.584 111.004,114.598L107.431,109.778ZM90.221,92.568C97.669,82.522 110.811,66.064 126.355,52.147C142.035,38.11 159.546,27.219 175.78,27.219L175.78,21.219C157.17,21.219 138.197,33.492 122.353,47.677C106.374,61.983 92.954,78.807 85.401,88.995L90.221,92.568ZM172.78,24.219C172.78,40.452 161.889,57.964 147.851,73.644C133.935,89.188 117.477,102.33 107.431,109.778L111.004,114.598C121.192,107.045 138.016,93.625 152.322,77.646C166.507,61.802 178.78,42.829 178.78,24.219L172.78,24.219Z" fill="#FFFFFF"/>
<path d="M105.381,68.17C103.938,67.355 102.108,67.865 101.294,69.308C100.479,70.751 100.989,72.581 102.432,73.395L105.381,68.17ZM126.606,97.569C127.42,99.012 129.25,99.522 130.693,98.708C132.136,97.893 132.646,96.063 131.831,94.62L126.606,97.569ZM102.432,73.395C112.542,79.101 120.901,87.46 126.606,97.569L131.831,94.62C125.589,83.559 116.442,74.413 105.381,68.17L102.432,73.395Z" fill="#FFFFFF"/>
</svg>
