<svg width="40" height="40" viewBox="0 0 40 40" fill="none" xmlns="http://www.w3.org/2000/svg" xmlns:xlink="http://www.w3.org/1999/xlink">
<path d="M11.341,24.898C11.561,25.553 11.209,26.261 10.555,26.481C8.436,27.194 7.31,28.973 6.707,30.781C6.468,31.5 6.324,32.191 6.237,32.763C6.809,32.676 7.5,32.531 8.218,32.292C10.027,31.69 11.806,30.564 12.518,28.445C12.738,27.791 13.447,27.439 14.102,27.659C14.756,27.879 15.108,28.588 14.888,29.242C13.819,32.42 11.176,33.942 9.008,34.664C7.913,35.029 6.888,35.209 6.14,35.299C5.764,35.344 5.453,35.367 5.232,35.378C5.121,35.384 5.033,35.387 4.97,35.389C4.939,35.389 4.913,35.39 4.895,35.39L4.872,35.39L4.864,35.39L4.862,35.39L4.86,35.39C4.86,35.39 4.859,35.39 4.859,34.14C3.609,34.14 3.609,34.14 3.609,34.139L3.609,34.138L3.609,34.135L3.609,34.128L3.61,34.105C3.61,34.086 3.61,34.061 3.611,34.03C3.613,33.967 3.616,33.878 3.621,33.768C3.633,33.547 3.656,33.236 3.701,32.86C3.791,32.112 3.971,31.087 4.336,29.992C5.057,27.824 6.58,25.181 9.758,24.112C10.412,23.892 11.121,24.244 11.341,24.898ZM4.859,34.14L3.609,34.14C3.609,34.831 4.169,35.39 4.859,35.39L4.859,34.14Z" clip-rule="evenodd" fill-rule="evenodd" fill="#FFFFFF"/>
<path d="M32.092,6.908C30.641,6.699 27.07,6.62 23.415,10.275L13.69,20L19,25.311L28.725,15.585C32.38,11.93 32.302,8.359 32.092,6.908ZM32.455,4.434C30.459,4.146 26.011,4.143 21.647,8.507L11.038,19.117C10.803,19.351 10.672,19.669 10.672,20C10.672,20.332 10.803,20.65 11.038,20.884L18.116,27.962C18.604,28.451 19.396,28.451 19.884,27.962L30.493,17.353C34.857,12.989 34.855,8.541 34.566,6.546C34.493,6.011 34.247,5.516 33.866,5.135C33.484,4.753 32.989,4.508 32.455,4.434Z" clip-rule="evenodd" fill-rule="evenodd" fill="#FFFFFF"/>
<path d="M27.844,16.985C28.534,16.985 29.094,17.545 29.094,18.235L29.094,28.329L29.094,28.346C29.084,29.003 28.817,29.629 28.35,30.09L23.305,35.151C22.985,35.47 22.584,35.697 22.145,35.807C21.706,35.917 21.245,35.905 20.812,35.774C20.379,35.642 19.99,35.396 19.686,35.06C19.382,34.725 19.175,34.314 19.087,33.87C19.087,33.87 19.087,33.871 19.087,33.87L17.774,27.324C17.639,26.647 18.077,25.989 18.754,25.853C19.431,25.717 20.09,26.156 20.226,26.833L21.538,33.382L26.594,28.311L26.594,18.235C26.594,17.545 27.153,16.985 27.844,16.985Z" clip-rule="evenodd" fill-rule="evenodd" fill="#FFFFFF"/>
<path d="M10.654,9.906L10.672,9.906L20.766,9.906C21.456,9.906 22.016,10.466 22.016,11.156C22.016,11.846 21.456,12.406 20.766,12.406L10.689,12.406L10.679,12.416L10.679,12.416L5.619,17.461L5.621,17.462L12.167,18.774C12.844,18.91 13.283,19.569 13.147,20.245C13.012,20.922 12.353,21.361 11.676,21.225L5.131,19.913C5.131,19.913 5.13,19.913 5.13,19.913C4.686,19.825 4.275,19.618 3.94,19.314C3.605,19.01 3.358,18.621 3.227,18.188C3.095,17.755 3.084,17.294 3.193,16.855C3.303,16.416 3.53,16.015 3.85,15.695L3.852,15.693L3.852,15.693L8.91,10.65C9.371,10.183 9.997,9.915 10.654,9.906Z" clip-rule="evenodd" fill-rule="evenodd" fill="#FFFFFF"/>
</svg>
