<svg width="40" height="40" viewBox="0 0 40 40" fill="none" xmlns="http://www.w3.org/2000/svg" xmlns:xlink="http://www.w3.org/1999/xlink">
<path d="M12.341,24.898C12.561,25.553 12.209,26.261 11.555,26.482C9.436,27.194 8.31,28.973 7.707,30.782C7.468,31.5 7.324,32.191 7.237,32.763C7.809,32.676 8.5,32.532 9.218,32.292C11.027,31.69 12.806,30.564 13.518,28.445C13.738,27.791 14.447,27.439 15.102,27.659C15.756,27.879 16.108,28.588 15.888,29.242C14.819,32.42 12.176,33.942 10.008,34.664C8.913,35.029 7.888,35.209 7.14,35.299C6.764,35.344 6.453,35.367 6.232,35.378C6.121,35.384 6.033,35.387 5.97,35.389C5.939,35.39 5.913,35.39 5.895,35.39L5.872,35.39L5.864,35.39L5.862,35.39L5.86,35.39C5.86,35.39 5.859,35.39 5.859,34.14C4.609,34.14 4.609,34.14 4.609,34.139L4.609,34.138L4.609,34.136L4.609,34.128L4.61,34.105C4.61,34.087 4.61,34.061 4.611,34.03C4.613,33.967 4.616,33.878 4.621,33.768C4.633,33.547 4.656,33.236 4.701,32.86C4.791,32.112 4.971,31.087 5.336,29.992C6.057,27.824 7.58,25.181 10.758,24.112C11.412,23.892 12.121,24.244 12.341,24.898ZM5.859,34.14L4.609,34.14C4.609,34.831 5.169,35.39 5.859,35.39L5.859,34.14Z" clip-rule="evenodd" fill-rule="evenodd" fill="#FFFFFF"/>
<path d="M33.092,6.908C31.641,6.699 28.07,6.62 24.415,10.275L14.69,20.001L20,25.311L29.725,15.585C33.38,11.93 33.302,8.359 33.092,6.908ZM33.455,4.435C31.459,4.146 27.011,4.143 22.647,8.507L12.038,19.117C11.803,19.351 11.672,19.669 11.672,20.001C11.672,20.332 11.803,20.65 12.038,20.884L19.116,27.963C19.604,28.451 20.396,28.451 20.884,27.963L31.493,17.353C35.857,12.989 35.855,8.541 35.566,6.546C35.493,6.012 35.247,5.516 34.866,5.135C34.484,4.754 33.989,4.508 33.455,4.435Z" clip-rule="evenodd" fill-rule="evenodd" fill="#FFFFFF"/>
<path d="M28.844,16.985C29.534,16.985 30.094,17.545 30.094,18.235L30.094,28.329L30.094,28.346C30.084,29.003 29.817,29.629 29.35,30.09L24.305,35.151C23.985,35.47 23.584,35.697 23.145,35.807C22.706,35.917 22.245,35.905 21.812,35.774C21.379,35.642 20.99,35.396 20.686,35.06C20.382,34.725 20.175,34.314 20.087,33.87C20.087,33.87 20.087,33.871 20.087,33.87L18.774,27.324C18.639,26.647 19.077,25.989 19.754,25.853C20.431,25.717 21.09,26.156 21.226,26.833L22.538,33.382L27.594,28.311L27.594,18.235C27.594,17.545 28.153,16.985 28.844,16.985Z" clip-rule="evenodd" fill-rule="evenodd" fill="#FFFFFF"/>
<path d="M11.654,9.906L11.672,9.906L21.766,9.906C22.456,9.906 23.016,10.466 23.016,11.156C23.016,11.847 22.456,12.406 21.766,12.406L11.689,12.406L11.679,12.417L11.679,12.416L6.619,17.461L6.621,17.462L13.167,18.774C13.844,18.91 14.283,19.569 14.147,20.246C14.012,20.923 13.353,21.361 12.676,21.226L6.131,19.913C6.131,19.913 6.13,19.913 6.13,19.913C5.686,19.825 5.275,19.618 4.94,19.314C4.605,19.01 4.358,18.621 4.227,18.188C4.095,17.755 4.084,17.294 4.193,16.855C4.303,16.416 4.53,16.015 4.85,15.695L4.852,15.693L4.852,15.693L9.91,10.65C10.371,10.183 10.997,9.916 11.654,9.906Z" clip-rule="evenodd" fill-rule="evenodd" fill="#FFFFFF"/>
</svg>
