<svg width="48" height="48" viewBox="0 0 48 48" fill="none" xmlns="http://www.w3.org/2000/svg" xmlns:xlink="http://www.w3.org/1999/xlink">
<path d="M9,18.675C9.828,18.675 10.5,19.347 10.5,20.175L10.5,39L37.5,39L37.5,20.175C37.5,19.347 38.172,18.675 39,18.675C39.828,18.675 40.5,19.347 40.5,20.175L40.5,39C40.5,39.796 40.184,40.559 39.621,41.122C39.059,41.684 38.296,42 37.5,42L10.5,42C9.704,42 8.941,41.684 8.379,41.122C7.816,40.559 7.5,39.796 7.5,39L7.5,20.175C7.5,19.347 8.172,18.675 9,18.675Z" clip-rule="evenodd" fill-rule="evenodd" fill="#A259FF"/>
<path d="M4.5,7.5C4.5,6.672 5.172,6 6,6L42,6C42.828,6 43.5,6.672 43.5,7.5C43.5,8.328 42.828,9 42,9L6,9C5.172,9 4.5,8.328 4.5,7.5Z" clip-rule="evenodd" fill-rule="evenodd" fill="#A259FF"/>
<path d="M6,10.5C6.828,10.5 7.5,11.172 7.5,12L7.5,15C7.5,16.193 7.974,17.338 8.818,18.182C9.662,19.026 10.807,19.5 12,19.5C13.193,19.5 14.338,19.026 15.182,18.182C16.026,17.338 16.5,16.193 16.5,15L16.5,12C16.5,11.172 17.172,10.5 18,10.5C18.828,10.5 19.5,11.172 19.5,12L19.5,15C19.5,16.989 18.71,18.897 17.303,20.303C15.897,21.71 13.989,22.5 12,22.5C10.011,22.5 8.103,21.71 6.697,20.303C5.29,18.897 4.5,16.989 4.5,15L4.5,12C4.5,11.172 5.172,10.5 6,10.5Z" clip-rule="evenodd" fill-rule="evenodd" fill="#A259FF"/>
<path d="M18,10.5C18.828,10.5 19.5,11.172 19.5,12L19.5,15C19.5,16.193 19.974,17.338 20.818,18.182C21.662,19.026 22.807,19.5 24,19.5C25.193,19.5 26.338,19.026 27.182,18.182C28.026,17.338 28.5,16.193 28.5,15L28.5,12C28.5,11.172 29.172,10.5 30,10.5C30.828,10.5 31.5,11.172 31.5,12L31.5,15C31.5,16.989 30.71,18.897 29.303,20.303C27.897,21.71 25.989,22.5 24,22.5C22.011,22.5 20.103,21.71 18.697,20.303C17.29,18.897 16.5,16.989 16.5,15L16.5,12C16.5,11.172 17.172,10.5 18,10.5Z" clip-rule="evenodd" fill-rule="evenodd" fill="#A259FF"/>
<path d="M30,10.5C30.828,10.5 31.5,11.172 31.5,12L31.5,15C31.5,16.193 31.974,17.338 32.818,18.182C33.662,19.026 34.807,19.5 36,19.5C37.193,19.5 38.338,19.026 39.182,18.182C40.026,17.338 40.5,16.193 40.5,15L40.5,12C40.5,11.172 41.172,10.5 42,10.5C42.828,10.5 43.5,11.172 43.5,12L43.5,15C43.5,16.989 42.71,18.897 41.303,20.303C39.897,21.71 37.989,22.5 36,22.5C34.011,22.5 32.103,21.71 30.697,20.303C29.29,18.897 28.5,16.989 28.5,15L28.5,12C28.5,11.172 29.172,10.5 30,10.5Z" clip-rule="evenodd" fill-rule="evenodd" fill="#A259FF"/>
</svg>
