<svg width="64" height="64" viewBox="0 0 64 64" fill="none" xmlns="http://www.w3.org/2000/svg" xmlns:xlink="http://www.w3.org/1999/xlink">
<path d="M12,24.9C13.105,24.9 14,25.796 14,26.9L14,52L50,52L50,26.9C50,25.796 50.895,24.9 52,24.9C53.105,24.9 54,25.796 54,26.9L54,52C54,53.061 53.579,54.079 52.828,54.829C52.078,55.579 51.061,56 50,56L14,56C12.939,56 11.922,55.579 11.172,54.829C10.421,54.079 10,53.061 10,52L10,26.9C10,25.796 10.895,24.9 12,24.9Z" clip-rule="evenodd" fill-rule="evenodd" fill="#A259FF"/>
<path d="M6,10C6,8.895 6.895,8 8,8L56,8C57.105,8 58,8.895 58,10C58,11.105 57.105,12 56,12L8,12C6.895,12 6,11.105 6,10Z" clip-rule="evenodd" fill-rule="evenodd" fill="#A259FF"/>
<path d="M8,14C9.105,14 10,14.895 10,16L10,20C10,21.591 10.632,23.117 11.757,24.243C12.883,25.368 14.409,26 16,26C17.591,26 19.117,25.368 20.243,24.243C21.368,23.117 22,21.591 22,20L22,16C22,14.895 22.895,14 24,14C25.105,14 26,14.895 26,16L26,20C26,22.652 24.946,25.196 23.071,27.071C21.196,28.946 18.652,30 16,30C13.348,30 10.804,28.946 8.929,27.071C7.054,25.196 6,22.652 6,20L6,16C6,14.895 6.895,14 8,14Z" clip-rule="evenodd" fill-rule="evenodd" fill="#A259FF"/>
<path d="M24,14C25.105,14 26,14.895 26,16L26,20C26,21.591 26.632,23.117 27.757,24.243C28.883,25.368 30.409,26 32,26C33.591,26 35.117,25.368 36.243,24.243C37.368,23.117 38,21.591 38,20L38,16C38,14.895 38.895,14 40,14C41.105,14 42,14.895 42,16L42,20C42,22.652 40.946,25.196 39.071,27.071C37.196,28.946 34.652,30 32,30C29.348,30 26.804,28.946 24.929,27.071C23.054,25.196 22,22.652 22,20L22,16C22,14.895 22.895,14 24,14Z" clip-rule="evenodd" fill-rule="evenodd" fill="#A259FF"/>
<path d="M40,14C41.105,14 42,14.895 42,16L42,20C42,21.591 42.632,23.117 43.757,24.243C44.883,25.368 46.409,26 48,26C49.591,26 51.117,25.368 52.243,24.243C53.368,23.117 54,21.591 54,20L54,16C54,14.895 54.895,14 56,14C57.105,14 58,14.895 58,16L58,20C58,22.652 56.946,25.196 55.071,27.071C53.196,28.946 50.652,30 48,30C45.348,30 42.804,28.946 40.929,27.071C39.054,25.196 38,22.652 38,20L38,16C38,14.895 38.895,14 40,14Z" clip-rule="evenodd" fill-rule="evenodd" fill="#A259FF"/>
</svg>
