<svg width="66" height="64" viewBox="0 0 66 64" fill="none" xmlns="http://www.w3.org/2000/svg" xmlns:xlink="http://www.w3.org/1999/xlink">
<path d="M12.586,24.9C13.691,24.9 14.586,25.796 14.586,26.9L14.586,52L50.586,52L50.586,26.9C50.586,25.796 51.482,24.9 52.586,24.9C53.691,24.9 54.586,25.796 54.586,26.9L54.586,52C54.586,53.061 54.165,54.079 53.415,54.829C52.664,55.579 51.647,56 50.586,56L14.586,56C13.525,56 12.508,55.579 11.758,54.829C11.008,54.079 10.586,53.061 10.586,52L10.586,26.9C10.586,25.796 11.482,24.9 12.586,24.9Z" clip-rule="evenodd" fill-rule="evenodd" fill="#A259FF"/>
<path d="M6.586,10C6.586,8.895 7.482,8 8.586,8L56.586,8C57.691,8 58.586,8.895 58.586,10C58.586,11.105 57.691,12 56.586,12L8.586,12C7.482,12 6.586,11.105 6.586,10Z" clip-rule="evenodd" fill-rule="evenodd" fill="#A259FF"/>
<path d="M8.586,14C9.691,14 10.586,14.895 10.586,16L10.586,20C10.586,21.591 11.218,23.117 12.344,24.243C13.469,25.368 14.995,26 16.586,26C18.177,26 19.704,25.368 20.829,24.243C21.954,23.117 22.586,21.591 22.586,20L22.586,16C22.586,14.895 23.482,14 24.586,14C25.691,14 26.586,14.895 26.586,16L26.586,20C26.586,22.652 25.533,25.196 23.657,27.071C21.782,28.946 19.238,30 16.586,30C13.934,30 11.39,28.946 9.515,27.071C7.64,25.196 6.586,22.652 6.586,20L6.586,16C6.586,14.895 7.482,14 8.586,14Z" clip-rule="evenodd" fill-rule="evenodd" fill="#A259FF"/>
<path d="M24.586,14C25.691,14 26.586,14.895 26.586,16L26.586,20C26.586,21.591 27.218,23.117 28.344,24.243C29.469,25.368 30.995,26 32.586,26C34.177,26 35.704,25.368 36.829,24.243C37.954,23.117 38.586,21.591 38.586,20L38.586,16C38.586,14.895 39.482,14 40.586,14C41.691,14 42.586,14.895 42.586,16L42.586,20C42.586,22.652 41.533,25.196 39.657,27.071C37.782,28.946 35.238,30 32.586,30C29.934,30 27.39,28.946 25.515,27.071C23.64,25.196 22.586,22.652 22.586,20L22.586,16C22.586,14.895 23.482,14 24.586,14Z" clip-rule="evenodd" fill-rule="evenodd" fill="#A259FF"/>
<path d="M40.586,14C41.691,14 42.586,14.895 42.586,16L42.586,20C42.586,21.591 43.218,23.117 44.344,24.243C45.469,25.368 46.995,26 48.586,26C50.177,26 51.704,25.368 52.829,24.243C53.954,23.117 54.586,21.591 54.586,20L54.586,16C54.586,14.895 55.482,14 56.586,14C57.691,14 58.586,14.895 58.586,16L58.586,20C58.586,22.652 57.533,25.196 55.657,27.071C53.782,28.946 51.238,30 48.586,30C45.934,30 43.39,28.946 41.515,27.071C39.64,25.196 38.586,22.652 38.586,20L38.586,16C38.586,14.895 39.482,14 40.586,14Z" clip-rule="evenodd" fill-rule="evenodd" fill="#A259FF"/>
</svg>
