<svg width="56" height="50" viewBox="0 0 56 50" fill="none" xmlns="http://www.w3.org/2000/svg" xmlns:xlink="http://www.w3.org/1999/xlink">
<path d="M34.711,2.001L34.684,4.001L34.688,4.001L34.711,2.001ZM43.761,8.001L41.928,8.801C42.246,9.53 42.966,10.001 43.761,10.001L43.761,8.001ZM52.586,8.001L54,9.415C54.572,8.843 54.743,7.983 54.434,7.236C54.124,6.488 53.395,6.001 52.586,6.001L52.586,8.001ZM44.511,16.076L43.097,14.662C42.753,15.005 42.546,15.463 42.515,15.948L44.511,16.076ZM12.586,46.001L12.587,44.001L12.586,44.001L12.586,46.001ZM2.586,43.001L1.884,41.128C1.312,41.343 0.87,41.806 0.683,42.387C0.495,42.968 0.583,43.602 0.922,44.11L2.586,43.001ZM14.586,34.001L16.25,35.11C16.568,34.633 16.666,34.042 16.519,33.488C16.372,32.933 15.994,32.469 15.48,32.212L14.586,34.001ZM2.586,4.001L4,2.587C3.474,2.061 2.7,1.87 1.99,2.092C1.28,2.314 0.751,2.911 0.618,3.643L2.586,4.001ZM24.586,16.001L24.257,17.974C24.837,18.07 25.43,17.907 25.879,17.527C26.327,17.147 26.586,16.589 26.586,16.001L24.586,16.001ZM26.586,12.001C26.586,7.613 30.302,3.941 34.684,4.001L34.738,0.001C28.12,-0.089 22.586,5.389 22.586,12.001L26.586,12.001ZM34.688,4.001C36.229,4.019 37.732,4.481 39.016,5.333L41.226,1.999C39.3,0.721 37.045,0.028 34.734,0.001L34.688,4.001ZM39.016,5.333C40.3,6.184 41.312,7.388 41.928,8.801L45.594,7.201C44.67,5.082 43.153,3.276 41.226,1.999L39.016,5.333ZM43.761,10.001L52.586,10.001L52.586,6.001L43.761,6.001L43.761,10.001ZM51.172,6.587L43.097,14.662L45.925,17.49L54,9.415L51.172,6.587ZM42.515,15.948C42.027,23.552 38.66,30.684 33.101,35.895L35.837,38.814C42.138,32.907 45.953,24.823 46.507,16.204L42.515,15.948ZM33.101,35.895C27.542,41.106 20.207,44.005 12.587,44.001L12.585,48.001C21.222,48.005 29.536,44.72 35.837,38.814L33.101,35.895ZM12.586,44.001C8.837,44.001 6.654,43.299 5.48,42.712C4.892,42.418 4.541,42.144 4.361,41.983C4.271,41.902 4.222,41.847 4.206,41.828C4.198,41.819 4.199,41.819 4.206,41.829C4.21,41.834 4.216,41.842 4.223,41.852C4.227,41.857 4.231,41.863 4.235,41.87C4.238,41.873 4.24,41.876 4.242,41.88C4.244,41.882 4.245,41.884 4.246,41.886C4.247,41.887 4.248,41.888 4.248,41.889C4.249,41.89 4.25,41.892 2.586,43.001C0.922,44.11 0.923,44.112 0.924,44.113C0.924,44.114 0.925,44.115 0.926,44.116C0.927,44.119 0.929,44.121 0.93,44.123C0.933,44.127 0.936,44.132 0.94,44.137C0.946,44.146 0.953,44.156 0.961,44.167C0.976,44.189 0.994,44.213 1.015,44.24C1.056,44.294 1.107,44.359 1.169,44.431C1.294,44.577 1.464,44.756 1.686,44.956C2.131,45.357 2.78,45.834 3.692,46.29C5.518,47.203 8.335,48.001 12.586,48.001L12.586,44.001ZM2.586,43.001C3.288,44.874 3.289,44.873 3.289,44.873C3.29,44.873 3.29,44.873 3.29,44.873C3.291,44.872 3.292,44.872 3.293,44.872C3.296,44.871 3.298,44.87 3.301,44.869C3.308,44.866 3.316,44.863 3.326,44.859C3.346,44.851 3.374,44.841 3.409,44.827C3.479,44.799 3.578,44.76 3.702,44.708C3.951,44.605 4.304,44.454 4.737,44.254C5.6,43.856 6.791,43.26 8.115,42.466C10.73,40.897 14.015,38.463 16.25,35.11L12.922,32.892C11.157,35.539 8.442,37.605 6.057,39.036C4.881,39.742 3.822,40.271 3.06,40.622C2.681,40.798 2.377,40.928 2.173,41.012C2.071,41.054 1.994,41.085 1.945,41.105C1.92,41.114 1.902,41.121 1.892,41.125C1.887,41.127 1.884,41.128 1.882,41.129C1.882,41.129 1.881,41.129 1.882,41.129C1.882,41.129 1.882,41.129 1.882,41.129C1.883,41.129 1.883,41.129 1.883,41.129C1.883,41.128 1.884,41.128 2.586,43.001ZM14.586,34.001C15.48,32.212 15.481,32.213 15.482,32.213C15.483,32.213 15.484,32.214 15.484,32.214C15.485,32.214 15.486,32.215 15.486,32.215C15.487,32.215 15.487,32.215 15.486,32.215C15.484,32.214 15.478,32.211 15.469,32.206C15.45,32.196 15.418,32.179 15.372,32.154C15.28,32.103 15.135,32.021 14.947,31.906C14.569,31.676 14.018,31.316 13.36,30.816C12.041,29.812 10.311,28.256 8.696,26.065C5.503,21.73 2.658,14.784 4.554,4.359L0.618,3.643C-1.486,15.218 1.669,23.271 5.476,28.437C7.361,30.996 9.381,32.815 10.938,33.999C11.717,34.592 12.384,35.029 12.866,35.322C13.107,35.469 13.302,35.58 13.443,35.658C13.513,35.696 13.57,35.727 13.612,35.749C13.633,35.76 13.65,35.768 13.663,35.775C13.67,35.779 13.676,35.782 13.68,35.784C13.683,35.785 13.685,35.786 13.687,35.787C13.688,35.788 13.689,35.788 13.689,35.789C13.691,35.789 13.692,35.79 14.586,34.001ZM2.586,4.001C1.172,5.415 1.172,5.416 1.173,5.416C1.173,5.416 1.173,5.417 1.174,5.417C1.174,5.418 1.175,5.419 1.176,5.42C1.179,5.422 1.181,5.425 1.185,5.428C1.191,5.435 1.201,5.444 1.212,5.455C1.235,5.478 1.268,5.51 1.31,5.551C1.395,5.632 1.516,5.749 1.674,5.896C1.989,6.19 2.446,6.607 3.031,7.11C4.199,8.116 5.882,9.475 7.953,10.899C12.066,13.727 17.847,16.905 24.257,17.974L24.915,14.028C19.325,13.096 14.106,10.275 10.219,7.603C8.29,6.277 6.723,5.011 5.641,4.079C5.101,3.614 4.683,3.234 4.405,2.973C4.265,2.843 4.16,2.743 4.092,2.677C4.058,2.644 4.033,2.619 4.018,2.604C4.01,2.597 4.005,2.591 4.002,2.588C4,2.587 4,2.586 3.999,2.586C3.999,2.586 3.999,2.586 3.999,2.586C3.999,2.586 4,2.586 4,2.586C4,2.586 4,2.587 2.586,4.001ZM26.586,16.001L26.586,12.001L22.586,12.001L22.586,16.001L26.586,16.001Z" fill="#858584"/>
</svg>
