<svg width="54" height="50" viewBox="0 0 54 50" fill="none" xmlns="http://www.w3.org/2000/svg" xmlns:xlink="http://www.w3.org/1999/xlink">
<path d="M34.125,2.001L34.098,4.001L34.102,4.001L34.125,2.001ZM43.175,8.001L41.342,8.801C41.66,9.53 42.38,10.001 43.175,10.001L43.175,8.001ZM52,8.001L53.414,9.415C53.986,8.843 54.157,7.983 53.848,7.236C53.538,6.488 52.809,6.001 52,6.001L52,8.001ZM43.925,16.076L42.511,14.662C42.167,15.005 41.96,15.463 41.929,15.948L43.925,16.076ZM12,46.001L12.001,44.001L12,44.001L12,46.001ZM2,43.001L1.298,41.128C0.726,41.343 0.284,41.806 0.096,42.387C-0.091,42.968 -0.003,43.602 0.336,44.11L2,43.001ZM14,34.001L15.664,35.11C15.982,34.633 16.08,34.042 15.933,33.488C15.786,32.933 15.407,32.469 14.894,32.212L14,34.001ZM2,4.001L3.414,2.587C2.888,2.061 2.114,1.87 1.404,2.092C0.693,2.314 0.165,2.911 0.032,3.643L2,4.001ZM24,16.001L23.671,17.974C24.251,18.07 24.844,17.907 25.293,17.527C25.741,17.147 26,16.589 26,16.001L24,16.001ZM26,12.001C26,7.613 29.716,3.941 34.098,4.001L34.152,0.001C27.534,-0.089 22,5.389 22,12.001L26,12.001ZM34.102,4.001C35.643,4.019 37.146,4.481 38.43,5.333L40.64,1.999C38.714,0.721 36.459,0.028 34.148,0.001L34.102,4.001ZM38.43,5.333C39.714,6.184 40.726,7.388 41.342,8.801L45.008,7.201C44.084,5.082 42.567,3.276 40.64,1.999L38.43,5.333ZM43.175,10.001L52,10.001L52,6.001L43.175,6.001L43.175,10.001ZM50.586,6.587L42.511,14.662L45.339,17.49L53.414,9.415L50.586,6.587ZM41.929,15.948C41.441,23.552 38.074,30.684 32.515,35.895L35.251,38.814C41.552,32.907 45.367,24.823 45.921,16.204L41.929,15.948ZM32.515,35.895C26.956,41.106 19.621,44.005 12.001,44.001L11.999,48.001C20.635,48.005 28.95,44.72 35.251,38.814L32.515,35.895ZM12,44.001C8.251,44.001 6.068,43.299 4.894,42.712C4.306,42.418 3.955,42.144 3.775,41.983C3.685,41.902 3.636,41.847 3.62,41.828C3.612,41.819 3.612,41.819 3.62,41.829C3.624,41.834 3.63,41.842 3.637,41.852C3.641,41.857 3.645,41.863 3.649,41.87C3.651,41.873 3.654,41.876 3.656,41.88C3.658,41.882 3.659,41.884 3.66,41.886C3.661,41.887 3.662,41.888 3.662,41.889C3.663,41.89 3.664,41.892 2,43.001C0.336,44.11 0.337,44.112 0.338,44.113C0.338,44.114 0.339,44.115 0.34,44.116C0.341,44.119 0.343,44.121 0.344,44.123C0.347,44.127 0.35,44.132 0.354,44.137C0.36,44.146 0.367,44.156 0.375,44.167C0.39,44.189 0.408,44.213 0.429,44.24C0.469,44.294 0.521,44.359 0.583,44.431C0.708,44.577 0.877,44.756 1.099,44.956C1.545,45.357 2.194,45.834 3.105,46.29C4.932,47.203 7.749,48.001 12,48.001L12,44.001ZM2,43.001C2.702,44.874 2.703,44.873 2.703,44.873C2.703,44.873 2.704,44.873 2.704,44.873C2.705,44.872 2.706,44.872 2.707,44.872C2.709,44.871 2.712,44.87 2.715,44.869C2.722,44.866 2.73,44.863 2.74,44.859C2.76,44.851 2.788,44.841 2.823,44.827C2.893,44.799 2.992,44.76 3.116,44.708C3.365,44.605 3.718,44.454 4.151,44.254C5.014,43.856 6.205,43.26 7.529,42.466C10.144,40.897 13.429,38.463 15.664,35.11L12.336,32.892C10.571,35.539 7.856,37.605 5.471,39.036C4.295,39.742 3.235,40.271 2.474,40.622C2.094,40.798 1.791,40.928 1.587,41.012C1.485,41.054 1.408,41.085 1.358,41.105C1.334,41.114 1.316,41.121 1.306,41.125C1.301,41.127 1.298,41.128 1.296,41.129C1.295,41.129 1.295,41.129 1.295,41.129C1.296,41.129 1.296,41.129 1.296,41.129C1.296,41.129 1.297,41.129 1.297,41.129C1.297,41.128 1.298,41.128 2,43.001ZM14,34.001C14.894,32.212 14.895,32.213 14.896,32.213C14.896,32.213 14.897,32.214 14.898,32.214C14.899,32.214 14.899,32.215 14.9,32.215C14.901,32.215 14.901,32.215 14.9,32.215C14.898,32.214 14.892,32.211 14.883,32.206C14.864,32.196 14.832,32.179 14.786,32.154C14.694,32.103 14.549,32.021 14.361,31.906C13.983,31.676 13.432,31.316 12.773,30.816C11.455,29.812 9.725,28.256 8.11,26.065C4.916,21.73 2.072,14.784 3.968,4.359L0.032,3.643C-2.072,15.218 1.083,23.271 4.89,28.437C6.775,30.996 8.795,32.815 10.351,33.999C11.131,34.592 11.798,35.029 12.28,35.322C12.521,35.469 12.716,35.58 12.857,35.658C12.927,35.696 12.984,35.727 13.025,35.749C13.046,35.76 13.064,35.768 13.077,35.775C13.084,35.779 13.089,35.782 13.094,35.784C13.096,35.785 13.099,35.786 13.101,35.787C13.101,35.788 13.103,35.788 13.103,35.789C13.104,35.789 13.105,35.79 14,34.001ZM2,4.001C0.586,5.415 0.586,5.416 0.586,5.416C0.587,5.416 0.587,5.417 0.588,5.417C0.588,5.418 0.589,5.419 0.59,5.42C0.592,5.422 0.595,5.425 0.599,5.428C0.605,5.435 0.614,5.444 0.626,5.455C0.649,5.478 0.682,5.51 0.724,5.551C0.808,5.632 0.93,5.749 1.088,5.896C1.402,6.19 1.86,6.607 2.445,7.11C3.613,8.116 5.296,9.475 7.367,10.899C11.48,13.727 17.261,16.905 23.671,17.974L24.329,14.028C18.739,13.096 13.52,10.275 9.633,7.603C7.704,6.277 6.137,5.011 5.055,4.079C4.515,3.614 4.097,3.234 3.818,2.973C3.679,2.843 3.574,2.743 3.506,2.677C3.472,2.644 3.447,2.619 3.432,2.604C3.424,2.597 3.419,2.591 3.416,2.588C3.414,2.587 3.413,2.586 3.413,2.586C3.413,2.586 3.413,2.586 3.413,2.586C3.413,2.586 3.413,2.586 3.414,2.586C3.414,2.586 3.414,2.587 2,4.001ZM26,16.001L26,12.001L22,12.001L22,16.001L26,16.001Z" fill="#858584"/>
</svg>
