<svg width="64" height="64" viewBox="0 0 64 64" fill="none" xmlns="http://www.w3.org/2000/svg" xmlns:xlink="http://www.w3.org/1999/xlink">
<path d="M27.056,22.237C27.707,21.889 28.496,21.927 29.109,22.336L41.109,30.336C41.666,30.707 42,31.331 42,32C42,32.669 41.666,33.293 41.109,33.664L29.109,41.664C28.496,42.073 27.707,42.111 27.056,41.763C26.406,41.415 26,40.738 26,40L26,24C26,23.262 26.406,22.585 27.056,22.237ZM30,27.737L30,36.263L36.394,32L30,27.737Z" clip-rule="evenodd" fill-rule="evenodd" fill="#858584"/>
<path d="M31.997,10.1L31.963,10.1L31.838,10.1C31.729,10.1 31.57,10.101 31.366,10.103C30.959,10.107 30.371,10.117 29.641,10.139C28.182,10.183 26.149,10.275 23.847,10.469C19.295,10.854 13.499,11.651 9.036,13.356L9.007,13.368C8.13,13.719 7.348,14.271 6.724,14.979C6.1,15.688 5.652,16.533 5.414,17.447L5.412,17.455C4.789,19.892 4,24.411 4,32C4,39.588 4.789,44.108 5.412,46.545L5.414,46.552C5.652,47.466 6.1,48.312 6.724,49.02C7.348,49.729 8.13,50.281 9.007,50.631L9.036,50.643C13.499,52.348 19.295,53.146 23.847,53.53C26.149,53.724 28.182,53.817 29.641,53.861C30.371,53.882 30.959,53.892 31.366,53.897C31.57,53.899 31.729,53.9 31.838,53.9L31.963,53.9L31.997,53.9L32.003,53.9L32.037,53.9L32.162,53.9C32.271,53.9 32.43,53.899 32.634,53.897C33.041,53.892 33.629,53.882 34.359,53.861C35.818,53.817 37.851,53.724 40.153,53.53C44.705,53.146 50.501,52.348 54.964,50.643L54.993,50.631C55.87,50.281 56.652,49.729 57.276,49.02C57.9,48.312 58.348,47.466 58.586,46.552L58.588,46.545C59.211,44.108 60,39.588 60,32C60,24.411 59.211,19.892 58.588,17.455L58.586,17.447C58.348,16.533 57.9,15.688 57.276,14.979C56.652,14.271 55.87,13.719 54.993,13.368L54.964,13.356C50.501,11.651 44.705,10.854 40.153,10.469C37.851,10.275 35.818,10.183 34.359,10.139C33.629,10.117 33.041,10.107 32.634,10.103C32.43,10.101 32.271,10.1 32.162,10.1L32.037,10.1L32.003,10.1L31.997,10.1ZM31.989,49.9L32.011,49.9L32.017,49.9L32.043,49.9L32.153,49.9C32.252,49.9 32.399,49.899 32.591,49.897C32.975,49.893 33.537,49.883 34.239,49.862C35.643,49.82 37.602,49.731 39.816,49.544C44.288,49.167 49.608,48.404 53.519,46.913C53.809,46.795 54.067,46.611 54.274,46.376C54.483,46.139 54.633,45.856 54.713,45.55C55.241,43.486 56,39.306 56,32C56,24.694 55.241,20.514 54.713,18.449C54.633,18.143 54.483,17.86 54.274,17.623C54.067,17.388 53.809,17.205 53.519,17.087C49.608,15.596 44.288,14.833 39.816,14.455C37.602,14.268 35.643,14.179 34.239,14.137C33.537,14.116 32.975,14.107 32.591,14.103C32.399,14.101 32.252,14.1 32.153,14.1L32.043,14.1L32.017,14.1L32.012,14.1L31.989,14.1L31.983,14.1L31.957,14.1L31.847,14.1C31.748,14.1 31.601,14.101 31.409,14.103C31.025,14.107 30.463,14.116 29.761,14.137C28.357,14.179 26.398,14.268 24.184,14.455C19.712,14.833 14.392,15.596 10.481,17.087C10.191,17.205 9.933,17.388 9.726,17.623C9.517,17.86 9.367,18.143 9.287,18.449C8.759,20.514 8,24.694 8,32C8,39.306 8.759,43.486 9.287,45.55C9.367,45.856 9.517,46.139 9.726,46.376C9.933,46.611 10.191,46.795 10.481,46.913C14.392,48.404 19.712,49.167 24.184,49.544C26.398,49.731 28.357,49.82 29.761,49.862C30.463,49.883 31.025,49.893 31.409,49.897C31.601,49.899 31.748,49.9 31.847,49.9L31.957,49.9L31.983,49.9L31.989,49.9Z" clip-rule="evenodd" fill-rule="evenodd" fill="#858584"/>
</svg>
