<svg width="66" height="64" viewBox="0 0 66 64" fill="none" xmlns="http://www.w3.org/2000/svg" xmlns:xlink="http://www.w3.org/1999/xlink">
<path d="M27.642,22.237C28.293,21.889 29.082,21.927 29.696,22.336L41.696,30.336C42.252,30.707 42.586,31.331 42.586,32C42.586,32.669 42.252,33.293 41.696,33.664L29.696,41.664C29.082,42.073 28.293,42.111 27.642,41.763C26.992,41.415 26.586,40.738 26.586,40L26.586,24C26.586,23.262 26.992,22.585 27.642,22.237ZM30.586,27.737L30.586,36.263L36.981,32L30.586,27.737Z" clip-rule="evenodd" fill-rule="evenodd" fill="#858584"/>
<path d="M32.583,10.1L32.549,10.1L32.424,10.1C32.315,10.1 32.156,10.101 31.952,10.103C31.545,10.107 30.957,10.117 30.227,10.139C28.769,10.183 26.735,10.275 24.434,10.469C19.881,10.854 14.085,11.651 9.622,13.356L9.593,13.368C8.716,13.719 7.935,14.271 7.311,14.979C6.687,15.688 6.238,16.533 6,17.447L5.998,17.455C5.376,19.892 4.586,24.411 4.586,32C4.586,39.588 5.376,44.108 5.998,46.545L6,46.552C6.238,47.466 6.687,48.312 7.311,49.02C7.935,49.729 8.716,50.281 9.593,50.631L9.622,50.643C14.085,52.348 19.881,53.146 24.434,53.53C26.735,53.724 28.769,53.817 30.227,53.861C30.957,53.882 31.545,53.892 31.952,53.897C32.156,53.899 32.315,53.9 32.424,53.9L32.549,53.9L32.583,53.9L32.589,53.9L32.623,53.9L32.749,53.9C32.858,53.9 33.016,53.899 33.22,53.897C33.627,53.892 34.215,53.882 34.945,53.861C36.404,53.817 38.437,53.724 40.739,53.53C45.292,53.146 51.088,52.348 55.55,50.643L55.579,50.631C56.456,50.281 57.238,49.729 57.862,49.02C58.486,48.312 58.935,47.466 59.172,46.552L59.174,46.545C59.797,44.108 60.586,39.588 60.586,32C60.586,24.411 59.797,19.892 59.174,17.455L59.172,17.447C58.935,16.533 58.486,15.688 57.862,14.979C57.238,14.271 56.456,13.719 55.579,13.368L55.55,13.356C51.088,11.651 45.292,10.854 40.739,10.469C38.437,10.275 36.404,10.183 34.945,10.139C34.215,10.117 33.627,10.107 33.22,10.103C33.016,10.101 32.858,10.1 32.749,10.1L32.623,10.1L32.589,10.1L32.583,10.1ZM32.576,49.9L32.597,49.9L32.603,49.9L32.63,49.9L32.74,49.9C32.838,49.9 32.985,49.899 33.178,49.897C33.562,49.893 34.123,49.883 34.825,49.862C36.229,49.82 38.188,49.731 40.402,49.544C44.874,49.167 50.194,48.404 54.105,46.913C54.395,46.795 54.653,46.611 54.86,46.376C55.069,46.139 55.22,45.856 55.3,45.55C55.827,43.486 56.586,39.306 56.586,32C56.586,24.694 55.827,20.514 55.3,18.449C55.22,18.143 55.069,17.86 54.86,17.623C54.653,17.388 54.395,17.205 54.105,17.087C50.194,15.596 44.874,14.833 40.402,14.455C38.188,14.268 36.229,14.179 34.825,14.137C34.123,14.116 33.562,14.107 33.178,14.103C32.985,14.101 32.838,14.1 32.74,14.1L32.63,14.1L32.603,14.1L32.598,14.1L32.575,14.1L32.569,14.1L32.543,14.1L32.433,14.1C32.334,14.1 32.187,14.101 31.995,14.103C31.611,14.107 31.049,14.116 30.347,14.137C28.943,14.179 26.984,14.268 24.77,14.455C20.298,14.833 14.978,15.596 11.067,17.087C10.777,17.205 10.519,17.388 10.312,17.623C10.103,17.86 9.953,18.143 9.873,18.449C9.346,20.514 8.586,24.694 8.586,32C8.586,39.306 9.346,43.486 9.873,45.55C9.953,45.856 10.103,46.139 10.312,46.376C10.519,46.611 10.777,46.795 11.067,46.913C14.978,48.404 20.298,49.167 24.77,49.544C26.984,49.731 28.943,49.82 30.347,49.862C31.049,49.883 31.611,49.893 31.995,49.897C32.187,49.899 32.334,49.9 32.433,49.9L32.543,49.9L32.569,49.9L32.576,49.9Z" clip-rule="evenodd" fill-rule="evenodd" fill="#858584"/>
</svg>
